<svg width="20" height="20" viewBox="0 0 20 20" fill="none" xmlns="http://www.w3.org/2000/svg"><path d="M17.6 12.963c-.677-1.166-1.038-2.84-1.038-4.838a6.563 6.563 0 0 0-13.125 0c0 1.998-.358 3.672-1.036 4.838a1.569 1.569 0 0 0 .565 2.143c.239.137.509.209.784.207h2.826a3.438 3.438 0 0 0 6.847 0h2.827a1.545 1.545 0 0 0 1.352-.782 1.568 1.568 0 0 0-.001-1.568Zm-7.6 3.6a1.562 1.562 0 0 1-1.531-1.25h3.062A1.563 1.563 0 0 1 10 16.563Zm-5.73-3.125c.692-1.407 1.042-3.193 1.042-5.313a4.687 4.687 0 1 1 9.375 0c0 2.12.35 3.906 1.042 5.313H4.27Z" fill="#000"/></svg>