<svg width="100" height="110" viewBox="0 0 100 110" fill="#D2D2D2" xmlns="http://www.w3.org/2000/svg"><path d="M83.63.66 64.784 6.809 80.298 22.99l9.443-3.126L83.63.66ZM50.68 11.39l-9.448 3.076L56.79 30.59l9.4-3.07-15.51-16.132Zm-23.505 7.6-9.437 3.177 15.557 16.125 9.4-3.07-15.52-16.232ZM3.64 26.799l-4.703 1.51a9.882 9.882 0 0 0-5.749 4.985 10.26 10.26 0 0 0-.596 7.687l3.054 9.601L19.15 42.93 3.64 26.8Zm-7.994 23.783 5.812 50.119a10.197 10.197 0 0 0 3.699 6.754 9.79 9.79 0 0 0 7.286 2.13l78.58-9.112c5.451-.632 9.305-5.6 8.66-11.162l-5.812-50.119-98.225 11.39Z"/></svg>