<svg width="95" height="100" viewBox="0 0 95 100" fill="none" xmlns="http://www.w3.org/2000/svg"><path fill-rule="evenodd" clip-rule="evenodd" d="M1.73 50.241a23.865 23.865 0 0 1 3.398-19.586 23.848 23.848 0 0 1 17.05-10.21A21.481 21.481 0 0 1 38.126 1.167a21.47 21.47 0 0 1 23.378 8.911 23.844 23.844 0 0 1 16.792-.788 23.866 23.866 0 0 1 7.424 41.433l4.154 15.761c2.294 8.702 3.44 13.049 1.45 16.465-1.99 3.416-6.336 4.562-15.035 6.855l-27.676 7.295c-8.699 2.293-13.044 3.438-16.46 1.447-3.415-1.992-4.561-6.338-6.855-15.04l-4.154-15.762A23.858 23.858 0 0 1 1.73 50.241Zm41.106 24.941a3.577 3.577 0 0 0-2.547 4.373 3.58 3.58 0 0 0 4.372 2.548l27.675-7.295a3.577 3.577 0 0 0 2.547-4.372 3.58 3.58 0 0 0-4.371-2.549l-27.676 7.295Z" fill="#D2D2D2"/></svg>