<svg width="158" height="110" viewBox="0 0 158 110" fill="none" xmlns="http://www.w3.org/2000/svg">
<path fill-rule="evenodd" clip-rule="evenodd" d="M153.609 49.9942C146.641 11.3876 131.062 0 122.775 0C109.843 0 106.524 9.538 79.0004 9.85933C51.4763 9.538 48.1582 0 35.2257 0C26.9385 0 11.3515 11.3876 4.38356 49.9942C0.409793 72.0327 -3.90368 104.934 6.3744 108.884C19.1647 113.798 23.5019 101.509 37.5484 91.1243C51.8081 80.5988 58.6496 78.1222 79.0004 78.1222C99.3512 78.1222 106.193 80.5988 120.452 91.1243C134.499 101.501 138.836 113.798 151.626 108.884C161.904 104.934 157.591 72.0405 153.609 49.9942ZM47.3998 55.0022C43.2093 55.0022 39.1905 53.3508 36.2273 50.4112C33.2642 47.4716 31.5995 43.4848 31.5995 39.3276C31.5995 35.1704 33.2642 31.1835 36.2273 28.244C39.1905 25.3044 43.2093 23.653 47.3998 23.653C51.5903 23.653 55.6092 25.3044 58.5723 28.244C61.5354 31.1835 63.2001 35.1704 63.2001 39.3276C63.2001 43.4848 61.5354 47.4716 58.5723 50.4112C55.6092 53.3508 51.5903 55.0022 47.3998 55.0022ZM102.701 55.0022C100.606 55.0022 98.5961 54.1765 97.1146 52.7067C95.633 51.2369 94.8007 49.2435 94.8007 47.1649C94.8007 45.0863 95.633 43.0929 97.1146 41.6231C98.5961 40.1533 100.606 39.3276 102.701 39.3276C104.796 39.3276 106.805 40.1533 108.287 41.6231C109.769 43.0929 110.601 45.0863 110.601 47.1649C110.601 49.2435 109.769 51.2369 108.287 52.7067C106.805 54.1765 104.796 55.0022 102.701 55.0022ZM118.501 39.3276C116.406 39.3276 114.396 38.5019 112.915 37.0321C111.433 35.5623 110.601 33.5689 110.601 31.4903C110.601 29.4117 111.433 27.4183 112.915 25.9485C114.396 24.4787 116.406 23.653 118.501 23.653C120.596 23.653 122.606 24.4787 124.087 25.9485C125.569 27.4183 126.401 29.4117 126.401 31.4903C126.401 33.5689 125.569 35.5623 124.087 37.0321C122.606 38.5019 120.596 39.3276 118.501 39.3276Z" fill="#CCCCCC"/>
</svg>
