<svg width="20" height="22" viewBox="0 0 20 22" fill="none" xmlns="http://www.w3.org/2000/svg"><g clip-path="url(#a)"><path d="M19.99 11.192c0-.841-.068-1.455-.215-2.091H10.2v3.796h5.621c-.113.943-.725 2.363-2.085 3.318l-.02.127 3.029 2.352.21.021c1.926-1.784 3.037-4.41 3.037-7.523Z" fill="#4285F4"/><path d="M10.2 21.193c2.753 0 5.065-.91 6.753-2.478l-3.218-2.5c-.861.602-2.017 1.023-3.536 1.023-2.697 0-4.986-1.784-5.802-4.25l-.12.01L1.13 15.44l-.041.115c1.677 3.34 5.122 5.637 9.111 5.637Z" fill="#FACA16"/><path d="M4.397 12.988a6.313 6.313 0 0 1-.34-2.023c0-.705.125-1.387.329-2.023l-.006-.136-3.188-2.482-.104.05A10.26 10.26 0 0 0 0 10.963c0 1.649.397 3.205 1.088 4.592l3.309-2.568Z" fill="#FBBC05"/><path d="M10.2 4.692c1.914 0 3.206.83 3.943 1.522l2.878-2.818C15.253 1.748 12.953.736 10.2.736c-3.989 0-7.434 2.296-9.111 5.637l3.298 2.569c.827-2.466 3.116-4.25 5.813-4.25Z" fill="#EB4335"/></g><defs><clipPath id="a"><path fill="#fff" d="M0 .737h20v20.526H0z"/></clipPath></defs></svg>