<svg width="28" height="27" viewBox="0 0 28 27" fill="none" xmlns="http://www.w3.org/2000/svg">
<path d="M8.66667 8.76471H19.3333M8.66667 14.1765H16.6667M10 20.9412H6C4.93913 20.9412 3.92172 20.5136 3.17157 19.7524C2.42143 18.9912 2 17.9588 2 16.8824V6.05882C2 4.98236 2.42143 3.94998 3.17157 3.1888C3.92172 2.42762 4.93913 2 6 2H22C23.0609 2 24.0783 2.42762 24.8284 3.1888C25.5786 3.94998 26 4.98236 26 6.05882V16.8824C26 17.9588 25.5786 18.9912 24.8284 19.7524C24.0783 20.5136 23.0609 20.9412 22 20.9412H18L14 25L10 20.9412Z" stroke="#222222" stroke-width="2.2" stroke-linecap="round" stroke-linejoin="round"/>
</svg>
