<svg width="25" height="25" viewBox="0 0 25 25" fill="none" xmlns="http://www.w3.org/2000/svg">
<path fill-rule="evenodd" clip-rule="evenodd" d="M7.9545 9.09093C7.9545 10.2965 8.4334 11.4526 9.28583 12.305C10.1383 13.1575 11.2944 13.6364 12.5 13.6364C13.7055 13.6364 14.8616 13.1575 15.7141 12.305C16.5665 11.4526 17.0454 10.2965 17.0454 9.09093C17.0454 7.8854 16.5665 6.72924 15.7141 5.8768C14.8616 5.02437 13.7055 4.54547 12.5 4.54547C11.2944 4.54547 10.1383 5.02437 9.28583 5.8768C8.4334 6.72924 7.9545 7.8854 7.9545 9.09093ZM10.2272 9.09093C10.2272 9.69369 10.4667 10.2718 10.8929 10.698C11.3191 11.1242 11.8972 11.3637 12.5 11.3637C13.1027 11.3637 13.6808 11.1242 14.107 10.698C14.5332 10.2718 14.7727 9.69369 14.7727 9.09093C14.7727 8.48816 14.5332 7.91008 14.107 7.48386C13.6808 7.05765 13.1027 6.8182 12.5 6.8182C11.8972 6.8182 11.3191 7.05765 10.8929 7.48386C10.4667 7.91008 10.2272 8.48816 10.2272 9.09093Z" fill="black"/>
<path fill-rule="evenodd" clip-rule="evenodd" d="M12.5 0C19.4034 0 25 5.59659 25 12.5C25 19.4034 19.4034 25 12.5 25C5.59659 25 2.38419e-07 19.4034 2.38419e-07 12.5C2.38419e-07 5.59659 5.59659 0 12.5 0ZM22.7273 12.5C22.7273 14.875 21.917 17.0614 20.5591 18.7977C19.6054 17.5453 18.3751 16.5304 16.9643 15.8322C15.5534 15.134 14.0003 14.7714 12.4261 14.7727C10.8724 14.7713 9.33873 15.1245 7.94212 15.8054C6.54551 16.4864 5.32277 17.4772 4.36705 18.7023C3.38245 17.4109 2.7195 15.9037 2.43307 14.3052C2.14665 12.7068 2.24496 11.0631 2.71989 9.51021C3.19482 7.95731 4.03271 6.53983 5.16422 5.37504C6.29574 4.21026 7.68835 3.33166 9.22684 2.81194C10.7653 2.29222 12.4055 2.14633 14.0115 2.38633C15.6176 2.62633 17.1434 3.24533 18.4628 4.19211C19.7821 5.13888 20.857 6.38622 21.5986 7.8309C22.3402 9.27559 22.7271 10.8761 22.7273 12.5ZM12.5 22.7273C14.8478 22.7308 17.1247 21.9231 18.9455 20.4409C18.2126 19.3917 17.2371 18.5351 16.1021 17.944C14.967 17.3528 13.7059 17.0445 12.4261 17.0455C11.1623 17.0444 9.91649 17.345 8.79213 17.9221C7.66776 18.4992 6.69731 19.3362 5.96136 20.3636C7.79625 21.894 10.1107 22.7306 12.5 22.7273Z" fill="black"/>
</svg>
