<svg width="316" height="180" viewBox="0 0 316 180" fill="none" xmlns="http://www.w3.org/2000/svg">
    <path fill-rule="evenodd" clip-rule="evenodd" d="M152.077 3.23c37.583-8.092 81.046-.567 110.468 17.952 30.788 19.379 52.975 50.285 43.066 78.687-9.153 26.238-56.421 31.388-87.041 47.363-22.597 11.79-38.504 31.954-66.493 32.741-28.591.803-49.411-16.3-71.956-28.85-27.783-15.465-75.365-26.257-71.946-51.254 3.472-25.388 58.664-24.657 84.72-42.155 24.384-16.375 27.103-47.576 59.182-54.483Z" fill="#FACA16" fill-opacity=".25"/>
    <path d="M204.509 109.19c-.069 1.192 5.57 3.54 5.802 1.82.232-1.72-5.634-4.837-5.802-1.82Z" fill="#0A3D56"/>
    <path d="M209.31 110.232c.095.546.609 4.35.368 5.032a.513.513 0 0 1-.032.078c-.277.655-1.105 1.278-1.378 1.72-.287.459-.797.532-1.206.896-.414.369-1.447.433-1.447.433s-1.634 1.196-1.68.546c-.054-.815.901-1.525.901-1.525l.728-1.838s-.423-2.48-.905-2.48c-.482 0-.3 1.028-.546 1.843-.159.541-.765.455-.765.455l-.059-1.488s.096-2.134.373-2.539c.273-.405 1.643-1.821 1.643-1.821l.573-3.067 4.114.246s-.792 2.963-.687 3.509h.005Z" fill="#FF8B66"/>
    <path d="M209.651 115.337c-.278.656-1.106 1.279-1.379 1.72-.287.46-.796.533-1.206.897-.414.368-1.447.432-1.447.432.391-.309 1.097-2.043 1.274-2.152.178-.105.287.141.605.141.319 0 .46-.637.779-.533.318.105.637.146.882-.282.105-.182.296-.223.492-.227v.004Z" fill="#EF6E4B"/>
    <path d="M159.258 70.237c-.987-1.146-4.991 3.6-3.408 5.315 1.584 1.716 4.655-1.71 4.655-1.71s-.218-2.403-1.251-3.6l.004-.005Z" fill="#0A3D56"/>
    <path d="M151.764 70.105c.546.073 2.061.883 2.061.883 1.083.851 1.688 1.315 2.453 1.47.764.155 1.857 1.966 1.857 1.966s1.447-1.325 1.838-3.222c0 0-.837-.71-.919-1.047-.169-.673.382-1.592-.178-2.757-.564-1.17-.696-2.903-.696-2.903s-.651-.287-.801.368c-.15.664.246 1.643.087 1.916a.917.917 0 0 1-.11.15l-.009.014c-.15.173-.359.286-.555.277-.009 0-.027.005-.045 0-.76-.104-1.975-1.31-2.462-1.897-.678-.815-1.675-1.889-1.998-1.279-.323.614.514.664 1.679 2.753l-.164.182c.078.155-1.306-.742-2.37-1.793-.733-.719-.988.01-.883.346.1.341.946.96 1.47 1.488.35.346.719.7.937.91l-.109.305c-1.939-.66-2.166-1.447-2.639-1.079-.469.365.682 1.352 1.296 1.57.264.096.706.396 1.12.706-1.584-.219-1.911-.77-2.221-.392-.318.387.806.992 1.352 1.065h.009Z" fill="#FF8B66"/>
    <path d="M156.992 69.213c-.377-.964.278-2.134.36-2.275-.15.173-.36.287-.555.278-.565 1.233.195 1.997.195 1.997Z" fill="#EF6E4B"/>
    <path d="m178.716 56.99-10.953 20.06s-.491-1.13-1.055-.674c-.565.455-7.454-6.134-7.454-6.134s.528 4.022-3.408 5.315c0 0 9.119 8.063 12.109 9.98 2.994 1.915 13.114-15.072 13.114-15.072l-2.362-13.47.009-.004Z" fill="#B08B17"/>
    <path d="M161.493 167.9c0 .496.05.842.05.842h14.311c0-.282-.004-.564-.018-.842-.164-3.745-1.342-6.994-1.342-6.994l-3.577-1.538c-.31 1.843-1.101 3.022-2.098 3.791a5.024 5.024 0 0 1-.819.523 7.046 7.046 0 0 1-1.315.532c-1.265.383-2.539.464-3.436.601-1.524.237-1.756 2.002-1.756 3.076v.009Z" fill="#0E3944"/>
    <path d="M161.493 167.9c0 .496.05.842.05.842h14.311c0-.282-.004-.564-.018-.842h-14.343Zm6.507-4.214 1.984.637.419-.728-1.588-.432a4.924 4.924 0 0 1-.82.523H168Zm-1.315.537 1.338.888.823-.323-1.246-.906a6.909 6.909 0 0 1-.915.337v.004Z" fill="#ADBEC4"/>
    <path d="M186.898 167.9c.037.487.164.842.164.842h9.533a4.1 4.1 0 0 0 .269-.842c.937-4.564-5.397-10.143-5.397-10.143l-2.011 2.685s.232 4.296-1.47 5.187c-1.019.537-1.151 1.548-1.088 2.276v-.005Z" fill="#0E3944"/>
    <path d="M196.859 167.9h-9.961c.037.487.164.842.164.842h9.533a4.08 4.08 0 0 0 .269-.842h-.005Zm-8.436-2.612s4.018-.914 5.847.269v-.665s-3.376-1.642-5.847.392v.004Z" fill="#ADBEC4"/>
    <path d="M189.214 164.269s2.567-1.174 5.052 0l-.283-.669s-2.971-1.124-4.769.669Z" fill="#ADBEC4"/>
    <path d="M202.82 94.16c0 9.068-.891 18.306-1.123 20.649-.233 2.344-2.653 28.518-2.995 38.643-.173 5.188-1.838 11.463-1.838 11.463s-4.942-3.995-7.741-1.028l-.7-4.046 1.31-3.185s-1.401-2.635-.255-4.683c1.147-2.047 1.498-45.819 1.498-45.819l-2.207-.141-10.59 50.643v2.885s-2.302 3.672-2.32 6.02l-7.04-2.393 1.147-3.327-.765-4.746 2.558-6.189s7.317-48.413 6.721-53.841l24.34-.901v-.005Z" fill="#AE8812"/>
    <path d="M202.752 96.425s-3.818 5.379-15.003 3.609c-6.352-1.006-9.237-4.11-9.237-4.11s-2.044-36.012.204-38.933c1.634-2.12 4.847-3.03 9.033-3.254 1.579-.082 3.295-.068 5.124.018 1.352.064 2.635.282 3.827.615 4.687 1.306 7.973 4.382 8.469 6.794.628 3.026-2.417 35.261-2.417 35.261Z" fill="#F4E4B0"/>
    <path d="M193.446 53.792s2.007 1.17 1.975 3.021c0 0 .678-4.127-.928-4.755-1.606-.628-1.047 1.738-1.047 1.738v-.004Z" fill="#7C6216"/>
    <path d="M203.576 100.439s-4.833 3.217-10.78 2.266c0 0-2.007-37.774-1.466-41.314 0 0 1.889-2.102 3.495-3.304 1.406-1.05 1.798-3.194 1.875-3.718 4.687 1.306 8.082 2.344 8.582 4.756.628 3.026-1.702 41.314-1.702 41.314h-.004Zm-15.827-46.702c-.637 1.015-1.834 3.295-2.184 6.557-.237 2.226-3.995 40.787-3.995 40.787-3.395-.019-4.169-1.962-4.169-1.962s-.932-39.207 1.315-42.128c1.634-2.12 4.847-3.031 9.033-3.254Z" fill="#FACA16"/>
    <path d="M194.493 52.053s3.322.06 4.146 3.454c.823 3.395-3.518 6.057-3.518 6.057s-.71-1.834-1.665-1.83c-.951 0-2.13 1.652-2.13 1.652s.905-2.07 2.257-3.112c1.351-1.042 2.639-3.986.906-6.22h.004Zm-6.189-.077s-4.459 1.474-5.824 6.858c0 0 .883-1.725 1.665-1.21.783.514 1.425 2.67 1.425 2.67s.773-5.27 3.335-6.598l-.601-1.715v-.005Zm16.578 6.043c-3.213 1.688-4.35 8.723-4.009 11.576l4.55 13.866s.114 1.61.683 1.838l-1.593 23.89c.46-.905 5.142-.168 5.802 1.821 0 0 3.19-23.062 2.73-29.392-.091-1.256-8.163-23.604-8.163-23.604v.005Z" fill="#B08B17"/>
    <path d="m187.972 50.675 1.488 5.86s1.684.793 5.252-1.61c0 0-1.893-4.46-.219-7.627 0 0-.423.027-1.097.105 0 0-.673 3.486-5.428 3.272h.004Z" fill="#EF6E4B"/>
    <path d="M195.458 44.363c.068 6.935-7.34 7.836-9.069 5.274-.556-.82-1.07-2.316-1.379-3.95a15.373 15.373 0 0 1-.178-1.124c-.323-2.557-.072-5.147 1.356-5.83 4.97-2.388 9.202-1.305 9.27 5.63Z" fill="#FF8B66"/>
    <path d="M189.879 43.116c.036.383-.109.71-.323.733-.214.018-.414-.273-.451-.66-.036-.382.109-.71.323-.733.214-.018.414.273.451.66Zm-3.486.619c.037.382-.109.71-.323.733-.214.018-.414-.273-.45-.66-.037-.382.109-.71.323-.733.214-.023.414.273.45.66Z" fill="#1A4850"/>
    <path d="M191.476 44.176c.123.292-.073.656-.437.806-.364.15-.76.04-.883-.25-.122-.292.073-.656.437-.806.364-.15.76-.04.883.25Zm-5.697 1.074c-.05.3-.392.492-.769.437a15.361 15.361 0 0 1-.178-1.124.882.882 0 0 1 .346-.009c.392.073.66.382.601.692v.004Z" fill="#DB614D"/>
    <path d="M188.719 40.74s.8-.209 1.383.174m-4.273.536s-.824.096-.81.551" stroke="#8B383E" stroke-linecap="round" stroke-linejoin="round"/>
    <path d="M186.948 42.593s.037 1.77-.937 3.18c0 0-.041.747 1.306.47" stroke="#DB614D" stroke-width=".75" stroke-miterlimit="10"/>
    <path d="M185.001 40.35s1.383-1.839 5.661-1.357c0 0 .637 2.544 1.934 3.3 1.296.755 1.792 2.925 1.792 2.925s.123-1.078.674-1.196c.555-.119-.159 3.367-.159 3.367s2.106-.318 2.211-6.134c.096-5.26-4.423-3.922-4.423-3.922s-1.088-2.166-6.079-1.052l.359.191s-2.312.364-3.131 2.308l.387-.041s-.441 1.028.769 1.61h.005Z" fill="#8B383E"/>
    <path d="M193.993 44.318s1.001-1.416 2.115-.706c1.115.71-.414 3.286-1.542 3.3-1.129.013-.573-2.594-.573-2.594Z" fill="#FF8B66"/>
    <path d="M185.105 46.16s.601.842 2.135.683c2.602-.264 5.679-1.483 6.611-3.581l.305.85s.81 3.304.446 4.41l-.241-.109s.082 1.379-1.861 2.42c-1.966 1.057-3.354 1.057-3.354 1.057l.287.286s-3.122.237-3.941-1.947l-.036.523s-1.247-2.79-.351-4.587v-.005Z" fill="#8B383E"/>
    <path d="M186.543 47.253s.155.218 1.352-.032 1.943-.637 1.943-.637.023 2.448-1.798 2.607c-1.51.132-1.497-1.938-1.497-1.938Z" fill="#1A4850"/>
    <path d="M129.039 167.937c-.665-.683-2.949-3.609-2.99-5.083-.059-2.08-.018-4.933.077-8.05h-3.272c.132 3.395.142 7.627.096 8.905-.068.214-.309 1.638-.428 1.843-.177.314-.027 2.676-.027 2.676l6.626-.269-.06-.018c-.013 0-.018-.004-.018-.009l-.004.005Z" fill="#EF6E4B"/>
    <path d="M126.04 158.394c.136-8.787 1.893-22.084 2.134-24.286.155-1.424 1.379-5.142 3.017-10.575 3.795-12.605 4.041-21.702 2.744-29.906l-8.478.195c-1.47 6.517-9.788 13.552-4.127 21.092.227 2.817 1.834 12.364 1.151 16.568-.805 4.96-1.283 7.39-.983 13.151.128 2.398 1.429 9.916 1.42 13.761h3.122Z" fill="#9A7719"/>
    <path d="m147.75 76.112-1.624 1.934c-1.629 1.934-1.22 2.089-.915 3.417.287 1.243 2.612.97 3.54.596.783-.309 2.876.169 3.454-.263.232-.173 0-.269-.673-.337a5.045 5.045 0 0 1-1.493-.423c.501-.733 3.336-.16 3.75-1.024.2-.424-3.19.327-3.513-.11 0 0 .154-.282 1.788-.782.938-.291 1.907-.578 1.961-.892.096-.573-1.761.373-4.118.582 0 0 .951-.487 1.866-.882.833-.355 1.652-.601 1.456-.956-.159-.291-1.442.296-2.28.642-1.556.641-2.835.769-3.495.791-.318.014-.496-.009-.496-.009 1.493-2.107.792-2.284.792-2.284Z" fill="#FF8B66"/>
    <path d="M146.958 78.396s.155 1.102-.436 1.711c0 0 1.242-.35.932-1.702-.318.014-.496-.009-.496-.009Z" fill="#EF6E4B"/>
    <path d="M114.818 53.596c-2.107 2.667-3.809 25.492 0 33.724 0 0 7.454 1.201 13.37-.824 0 0 1.419-29.66-2.139-33.36l-11.231.46Z" fill="#0E3944"/>
    <path d="M126.791 69.614c5.488 1.324 6.511 1.738 9.583 17.173 0 0 7.991-9.187 9.561-8.505 0 0-.515.824.587 2.74.646 1.12 1.797 1.174 1.797 1.174.228 1.82-7.877 14.22-10.48 15.017-2.603.796-9.515-7.663-10.552-10.43-1.038-2.767-.496-17.174-.496-17.174v.005Z" fill="#C89F1D"/>
    <path d="M118.513 67.13c.342-.633 6.262.422 6.844.905.583.482-2.22 2.625-3.722 2.007-1.502-.615-3.518-2.176-3.122-2.917v.004Z" fill="#B72E48"/>
    <path d="M120.657 155.45h-3.868c.436 4 .76 7.395.76 7.395l-.424 5.902h4.219c-.278-1.766-1.074-7.058-.91-9.292.095-1.311.168-2.653.232-4.005h-.009Z" fill="#FF8B66"/>
    <path d="M114.304 122.527c.337 2.808.969 4.683 1.22 7.044.368 3.441-1.734 8.419-.374 13.957.647 2.621 1.579 11.276 2.071 16.063h3.199c0-.045 0-.091.009-.136.837-11.65.651-25.083 1.27-30.361.259-2.226 1.806-5.839 2.411-8.715 0-.013 1.839-8.354 3.095-9.055 5.146-2.867 6.734-17.702 6.734-17.702l-12.65.587s-7.786 6.121-6.639 17.019c0 0-.014.114-.041.31-.674 5.128-.61 8.441-.305 10.985v.004Z" fill="#AE8812"/>
    <path d="M116.843 164.183s.159-1.452 2.153-1.284c1.993.169 1.747 1.629 1.747 1.629s.319-.236.569 0c.246.237-.123 2.253.355 2.676.478.423.241 1.538.241 1.538h-5.87s-.214-1.433.405-1.961c.619-.532-.724-2.439.396-2.598h.004Z" fill="#CDCFD0"/>
    <path d="M115.055 108.475c2.293 5.174 23.458 3.581 22.689-1.138-2.057-12.6-5.211-20.413-5.211-20.413 5.816-9.93-4.345-16.883-4.345-16.883s-9.479-3.472-14.68.988c-5.202 4.46 5.806 18.243 5.806 18.243-1.497 3.686-5.247 16.978-4.259 19.203Z" fill="#FACA16"/>
    <path d="M117.69 53.182s7.472-2.503 8.978 2.758c1.506 5.26.136 10.811-3.368 10.438-4.937-.523-11.412-10.238-5.606-13.196h-.004Z" fill="#FF8B66"/>
    <path d="M121.453 60.572c-.032.314.259.605.655.646.396.041.742-.182.774-.496.032-.314-.26-.605-.656-.646-.395-.04-.741.182-.773.496Z" fill="#DB614D"/>
    <path d="M122.031 57.346c.05 0 .095-.028.123-.073.309-.487.914-.428.919-.428a.15.15 0 0 0 .168-.136.158.158 0 0 0-.136-.173c-.032 0-.801-.078-1.215.568a.158.158 0 0 0 .045.214.131.131 0 0 0 .091.023l.005.005Zm3.445-.801a.148.148 0 0 0 .091-.037c.441-.364.982-.136 1.005-.127.078.036.169 0 .205-.082a.159.159 0 0 0-.077-.205c-.032-.013-.738-.318-1.329.173a.157.157 0 0 0-.018.219c.032.04.082.059.127.054l-.004.005Zm.759 5.515s-1.128.728-3.098.091c0 0 .591 2.334 1.847 2.039 1.251-.296 1.251-2.13 1.251-2.13Z" fill="#1A4850"/>
    <path d="M120.666 55.885s-1.711 2.18-1.625 5.01c0 0-1.256-1.538-1.911-.2-.655 1.333 1.97 3.285 1.97 3.285s-4.227.237-4.728-5.233c-.209-2.302 2.781-4.41 6.289-2.862h.005Z" fill="#0E3944"/>
    <path d="M119.196 62.797c.573 1.543 2.771 4.218 5.101 3.454 0 0-.587 2.302.382 3.14 0 0 1.024 1.779-1.306 2.034-2.912.318-4.532-2.034-4.532-2.034 1.269-2.826-.473-6.312-.473-6.312.628.414.832-.287.832-.287l-.004.005Z" fill="#EF6E4B"/>
    <path d="M123.896 58.952s-.996-.491-1.729 0c0 0 .86-.191 1.543.191l.191-.191h-.005Zm2.895-.378s-.619-.218-.883.364l.145.205s.069-.492.738-.569Z" fill="#1A4850"/>
    <path d="m125.862 61.282-.136-.314c.054-.028.55-.264.35-.747-.059-.145-.141-.236-.246-.277-.182-.064-.391.045-.395.045l-.164-.3s.341-.187.669-.073c.2.069.35.228.45.469.264.637-.232 1.056-.528 1.188v.009Z" fill="#DB614D"/>
    <path d="M117.034 51.853c-4.605 2.08-2.657 6.894-2.657 6.894.473-1.838 3.986-3.171 3.986-3.171-.259 1.42 1.069 2.734 1.069 2.734a6.413 6.413 0 0 1 1.215-1.292c.096-.241.187-.5.255-.769a5.4 5.4 0 0 0 .146-.724c.013-.118.032-.231.036-.34 0-.11.018-.215.009-.306 0-.19-.009-.35-.027-.46l-.023-.172s.014.064.041.173c.032.109.059.268.082.46.018.095.014.2.023.313.009.11.004.228 0 .35 0 .246-.032.501-.068.76-.023.146-.05.287-.078.428.169-.113.337-.218.505-.314a6.56 6.56 0 0 0 .182-.318c.205-.391.346-.82.396-1.147.023-.164.037-.305.032-.405v-.154s.005.054.018.154c.019.1.023.241.019.414a4.01 4.01 0 0 1-.26 1.233c0 .014-.009.023-.013.037.5-.237 1.01-.4 1.506-.514a7.573 7.573 0 0 0-.055-.433 5.924 5.924 0 0 0-.2-.878 3.435 3.435 0 0 0-.15-.382s.095.132.218.355c.119.223.25.532.355.85.05.142.091.287.132.428a8.82 8.82 0 0 1 .924-.118 10.69 10.69 0 0 0-.205-.833 5.517 5.517 0 0 0-.341-.896 3.59 3.59 0 0 0-.219-.382s.123.127.278.346c.155.218.337.527.491.846.155.319.283.646.374.896.523-.018.992.01 1.36.05v-.118c0-.218-.023-.51-.077-.8a3.421 3.421 0 0 0-.241-.774 2.932 2.932 0 0 0-.123-.242l-.05-.09s.022.027.068.077c.045.05.105.123.168.218.132.187.282.46.396.747.119.286.196.591.241.819.019.082.028.154.041.218.282.046.451.082.451.082.341-4.55-5.629-5.916-10.239-3.836l.009-.014Z" fill="#0E3944"/>
    <path d="M117.517 69.095c.05 1.12 2.93 3.18 6.38 2.758 3.449-.424 2.088-3.427 1.456-3.818 0 0-2.066 1.442-6.844-.906 0 0-.646.355-.569 1.038.077.682-.428.928-.428.928h.005Z" fill="#C89F1D"/>
    <path d="M116.124 117.294s.2.846 0 1.361c-.2.518-1.065 1.651-.928 2.279.132.628-.551.91-.492-.855.06-1.766 0-3.131 1.42-2.785Z" fill="#EF6E4B"/>
    <path d="m115.191 117.522-.491 2.557s-.341 1.765-.683 1.706c-.341-.059-.509-1.419-.509-1.419s-.851-.455-.91-.71c-.06-.255-.055-1.165-.483-1.279-.428-.114-.314-3.299-.314-3.299s3.031 1.593 3.395 2.448l-.005-.004Z" fill="#FF8B66"/>
    <path d="M113.508 71.029c2.32-1.656 5.219 7.017 5.57 10.161.796 7.126-.228 34.302-2.162 36.596-1.934 2.293-4.209-.569-5.461-1.525-1.251-.956.656-20.413.656-20.413s-3.04-21.652 1.397-24.819Z" fill="#C89F1D"/>
    <path d="M122.058 168.747s-.323-4.36.528-5.497c0 0 .942 1.497 2.234 1.497.838 0 1.179-1.93 1.898-1.497.628.382 1.055 1.469 2.744 2.584 1.693 1.115 3.067.797 3.171 2.913h-10.575Z" fill="#BFC0C1"/>
    <path d="M262.177 74.933c-1.338-.705-3.326 5.179-1.224 6.194 2.103 1.01 3.704-3.3 3.704-3.3s-1.083-2.156-2.48-2.89v-.004Z" fill="#C96F32"/>
    <path d="M255.156 77.554c.537-.136 2.243.069 2.243.069 1.32.395 2.053.605 2.822.468.769-.132 2.448 1.147 2.448 1.147s.86-1.766.528-3.672c0 0-1.042-.35-1.243-.637-.405-.565-.227-1.625-1.174-2.499-.951-.878-1.711-2.443-1.711-2.443s-.71-.032-.609.637c.104.673.828 1.438.782 1.747a.801.801 0 0 1-.045.182v.014c-.078.214-.228.4-.414.464-.009.005-.023.014-.041.018-.747.178-2.316-.496-2.985-.864-.929-.51-2.253-1.147-2.326-.455-.077.687.719.432 2.571 1.947l-.082.228c.128.118-1.488-.214-2.862-.801-.946-.4-.915.368-.696.646.218.282 1.229.546 1.911.847.451.19.924.39 1.206.505l.009.323c-2.048.095-2.544-.55-2.849-.037-.3.51 1.129 1.006 1.784.983.282-.009.801.11 1.297.246-1.552.378-2.061-.014-2.211.45-.155.478 1.114.628 1.647.496v-.009Z" fill="#A8604F"/>
    <path d="M259.693 74.806c-.706-.76-.524-2.089-.496-2.248-.078.214-.228.4-.414.464-.073 1.356.91 1.784.91 1.784Z" fill="#874538"/>
    <path d="M282.409 56.135c-3.295 1.588-8.974 21.683-8.974 21.683s-.873-.869-1.228-.24c-.355.623-10.03-2.645-10.03-2.645s1.966 3.55-1.224 6.194c0 0 10.334 5.087 13.82 5.774 3.486.687 8.951-16.96 8.951-16.96l-1.315-13.801v-.005Z" fill="#FACA16"/>
    <path d="M264.366 167.9c0 .496.05.842.05.842h14.312c0-.282-.005-.564-.019-.842-.163-3.745-1.342-6.994-1.342-6.994l-3.577-1.538c-.309 1.843-1.101 3.022-2.098 3.791a5.024 5.024 0 0 1-.819.523 6.94 6.94 0 0 1-1.315.532c-1.265.383-2.539.464-3.435.601-1.525.237-1.757 2.002-1.757 3.076v.009Z" fill="#0E3944"/>
    <path d="M264.366 167.9c0 .496.05.842.05.842h14.312c0-.282-.005-.564-.019-.842h-14.343Zm6.507-4.214 1.984.637.419-.728-1.588-.432a4.958 4.958 0 0 1-.819.523h.004Zm-1.315.537 1.338.888.824-.323-1.247-.906c-.3.137-.605.246-.915.337v.004Z" fill="#ADBEC4"/>
    <path d="M289.772 167.9c.036.487.163.842.163.842h9.534c.123-.278.209-.555.268-.842.942-4.564-5.397-10.143-5.397-10.143l-2.011 2.685s.232 4.296-1.47 5.187c-1.019.537-1.151 1.548-1.087 2.276v-.005Z" fill="#0E3944"/>
    <path d="M299.737 167.9h-9.961c.037.487.164.842.164.842h9.533a4.08 4.08 0 0 0 .269-.842h-.005Zm-8.441-2.612s4.018-.914 5.847.269v-.665s-3.376-1.642-5.847.392v.004Z" fill="#ADBEC4"/>
    <path d="M292.092 164.269s2.567-1.174 5.051 0l-.282-.669s-2.971-1.124-4.769.669Z" fill="#ADBEC4"/>
    <path d="M305.694 94.16c0 9.068-.892 18.306-1.124 20.649-.232 2.344-2.653 28.518-2.994 38.643-.173 5.188-1.839 11.463-1.839 11.463s-4.942-3.995-7.74-1.028l-.701-4.046 1.311-3.185s-1.402-2.635-.255-4.683c1.147-2.047 1.497-45.819 1.497-45.819l-2.207-.141-10.594 50.643v2.885s-2.302 3.672-2.32 6.02l-7.04-2.393 1.147-3.327-.765-4.746 2.558-6.189s7.317-48.413 6.721-53.841l24.34-.901.005-.005Z" fill="#AE8812"/>
    <path d="M280.539 68.458v1.834c0 1.147.013 2.33.031 3.522.01.605.019 1.215.032 1.825.028 1.456.064 2.921.11 4.355l.054 1.838c.055 1.67.118 3.285.178 4.787.027.65.054 1.279.082 1.88.054 1.365.113 2.602.163 3.654.037.746.069 1.406.1 1.952l.096 1.82s2.885 3.103 9.238 4.109c11.185 1.77 15.007-3.609 15.007-3.609s.046-.423.123-1.178c.055-.496.118-1.138.196-1.898.095-.905.2-1.98.318-3.18.059-.588.119-1.202.178-1.843.127-1.343.264-2.794.405-4.314.05-.592.104-1.197.154-1.807.11-1.215.214-2.466.314-3.718.05-.61.101-1.224.146-1.834.109-1.347.205-2.693.296-4.009.041-.628.082-1.242.118-1.852.091-1.438.164-2.826.223-4.118.027-.65.05-1.274.064-1.87.041-1.343.054-2.544.027-3.559a21.166 21.166 0 0 0-.118-1.952c-.068-.628-.178-1.065-.319-1.274-1.087-1.597-3.495-2.339-8.182-3.65a17.286 17.286 0 0 0-3.827-.614c-1.824-.086-3.544-.1-5.123-.018-4.073.218-7.227 1.083-8.897 3.085-.045.055-.091.11-.136.169-.223.29-.405.914-.551 1.802-.15.919-.264 2.125-.341 3.54a53.651 53.651 0 0 0-.082 1.838 137.25 137.25 0 0 0-.077 4.287Z" fill="#F2E2B0"/>
    <path d="M281.039 58.793c9.784-1.852 20.974.65 27.153 2.452a20.819 20.819 0 0 0-.118-1.952c-6.216-1.78-16.714-4.023-26.348-2.47-.045.054-.091.108-.136.168-.223.29-.405.914-.551 1.802Zm-.423 5.378c8.318-1.192 19.931.82 27.485 2.503.027-.65.05-1.274.064-1.87-7.563-1.68-18.926-3.609-27.467-2.471a53.651 53.651 0 0 0-.082 1.838Zm-.077 4.287v1.834c8.596-.751 19.69.9 27.221 2.352.041-.628.082-1.242.118-1.852-7.563-1.456-18.566-3.076-27.339-2.334Zm.031 5.356c.01.605.019 1.215.032 1.825 7.7.04 18.789 1.574 26.716 2.848.05-.61.1-1.224.146-1.834-7.963-1.283-19.03-2.803-26.894-2.84Zm.142 6.179.054 1.839c8.218.85 18.63 1.652 26.084 2.18.05-.592.104-1.197.154-1.807-7.517-.541-18.056-1.351-26.292-2.212Zm.232 6.626c.027.65.054 1.279.082 1.88 6.411 1.35 14.27 1.72 20.927 1.72 1.511 0 2.963-.019 4.314-.05.059-.588.119-1.202.178-1.843-7.413.168-17.729-.005-25.501-1.707Zm.245 5.534c.037.746.069 1.406.1 1.952 4.924 1.629 9.72 2.216 14.08 2.216 3.886 0 7.422-.464 10.384-1.074.055-.496.118-1.138.196-1.898-6.221 1.352-15.281 2.12-24.76-1.197Z" fill="#FACA16"/>
    <path d="M296.911 53.683c.51.072 1.593.769 1.62 1.283.087 1.615-3.021 2.958-5.87 2.73-2.844-.227-2.853-1.77-2.316-2.539.555-.796 1.82-2.161 6.566-1.474Z" fill="#B58E10"/>
    <path d="m290.9 50.424 1.01 5.961s1.616.929 5.365-1.178c0 0-1.529-4.596.401-7.622 0 0-.423-.01-1.101.018 0 0-.956 3.417-5.675 2.821Z" fill="#874538"/>
    <path d="M288.793 39.835s-1.72-1.406-.164-1.866c0 0-.655-1.72.096-2.002.755-.282 1.52.41 1.939-.327.418-.737 1.328-1.92 2.939-.76s2.508-.742 3.199-.128c.692.615.269 1.607 1.397 1.757 1.129.15 2.184.41 1.93 1.542-.255 1.133.987 1.206 1.046 1.893.059.692-.473.892-.519 1.48-.045.586.788.837.487 1.72-.3.882-1.155.755-1.087 1.387.068.633.628 2.035-.182 2.23-.81.2-1.115 1.625-2.062 1.424-.946-.204-9.023-8.35-9.023-8.35h.004Z" fill="#0E3944"/>
    <path d="M298.868 44.74c.205 5.652-7.863 8.082-9.379 5.389-.486-.865-.964-3.259-1.142-4.91a15.236 15.236 0 0 1-.086-1.134c-.114-2.575.346-5.137 1.825-5.701 5.146-1.98 8.536-.574 8.787 6.357h-.005Z" fill="#A8604F"/>
    <path d="M293.408 43.043c.004.387-.164.701-.378.701s-.392-.31-.396-.691c-.005-.387.164-.701.378-.701.213 0 .391.31.396.691Zm-3.523.337c.005.387-.163.7-.377.7s-.392-.308-.396-.69c-.005-.388.164-.702.378-.702.213 0 .391.31.395.692Z" fill="#1A4850"/>
    <path d="M294.918 44.231c.1.3-.127.646-.5.769-.378.123-.76-.018-.86-.323-.1-.305.127-.646.5-.77.378-.122.76.02.86.324Zm-5.77.609c-.077.297-.432.46-.801.374a15.793 15.793 0 0 1-.086-1.133.894.894 0 0 1 .346.018c.382.105.628.432.541.737v.005Z" fill="#DB614D"/>
    <path d="M293.794 41.096a.226.226 0 0 0 .155-.405c-.623-.487-1.511-.337-1.547-.332a.227.227 0 0 0-.182.264.231.231 0 0 0 .264.186c.004 0 .728-.123 1.187.241a.207.207 0 0 0 .123.046Zm-5.155.674h.009a.225.225 0 0 0 .236-.22c.009-.172.414-.258.633-.268a.225.225 0 0 0 .218-.236.223.223 0 0 0-.236-.219c-.387.014-1.047.173-1.07.701a.228.228 0 0 0 .21.237v.004Z" fill="#0E3944"/>
    <path d="M290.054 46.142a2.7 2.7 0 0 0 .573-.018l-.041-.337c-.478.06-.824.005-.978-.15a.311.311 0 0 1-.091-.19c1.069-1.352 1.183-3.073 1.187-3.145l-.341-.023s-.118 1.73-1.151 2.999l-.032.036v.046a.617.617 0 0 0 .182.514c.155.155.382.246.687.268h.005Z" fill="#874538"/>
    <path d="M289.753 46.898s.137.232 1.352.077c1.215-.155 1.988-.482 1.988-.482s-.172 2.443-2.002 2.453c-1.515.009-1.333-2.053-1.333-2.053l-.005.005Z" fill="#1A4850"/>
    <path d="M297.253 44.827s.118-2.047-1.12-3.23c-1.237-1.184-.164-2.927-.164-2.927s-4.964-.841-7.176 1.17c0 0-1.652-2.908 3.072-4.096 4.723-1.187 12.4 2.485 5.952 12.45l1.051-3.449-1.615.091v-.009Z" fill="#0E3944"/>
    <path d="M297.412 44.572s1.115-1.333 2.166-.532c1.051.796-.678 3.244-1.802 3.163-1.129-.078-.359-2.63-.359-2.63h-.005Z" fill="#A8604F"/>
    <path d="M299.446 80.694c-1.206-.018-1.888 5.53.473 6.112 0 0 2.826-6.057-.473-6.112Z" fill="#C96F32"/>
    <path d="M299.496 85.7c-.519.21-4.132 1.492-4.851 1.397a.263.263 0 0 1-.082-.014c-.696-.136-1.479-.819-1.966-.996-.509-.187-.682-.67-1.123-.997-.446-.328-.724-1.329-.724-1.329s-1.506-1.351-.878-1.533c.787-.223 1.679.569 1.679.569l1.952.332s2.344-.924 2.243-1.397c-.104-.469-1.069-.082-1.915-.155-.56-.04-.601-.655-.601-.655l1.443-.364s2.106-.342 2.561-.155c.451.182 2.116 1.238 2.116 1.238l3.122-.069.605 4.078s-3.062-.164-3.576.045l-.005.005Z" fill="#A8604F"/>
    <path d="M294.568 87.079c-.696-.137-1.479-.82-1.966-.997-.51-.186-.683-.669-1.124-.996-.446-.328-.723-1.33-.723-1.33.382.32 2.225.656 2.366.806.141.155-.078.31-.014.62.064.313.719.318.678.65-.041.332-.009.655.455.805.2.069.278.246.328.437v.005Z" fill="#874538"/>
    <path d="M307.755 58.019c-3.212 1.688-4.35 8.723-4.009 11.576l3.536 9.388s-.692 1.265-.123 1.493l-7.708.218s1.974 2.057.473 6.111c0 0 10.079 3.022 14.393 0 1.247-.873 1.92-3.367 1.606-5.187-2.211-12.864-8.163-23.604-8.163-23.604l-.005.005Z" fill="#FACA16"/>
    <path d="M51.79 86.319c1.5.191-.251 6.152-2.554 5.77-2.302-.378-1.137-4.828-1.137-4.828s2.125-1.142 3.695-.942h-.005Z" fill="#A1B1B5"/>
    <path d="M56.035 92.494c-.36-.419-1.875-1.233-1.875-1.233-1.306-.437-2.03-.683-2.576-1.238-.55-.55-2.662-.469-2.662-.469s.31-1.938 1.675-3.313c0 0 1.056.31 1.383.192.656-.232 1.12-1.197 2.398-1.375 1.284-.173 2.803-1.019 2.803-1.019s.601.382.137.87c-.469.49-1.506.7-1.647.982a.891.891 0 0 0-.064.173s0 .005-.01.014c-.058.223-.04.46.074.619 0 .009.013.027.027.04.505.574 2.184.924 2.94 1.01 1.055.115 2.502.356 2.166.965-.333.606-.838-.059-3.222.114l-.064.237c-.173.023 1.338.678 2.803.987 1.006.214.537.829.196.929-.341.104-1.32-.26-2.052-.405-.483-.1-.979-.214-1.279-.278l-.196.26c1.62 1.255 2.398 1.01 2.353 1.606-.046.591-1.502.173-2.025-.219-.227-.168-.719-.368-1.206-.546 1.051 1.202 1.693 1.174 1.552 1.638-.146.478-1.274-.122-1.634-.541h.005Z" fill="#FF8B66"/>
    <path d="M53.896 87.638c1.015-.218 1.63-1.406 1.697-1.556-.059.223-.04.46.073.619-.719 1.151-1.77.937-1.77.937Z" fill="#EF6E4B"/>
    <path d="M34.374 56.99c3.509 4.578 6.544 25.224 6.544 25.224s1.21-.21 1.142.505c-.068.715 9.73 3.595 9.73 3.595s-3.646 1.775-2.554 5.77c0 0-11.38-1.77-14.625-3.213-3.25-1.442-3.995-23.253-3.995-23.253l3.763-8.632-.005.005Z" fill="#F9E5A6"/>
    <path d="M37.937 167.9c0 .496-.05.842-.05.842H23.576c0-.282.005-.564.018-.842.164-3.745 1.343-6.994 1.343-6.994l3.576-1.538c.31 1.843 1.101 3.022 2.098 3.791.264.209.537.377.82.523a6.982 6.982 0 0 0 1.315.532c1.264.383 2.538.464 3.435.601 1.524.237 1.756 2.002 1.756 3.076v.009Z" fill="#0E3944"/>
    <path d="M37.937 167.9c0 .496-.05.842-.05.842H23.576c0-.282.005-.564.018-.842h14.343Zm-6.507-4.214-1.984.637-.419-.728 1.589-.432c.264.209.537.378.819.523h-.005Zm1.315.537-1.338.888-.823-.323 1.247-.906c.3.137.605.246.914.337v.004Z" fill="#ADBEC4"/>
    <path d="M15.262 167.9a3.525 3.525 0 0 1-.164.842H5.565a4.116 4.116 0 0 1-.268-.842c-.938-4.564 6.762-10.143 6.762-10.143l.646 2.685s-.232 4.296 1.47 5.187c1.019.537 1.15 1.548 1.087 2.276v-.005Z" fill="#0E3944"/>
    <path d="M5.301 167.9h9.961c-.036.487-.164.842-.164.842H5.565a4.097 4.097 0 0 1-.268-.842H5.3Zm8.441-2.612s-4.018-.914-5.847.269v-.665s3.376-1.642 5.847.392v.004Z" fill="#ADBEC4"/>
    <path d="M12.946 164.269s-2.566-1.174-5.051 0l.282-.669s2.972-1.124 4.769.669Z" fill="#ADBEC4"/>
    <path d="M10.27 94.16c0 9.068-2.912 41.791-3.226 44.121-.6 4.473-.264 12.209-1.088 16.951-.887 5.114-.655 9.683-.655 9.683s4.942-3.995 7.74-1.028l1.156-4.046-.855-3.185 1.62-4.683c-1.147-2.047 7.153-45.819 7.153-45.819l.842-.141-.337 50.643v2.885s.938 3.672.956 6.02l8.405-2.393-1.147-3.327.765-4.291-.278-5.734s2.703-49.323 3.299-54.751l-24.34-.901-.01-.005Z" fill="#A7872D"/>
    <path d="M9.879 96.425s2.316 2.007 13.638 1.789c8.741-.169 11.058-2.285 11.058-2.285s2.043-36.012-.205-38.934c-1.634-2.12-4.846-3.03-9.033-3.253-1.579-.082-3.295-.069-5.124.018a17.292 17.292 0 0 0-3.827.614c-4.687 1.306-7.972 4.382-8.468 6.794-.628 3.026 1.96 35.262 1.96 35.262v-.005Z" fill="#F9E5A6"/>
    <path d="M37.4 78.874c.96 2.503.424 8.696-.477 10.325-1.024 1.848-5.689 1.02-5.689 1.02s.114-15.609-.623-23.545c-.737-7.936-4.186-12.86-4.186-12.86s8.336.319 9.588 4.96c.814 3.022.568 5.461.295 6.79a7.898 7.898 0 0 1-.295 1.11c.022 0 .05 0 .072.005.269.05 1.184.46 1.825 3.781.76 3.923-.987 7.618-.987 7.618.19.182.346.455.477.796Z" fill="#FACA16"/>
    <path d="M29.624 61.245s1.433-4.768-.282-7.04c-1.716-2.27-3.573-2.648-3.573-2.648s2.307 2.198 2.617 3.64c.31 1.443 1.242 6.053 1.242 6.053l-.004-.005Z" fill="#FACA16"/>
    <path d="M25.77 51.553c-2.444-.733-8.378-1.857-11.377-.628 0 0-.246 2.562.805 3.45 1.052.887 11.254-4.306 14.23 5.915 0 0 .887-7.372-3.663-8.742l.004.005Z" fill="#A7872D"/>
    <path d="M20.882 74.806c-.114 13.114-1.643 16.869-1.643 16.869s-9.66 1.251-11.403-.683c-1.743-1.934 0-8.04 0-8.04s-.387-.947-.797-2.39h-.004a28.945 28.945 0 0 1-.51-2.057 24.052 24.052 0 0 1-.382-2.357c-.232-2.111.273-3.713.723-4.669.314-.664.606-1.019.606-1.019s-1.848-7.613-1.029-10.985c.182-.755.51-1.397.938-1.943 2.452-3.162 8.154-3.162 8.154-3.162 1.602.436 4.032 4.655 4.96 12.723.269 2.27.41 4.837.387 7.713Z" fill="#FACA16"/>
    <path d="m25.114 50.675-1.488 5.86s-1.684.793-5.251-1.61c0 0 1.893-4.46.218-7.627 0 0 .423.027 1.097.105 0 0 .673 3.486 5.429 3.272h-.005Z" fill="#EF6E4B"/>
    <path d="M18.375 44.267c-.069 6.935 6.598 7.932 8.327 5.37.555-.819 1.07-2.316 1.379-3.95a15.2 15.2 0 0 0 .178-1.124c.322-2.557.072-5.146-1.357-5.829-4.969-2.389-8.459-1.401-8.527 5.533Z" fill="#FF8B66"/>
    <path d="M23.212 43.116c-.037.383.11.71.323.733.214.018.414-.273.45-.66.037-.382-.109-.71-.323-.733-.213-.018-.414.273-.45.66Zm3.486.619c-.037.382.109.71.323.733.214.018.414-.273.45-.66.037-.382-.109-.71-.323-.733-.214-.018-.414.273-.45.66Z" fill="#1A4850"/>
    <path d="M21.61 44.176c-.123.292.073.656.437.806.364.155.76.04.883-.25.123-.292-.073-.656-.437-.806-.364-.155-.76-.04-.883.25Zm5.702 1.074c.05.3.391.492.769.437a15.2 15.2 0 0 0 .178-1.124.881.881 0 0 0-.346-.009c-.392.073-.66.382-.601.692v.004Z" fill="#DB614D"/>
    <path d="M22.984 41.141a.27.27 0 0 0 .128-.036c.491-.323 1.197-.146 1.201-.146a.229.229 0 0 0 .278-.164.227.227 0 0 0-.164-.277c-.037-.01-.906-.232-1.57.205a.227.227 0 0 0-.064.314.22.22 0 0 0 .191.1v.004Zm5.088 1.088a.226.226 0 0 0 .227-.219c.019-.527-.628-.741-1.01-.782a.225.225 0 0 0-.25.2.225.225 0 0 0 .2.25c.214.028.614.146.61.319a.23.23 0 0 0 .218.236h.01l-.005-.004Z" fill="#FFB878"/>
    <path d="M26.142 42.593s-.036 1.77.938 3.18c0 0 .04.747-1.306.47" stroke="#DB614D" stroke-width=".75" stroke-miterlimit="10"/>
    <path d="M26.543 47.253s-.232-.091-1.429-.342c-1.197-.25-1.866-.327-1.866-.327s.046 1.515 1.866 1.674c1.51.132 1.429-1.005 1.429-1.005Z" fill="#1A4850"/>
    <path d="M27.98 40.04s1.598-.246 2.203-1.342c0 0-.61.114-1.1 0 0 0 .759-.533.495-1.82 0 0-1.588.227-2.18 0l.86-.647s-1.242.078-2.921-.305c-1.68-.377-5.197-.532-7.285 1.024-2.09 1.557-3.468 8.796 1.092 11.927l-.278-1.583s-.778-1.43-.478-2.417c.305-.987.847-.19.847-.19s1.579-2.554 1.579-4.237v-1.68s5-1.142 7.162 1.27h.005Z" fill="#FFB878"/>
    <path d="M19.098 44.318s-1-1.416-2.116-.706c-1.115.71.414 3.286 1.543 3.3 1.128.013.573-2.594.573-2.594Z" fill="#FF8B66"/>
    <path d="M19.144 60.294s1.547-4.978 1.074-6.539c-.474-1.56-5.365-3.303-5.82-2.826-.455.478-.965 1.88-.483 3.568 0 0 3.04.473 5.233 5.802l-.004-.005Zm1.356 6.799c-1.452 1.888-10.08 1.98-10.08 1.98s-5.688 8.345-1.592 10.92c4.018 2.53 11.212.751 11.476.688-1.588 1.301-11.526 2.184-13.26-.119h-.005a1.378 1.378 0 0 1-.182-.34c-.168-.456-.268-1.048-.327-1.716-.191-2.203.118-5.234.341-7.026.314-.665.605-1.02.605-1.02S5.63 62.847 6.448 59.475c.182-.755.51-1.397.937-1.943 5.11.123 5.538 9.56 5.538 9.56 1.42.515 7.372.019 7.577 0Z" fill="#D3AA29"/>
    <path d="M8.582 109.19c.068 1.192-5.57 3.54-5.802 1.82-.232-1.72 5.634-4.837 5.802-1.82Z" fill="#A1B1B5"/>
    <path d="M3.777 110.232c-.096.546-.61 4.35-.369 5.032a.64.64 0 0 0 .032.078c.278.655 1.106 1.278 1.379 1.72.286.459.796.532 1.206.896.414.369 1.447.433 1.447.433s1.633 1.196 1.679.546c.054-.815-.901-1.525-.901-1.525l-.728-1.838s.423-2.48.905-2.48c.483 0 .3 1.028.546 1.843.16.541.765.455.765.455l.059-1.488s-.096-2.134-.373-2.539c-.273-.405-1.643-1.821-1.643-1.821l-.573-3.067-4.114.246s.792 2.963.687 3.509h-.004Z" fill="#FF8B66"/>
    <path d="M3.44 115.337c.278.656 1.106 1.279 1.379 1.72.286.46.796.533 1.206.897.414.368 1.447.432 1.447.432-.392-.309-1.097-2.043-1.274-2.152-.178-.105-.287.141-.606.141-.318 0-.46-.637-.778-.533-.318.105-.637.146-.883-.282-.104-.182-.295-.223-.491-.227v.004Z" fill="#EF6E4B"/>
    <path d="M8.209 58.019c3.213 1.688 4.35 8.723 4.009 11.576l-4.55 13.866s-.114 1.61-.683 1.838l1.592 23.89c-.46-.905-5.142-.168-5.801 1.821 0 0-3.19-23.062-2.73-29.392.09-1.256 8.163-23.604 8.163-23.604v.005Z" fill="#F9E5A6"/>
    <path d="M31.12 66.674s2.913-.082 5.188-1.11a7.898 7.898 0 0 1-.295 1.11s-3.15.405-4.892 0Zm6.28 12.2c-2.116.232-5.137-.25-5.137-.25s3.33.036 4.66-.546c.19.182.345.455.477.796Z" fill="#D3AA29"/>
    <path d="M66.369 77.122c-.36-.669-3.304 2.894-2.471 5.083.833 2.184 2.47 1.82 2.47 1.82s1.043-4.965 0-6.903Z" fill="#C96F32"/>
    <path d="m62.67 71.793 1.624 1.934c1.629 1.934 1.22 2.09.915 3.418-.287 1.242-2.612.97-3.54.596-.783-.31-2.877.168-3.455-.264-.232-.173 0-.268.674-.337a5.039 5.039 0 0 0 1.492-.423c-.5-.733-3.335-.16-3.75-1.024-.2-.423 3.19.328 3.514-.109 0 0-.155-.282-1.788-.783-.938-.29-1.907-.578-1.962-.892-.095-.573 1.761.374 4.118.583 0 0-.95-.487-1.865-.883-.833-.355-1.652-.6-1.456-.956.159-.29 1.442.296 2.28.642 1.556.642 2.834.77 3.494.792.319.014.496-.01.496-.01-1.492-2.106-.792-2.284-.792-2.284Z" fill="#FF8B66"/>
    <path d="M63.461 74.078s-.16 1.101.437 1.71c0 0-1.242-.35-.933-1.701.319.013.496-.01.496-.01Z" fill="#EF6E4B"/>
    <path d="m65.482 75.661 1.574 3.818-1.56 3.645s-1.18-4.332-1.593-5.697c-.414-1.365 1.579-1.766 1.579-1.766Z" fill="#FF8B66"/>
    <path d="M83.37 69.75s-5.466 1.984-7.1 3.504l-4.44 13.752s-.15-.96-.456-.569l-5.005-9.315s-.082 5.083-2.471 5.083c0 0 4.896 13.502 7.627 14.257 2.73.755 7.43-11.154 7.43-11.154l4.41-15.558h.005Z" fill="#F2A668"/>
    <path d="M69.745 105.249c2.257-2.394 21.106-.746 23.162 1.415 2.057 2.162-3.04-28.527-3.04-28.527s-9.287-.856-9.81 1.575c-2.73 12.74-10.316 25.537-10.316 25.537h.004Zm16.551-37.151s3.49-1.542 6.607-.39l.537 4.436s-7.413 2.703-9.81 1.906c-2.4-.796-3.04-2.693 2.666-5.952Z" fill="#C96F32"/>
    <path d="M60.758 168.719c.851-.687 3.04-3.636 3.486-5.119.637-2.093 1.388-4.969 2.157-8.109h3.272a111.543 111.543 0 0 0-2.07 7.572c.008.218.058.396.122.605.091.314.273 5.079.273 5.079h-7.33c.026-.01.05-.014.063-.019.014 0 .018-.004.023-.009h.004Z" fill="#EF6E4B"/>
    <path d="M85.33 155.491h3.87a579.898 579.898 0 0 0-1.288 7.372v5.884h-4.218c.405-1.761 1.579-7.04 1.579-9.265 0-1.306.022-2.644.054-3.991h.005Z" fill="#FF8B66"/>
    <path d="M65.49 159.109c2.299-8.851 5.147-22.248 5.516-24.468.241-1.434.45-5.984 1.02-11.572.145-6.371.882-20.937 4.459-29.21l8.423.196c-.341 6.566 6.025 13.651-1.725 21.25-1.01 2.835-4.355 12.455-4.842 16.692-.573 4.996-1.506 7.212-4.395 12.791-2.503 4.828-4.273 10.453-5.334 14.325h-3.121v-.004Z" fill="#EF6E4B"/>
    <path d="M94.045 122.668c-.541 2.799-1.306 4.669-1.729 7.022-.614 3.426 1.133 8.391-.628 13.91-.833 2.612-2.389 11.24-3.222 16.014h-3.199v-.137c0-11.613 1.602-25.46 1.365-30.725-.1-2.221-.477-5.365-.878-8.232 0-.013-1.238-8.327-2.444-9.023-4.941-2.858-6.83-17.643-6.83-17.643l12.61.587s7.344 6.103 5.415 16.969c0 0 .009.109.018.305.31 5.115.005 8.414-.482 10.953h.004Z" fill="#FF8B66"/>
    <path d="M68.371 168.747s.323-4.36-.528-5.497c0 0-.942 1.497-2.234 1.497-.837 0-1.179-1.93-1.897-1.497-.629.382-1.056 1.469-2.745 2.584-1.692 1.115-3.066.797-3.171 2.913H68.37Zm20.145-4.546s-.054-1.447-2.061-1.279c-2.007.168-1.866 1.624-1.866 1.624s-.305-.236-.569 0c-.264.237-.04 2.244-.55 2.667-.51.423-.35 1.534-.35 1.534h5.87s.318-1.429-.264-1.957c-.583-.528.9-2.43-.21-2.589Zm2.594-74.692c1.497 3.681 6.13 16.595 4.614 33.86 0 0-4.514 2.84-14.216 2.517-10.498-.351-13.073-3.691-13.073-3.691 4.118-16.091 9.456-35.034 9.456-35.034-5.816-9.93 4.346-16.883 4.346-16.883s.072-.027.209-.073c1.333-.445 8.728-2.707 13.556.383.318.2.623.428.915.678 5.201 4.46-5.807 18.243-5.807 18.243Z" fill="#FACA16"/>
    <path d="M93.827 55.061s2.225-2.284 4.373-.31c2.148 1.971-.11 6.021 0 6.763.104.746 1.847.928 1.433 1.861-.418.933-1.538 1.083-1.433 1.538.104.455 1.165 1.188.71 1.657-.455.468-1.452-.019-1.37.796.082.81.61 1.875-.373 1.948 0 0 .76-.91.077-1.215-.682-.3-1.21.031-1.515-.933-.305-.965 1.106-1.343.473-1.875-.628-.533-2.02-.533-1.365-1.365.655-.833.887-1.593-.328-2.298-1.22-.701-.682-6.571-.682-6.571v.004Zm-9.638-1.115c-2.508-.063-2.671 5.43.337 8.346 3.007 2.921 3.754-8.241-.337-8.346Z" fill="#8B383E"/>
    <path d="M92.735 53.414s-7.472-2.503-8.979 2.758c-1.506 5.26-.136 10.812 3.368 10.439 4.937-.524 11.413-10.24 5.606-13.197h.005Z" fill="#FF8B66"/>
    <path d="M88.971 60.804c.032.314-.259.605-.655.646-.396.041-.742-.182-.773-.496-.032-.314.259-.605.655-.646.396-.041.742.182.773.496Z" fill="#DB614D"/>
    <path d="M88.389 57.578a.144.144 0 0 1-.123-.073c-.31-.487-.915-.428-.92-.428a.151.151 0 0 1-.168-.136.158.158 0 0 1 .137-.173c.032 0 .8-.078 1.215.569a.158.158 0 0 1-.046.213.131.131 0 0 1-.09.023l-.005.005Zm-3.445-.797a.144.144 0 0 1-.09-.036c-.442-.364-.984-.136-1.007-.127a.153.153 0 0 1-.204-.082.159.159 0 0 1 .077-.205c.032-.014.737-.319 1.329.173a.157.157 0 0 1 .018.218.145.145 0 0 1-.127.055l.004.004Z" fill="#8B383E"/>
    <path d="M84.189 62.297s1.128.728 3.099.09c0 0-.592 2.335-1.848 2.04-1.251-.297-1.251-2.13-1.251-2.13Z" fill="#1A4850"/>
    <path d="M89.758 56.117s1.712 2.18 1.625 5.01c0 0 1.256-1.538 1.911-.2.656 1.333-1.97 3.285-1.97 3.285s4.227.237 4.728-5.233c.21-2.302-2.78-4.41-6.289-2.862h-.005Z" fill="#8B383E"/>
    <path d="M91.228 63.03c-.573 1.542-2.77 4.218-5.1 3.453 0 0 .586 2.303-.383 3.14 0 0-1.024 1.78 1.306 2.034 2.912.319 4.532-2.034 4.532-2.034-1.27-2.826.474-6.312.474-6.312-.628.414-.833-.286-.833-.286l.004.004Z" fill="#EF6E4B"/>
    <path d="m84.557 61.514.137-.314c-.055-.028-.55-.264-.35-.747.059-.145.14-.236.245-.277.182-.064.392.045.396.045l.164-.3s-.341-.187-.669-.073c-.2.069-.35.228-.45.469-.264.637.231 1.056.527 1.188v.009Z" fill="#DB614D"/>
    <path d="M87.875 59.457c-.023.337-.214.596-.424.583-.213-.014-.368-.296-.345-.633.022-.337.214-.596.423-.582.21.013.368.295.346.632Z" fill="#1A4850"/>
    <path d="M88.075 59.37s-.178-.773-.45-.791c-.274-.018-.733.496-.733.496l-.505-.369.487.191s.418-.587.8-.468c.383.118.405.941.405.941h-.004Zm-3.313-.395c-.023.336-.214.596-.423.582-.214-.014-.369-.296-.346-.632.023-.337.214-.596.423-.583.214.014.369.296.346.633Z" fill="#1A4850"/>
    <path d="M84.962 58.888s-.177-.773-.45-.791c-.273-.019-.733.495-.733.495l-.505-.368.487.191s.419-.587.8-.469c.383.119.406.942.406.942h-.005Z" fill="#1A4850"/>
    <path d="M87.866 54.597s-1.129 5.93 3.513 6.53c0 0 1.66-2.821 3.85-.846 0 0 2.338-6.43-3.172-7.463 0 0-1.07-2.462-5.36-1.68-5.994 1.093-7.66 8.337-4.324 15.49 0 0-2.93-12.877 5.493-12.03Z" fill="#8B383E"/>
    <path d="M96.002 70.588c-.628.346-1.374.714-2.253 1.106-16 7.157-12.24.45-12.24.45.009-.482.168-.933.45-1.352.132-.204.296-.4.487-.587 1.306-.436 8.423-2.616 13.251.2.105.055.205.119.305.183Z" fill="#EF6E4B"/>
    <path d="M96.002 70.587c-.628.346-1.374.715-2.253 1.106-16 7.158-12.24.45-12.24.45.009-.482.168-.932.45-1.35.582.272 1.77.81 2.162.9l.254.983 1.365-.883s4.81.137 9.957-1.388c.105.055.205.119.305.182Z" fill="#FF8B66"/>
    <path d="M92.907 68.986s-4.655 3.226-7.385 9.642c-2.73 6.416 4.892 33.292 4.892 33.292s4.892-1.279 8.646-3.668l-5.575-18.885s6.03-12.513 6.144-14.561c0 0-1.038-4.478-6.722-5.82Z" fill="#FFB878"/>
    <path d="M94.837 69.39s.705 2.24.186 6.959c0 0-1.2-.892-3.476-.76 0 0-5.647 6.42-5.725 16.131 0 0-2.407-9.292-.673-14.01 1.734-4.72 7.754-10.003 7.754-10.003l1.93 1.684h.004Z" fill="#F2A668"/>
    <path d="M83.37 69.75s-5.02 7.245-5.133 9.734c-.114 2.489 0 10.548 0 10.548l-8.419 17.31s-1.66-3.863 6.448-16.891c0 0-.987-8.36-.532-10.976.455-2.621 2.73-7.786 7.636-9.725Z" fill="#FFB878"/>
    <path d="M78.241 90.032s-.077-10.352 1.584-14.553c1.66-4.2 6.475-7.385 6.475-7.385s-6.034 1.984-8.34 7.112c0 0 .568-.173 1.137-.114 0 0-2.503 2.408-.851 14.94h-.005ZM99.629 74.81s4.941 18.999 3.44 20.592c-1.502 1.592-3.336 4.505-6.057-1.611-2.717-6.12-3.185-11.18-3.185-11.18s2.616-7.687 5.802-7.8Z" fill="#F2A668"/>
    <path d="M96.056 84.048s3.468-.082 4.287-2.357c0 0-2.676-.947-4.287 2.357Z" fill="#C96F32"/>
    <path d="m96.307 78.628 1.228 5.042s2.089-.446 2.544-1.81l-.91-3.232h-2.862Z" fill="#FF8B66"/>
    <path d="m97.44 73.791-.806 2.394c-.81 2.393-.373 2.389.396 3.513.72 1.05 2.785-.05 3.513-.737.619-.578 2.74-.892 3.117-1.507.155-.245-.095-.25-.75-.063-.77.213-1.543.15-1.543.15.196-.865 3.049-1.37 3.117-2.326.032-.464-2.849 1.47-3.308 1.184 0 0 .041-.319 1.379-1.384.769-.61 1.56-1.233 1.497-1.547-.119-.569-1.507.992-3.623 2.048 0 0 .706-.801 1.411-1.502.646-.637 1.315-1.16 1.006-1.424-.255-.214-1.238.805-1.884 1.429-1.215 1.165-2.357 1.752-2.967 2.011-.291.127-.464.173-.464.173.619-2.507-.096-2.416-.096-2.416l.005.004Z" fill="#FF8B66"/>
    <path d="M97.535 76.207s.551.97.219 1.752c0 0 1.028-.778.245-1.925-.29.128-.464.173-.464.173Zm161.953 92.512c-.851-.687-3.04-3.636-3.486-5.119-.637-2.093-1.388-4.969-2.157-8.109h-3.271a111.776 111.776 0 0 1 2.07 7.572 2.292 2.292 0 0 1-.123.605c-.091.314-.273 5.079-.273 5.079h7.331c-.027-.01-.05-.014-.064-.019-.013 0-.018-.004-.022-.009h-.005Z" fill="#EF6E4B"/>
    <path d="M254.755 159.109c-2.298-8.851-5.146-22.248-5.515-24.468-.241-1.434-.45-5.984-1.019-11.572-.146-6.371-.883-20.937-4.46-29.21l-8.423.196c.342 6.566-6.024 13.651 1.725 21.25 1.01 2.835 4.355 12.455 4.842 16.692.573 4.996 1.506 7.212 4.396 12.791 2.502 4.828 4.273 10.453 5.333 14.325h3.121v-.004Z" fill="#EF6E4B"/>
    <path d="M251.875 168.747s-.323-4.36.528-5.497c0 0 .942 1.497 2.234 1.497.837 0 1.179-1.93 1.898-1.497.628.382 1.055 1.469 2.744 2.584 1.692 1.115 3.067.797 3.171 2.913h-10.575Z" fill="#0E3944"/>
    <path d="M234.915 155.491h-3.868a573.767 573.767 0 0 1 1.288 7.372v5.884h4.218c-.405-1.761-1.579-7.04-1.579-9.265 0-1.306-.022-2.644-.054-3.991h-.005Z" fill="#FF8B66"/>
    <path d="M226.201 122.668c.542 2.799 1.306 4.669 1.725 7.022.614 3.426-1.133 8.391.628 13.91.832 2.612 2.389 11.24 3.221 16.014h3.199v-.137c0-11.613-1.601-25.46-1.365-30.725.1-2.221.478-5.365.879-8.232 0-.013 1.237-8.327 2.443-9.023 4.942-2.858 6.83-17.643 6.83-17.643l-12.609.587s-7.345 6.103-5.415 16.969c0 0-.009.109-.018.305-.31 5.115-.005 8.414.482 10.953Z" fill="#FF8B66"/>
    <path d="M231.73 164.201s.054-1.447 2.061-1.279c2.012.168 1.866 1.624 1.866 1.624s.305-.236.569 0c.264.237.041 2.244.55 2.667.51.423.351 1.534.351 1.534h-5.87s-.319-1.429.264-1.957c.582-.528-.901-2.43.209-2.589Z" fill="#0E3944"/>
    <path d="M252.412 149.457s-2.271.997-4.833.541v-.682s-5.861-10.921-6.43-18.43c0 0-1.287-3.331-2.634-7.44a139.162 139.162 0 0 1-1.097-3.513c-.887-3.021-1.643-6.079-1.843-8.314-.569-6.329.974-22.793.974-22.793l5.756-.146.442-.009s1.779 3.468 3.435 10.27c1.452 5.957 2.817 14.476 2.817 25.47l3.413 25.046Z" fill="#AE8812"/>
    <path d="M238.26 111.92s-2.294 18.848-2.944 39.498c0 0-3.532.583-5.657 0v-1.342s-3.645-12.532-2.807-20.223c0 0-4.141-11.221-1.293-27.453a70.108 70.108 0 0 1 3.577-12.896l2.43-.223 8-.733s6.38 10.853-1.306 23.372Z" fill="#AE8812"/>
    <path d="M233.068 89.782s-2.335 10.256-7.509 12.618a70.107 70.107 0 0 1 3.577-12.896l2.43-.223c.492.11.992.273 1.502.5Zm13.114 9.16c-.437-.46-.791-1.006-.974-1.652-.609-2.125-2.266-6.821-2.903-8.61l.442-.009s1.779 3.468 3.435 10.27Zm-6.175 19.444c-.801 1.288-1.251 3.135-1.492 5.06-.369-1.128-.742-2.32-1.097-3.513.177-.914.965-5.347 1.32-12.937.4-8.568-.938-17.956-.938-17.956l.646-.164s3.527 12.573.296 21.219c.132-.141 2.235-2.484 2.826-4.541 0 0 .974 8.755-1.561 12.832Z" fill="#917016"/>
    <path d="m264.603 88.594-2.417.733c-2.42.728-2.161 1.083-2.63 2.361-.441 1.197 1.657 2.24 2.64 2.435.828.168 2.316 1.715 3.035 1.665.291-.018.145-.223-.383-.65-.618-.5-1.019-1.17-1.019-1.17.819-.341 2.885 1.688 3.704 1.192.396-.24-2.853-1.47-2.885-2.01 0 0 .287-.151 1.93.318.942.268 1.911.555 2.129.323.392-.428-1.679-.651-3.768-1.761 0 0 1.065.109 2.044.282.892.159 1.711.4 1.743-.005.027-.332-1.375-.541-2.262-.705-1.652-.314-2.794-.901-3.363-1.247-.273-.164-.409-.278-.409-.278 2.402-.95 1.911-1.478 1.911-1.478v-.005Z" fill="#FF8B66"/>
    <path d="M262.696 90.073s-.473 1.01-1.301 1.192c0 0 1.233.382 1.711-.92a3.535 3.535 0 0 1-.41-.277v.005Z" fill="#EF6E4B"/>
    <path d="M237.805 70.205c4.032 1.074 4.714 3.477 8.923 16.896 0 0 2.389.06 4.778 1.052 2.389.991 9.889 2.166 9.889 2.166l-.674 1.879s-13.497.073-15.358-.87c-1.861-.941-6.234-12.085-6.234-12.085l-1.32-9.029-.004-.009Z" fill="#FF8B66"/>
    <path d="M229.141 89.509c9.774 2.211 13.61-.838 13.61-.838 5.816-9.929-4.737-18.393-4.737-18.393s-.073-.027-.209-.073c-1.333-.445-8.728-2.707-13.556.383-.319.2-.624.428-.915.678-5.201 4.46 5.807 18.243 5.807 18.243Z" fill="#FACA16"/>
    <path d="M237.873 66.633s-6.876-1.916-12.464.915c0 0-6.343-15.472 4.651-15.308 10.998.164 8.796 11.64 7.813 14.398v-.005Z" fill="#FFB878"/>
    <path d="M227.512 53.414s7.471-2.503 8.978 2.758c1.506 5.26.136 10.812-3.368 10.439-4.937-.524-11.412-10.24-5.606-13.197h-.004Z" fill="#FF8B66"/>
    <path d="M231.275 60.804c-.032.314.259.605.655.646.396.041.742-.182.774-.496.032-.314-.26-.605-.656-.646-.395-.041-.741.182-.773.496Z" fill="#DB614D"/>
    <path d="M231.857 57.578c.05 0 .096-.028.123-.073.31-.487.915-.428.919-.428a.151.151 0 0 0 .169-.136.158.158 0 0 0-.137-.173c-.032 0-.801-.078-1.215.569a.158.158 0 0 0 .046.213.13.13 0 0 0 .091.023l.004.005Zm3.445-.797a.143.143 0 0 0 .091-.036c.441-.364.983-.136 1.006-.127.077.036.168 0 .204-.082a.159.159 0 0 0-.077-.205c-.032-.014-.737-.319-1.329.173a.159.159 0 0 0-.018.218c.032.041.082.06.128.055l-.005.004Z" fill="#FFB878"/>
    <path d="M236.057 62.297s-1.128.728-3.099.09c0 0 .592 2.335 1.848 2.04 1.251-.297 1.251-2.13 1.251-2.13Z" fill="#1A4850"/>
    <path d="M230.488 56.117s-1.711 2.18-1.625 5.01c0 0-1.256-1.538-1.911-.2-.655 1.333 1.97 3.285 1.97 3.285s-4.227.237-4.728-5.233c-.209-2.302 2.781-4.41 6.289-2.862h.005Z" fill="#FFB878"/>
    <path d="M229.018 63.03c.573 1.542 2.771 4.218 5.101 3.453 0 0-.587 2.303.382 3.14 0 0 1.024 1.78-1.306 2.034-2.912.319-4.532-2.034-4.532-2.034 1.269-2.826-.473-6.312-.473-6.312.628.414.832-.286.832-.286l-.004.004Z" fill="#EF6E4B"/>
    <path d="m235.689 61.514-.137-.314c.055-.028.551-.264.351-.747-.059-.145-.141-.236-.246-.277-.182-.064-.391.045-.396.045l-.164-.3s.342-.187.669-.073c.2.069.351.228.451.469.264.637-.232 1.056-.528 1.188v.009Z" fill="#DB614D"/>
    <path d="M232.376 59.457c.023.337.214.596.423.583.214-.014.369-.296.346-.633-.023-.337-.214-.596-.423-.582-.214.013-.369.295-.346.632Z" fill="#1A4850"/>
    <path d="M232.171 59.37s.178-.773.451-.791c.273-.018.732.496.732.496l.506-.369-.487.191s-.419-.587-.801-.468c-.383.118-.405.941-.405.941h.004Zm3.318-.395c.022.336.213.596.423.582.214-.014.368-.296.346-.632-.023-.337-.214-.596-.424-.583-.213.014-.368.296-.345.633Z" fill="#1A4850"/>
    <path d="M235.284 58.888s.177-.773.45-.791c.273-.019.733.495.733.495l.505-.368-.487.191s-.418-.587-.801-.469c-.382.119-.405.942-.405.942h.005Z" fill="#1A4850"/>
    <path d="M232.381 54.597s1.128 5.93-3.513 6.53c0 0-1.661-2.821-3.85-.846 0 0-2.339-6.43 3.172-7.463 0 0 1.069-2.462 5.36-1.68 5.993 1.093 7.659 8.337 4.323 15.49 0 0 2.931-12.877-5.492-12.03Z" fill="#FFB878"/>
    <path d="M224.249 70.588c.628.346 1.374.714 2.252 1.106 16 7.157 12.241.45 12.241.45-.009-.482-.168-.933-.45-1.352a3.41 3.41 0 0 0-.487-.587c-1.306-.436-8.423-2.616-13.251.2a4.054 4.054 0 0 0-.305.183Z" fill="#EF6E4B"/>
    <path d="M224.249 70.587c.628.346 1.374.715 2.252 1.106 16 7.158 12.241.45 12.241.45-.009-.482-.168-.932-.45-1.35-.583.272-1.77.81-2.162.9l-.255.983-1.365-.883s-4.81.137-9.956-1.388a4.054 4.054 0 0 0-.305.182Zm14.966 12.915-2.416.733c-2.421.728-2.161 1.082-2.63 2.361-.441 1.197 1.656 2.239 2.639 2.435.828.168 2.316 1.715 3.035 1.665.292-.018.146-.223-.382-.65a5.017 5.017 0 0 1-1.019-1.17c.819-.341 2.885 1.688 3.704 1.192.396-.245-2.853-1.47-2.885-2.011 0 0 .287-.15 1.929.318.942.269 1.912.556 2.13.323.391-.427-1.679-.65-3.768-1.76 0 0 1.065.109 2.043.282.892.159 1.711.4 1.743-.005.028-.332-1.374-.541-2.261-.705-1.652-.314-2.794-.901-3.363-1.247a3.608 3.608 0 0 1-.41-.278c2.403-.95 1.911-1.479 1.911-1.479v-.004Z" fill="#FF8B66"/>
    <path d="M222.906 71.693c2.503-1.629 4.433 3.532 4.1 6.935-.15 1.534-4.1 12.696-4.1 12.696l11.818-6.08.724 1.857s-5.561 3.936-8.901 6.762c-3.34 2.826-6.903 2.854-8.114 1.93-1.215-.924.76-9.42 1.443-12.91.682-3.49 1.574-10.243 3.03-11.19Z" fill="#FF8B66"/>
    <path d="M166.808 35.194c8.248 0 14.935-5.874 14.935-13.12 0-7.245-6.687-13.118-14.935-13.118-8.249 0-14.935 5.873-14.935 13.119 0 7.245 6.686 13.119 14.935 13.119Z" fill="#EBD95E"/>
    <path d="m173.948 29.615-8.078 1.183s3.354 7.14 12.573 10.116c0 0-5.301-5.197-4.495-11.3Z" fill="#EBD95E"/>
    <path d="M156.37 22.654c-.066-.915.369-1.443 1.304-1.584 1.166-.171 1.807.282 1.923 1.36l-1.049.055c-.031-.403-.256-.564-.675-.482-.306.059-.469.18-.489.366-.018.185.085.324.308.419.223.092.59.176 1.103.253.528.136.843.434.943.894.017.9-.413 1.419-1.289 1.555-1.166.172-1.807-.281-1.924-1.36l.974-.046c.095.38.348.55.758.511.278-.063.434-.186.468-.366.054-.194-.131-.326-.556-.4-1.137-.136-1.736-.528-1.799-1.175Zm4.728 1.8-.151.636-1.136.066 1.045-4.29 1.177-.25 1.803 4.027-1.118.229-.33-.747-1.29.329Zm.915-1.173-.417-.937-.264 1.118.681-.181Zm2.886-3.134.198 3.357 2.219-.268.034 1.19-3.21.27-.309-4.223 1.068-.326Zm3.918 3.418-.151.636-1.137.066 1.046-4.29 1.177-.25 1.803 4.027-1.118.229-.331-.747-1.289.329Zm.915-1.173-.418-.937-.263 1.118.681-.181Zm3.886-1.026.41-2.079 1.401-.173.529 4.21-1.067.134-.309-2.687-.271 1.922-1.022.118-.692-1.76.331 2.668-1.074.177-.542-4.323 1.301-.147 1.005 1.94Zm3.58.735.116 1.007-1.074.206-.128-1.088 1.086-.125Zm-1.125-.21-.333-2.816 1.086-.172.333 2.863-1.086.125Z" fill="#fff"/>
    <path d="M142.108 56.076c6.604 0 11.958-4.704 11.958-10.507s-5.354-10.507-11.958-10.507c-6.605 0-11.959 4.704-11.959 10.507s5.354 10.507 11.959 10.507Z" fill="#EFCD41"/>
    <path d="m136.388 51.607 6.47.947s-2.684 5.715-10.07 8.104c0 0 4.246-4.163 3.6-9.05Z" fill="#EFCD41"/>
    <path d="M134.067 46.199c.041-1.526.702-2.288 1.983-2.288 1.17-.018 1.81.627 1.919 1.933l-1.023.062c-.05-.649-.362-.968-.934-.958-.633.015-.932.42-.897 1.212.034.74.358 1.124.973 1.149.588-.05.891-.337.908-.858l.999-.115c.026 1.188-.61 1.866-1.907 2.034-1.297.05-1.971-.673-2.021-2.171Zm4.195 2.056-.012-4.268 1.099-.047.003 4.233-1.09.082Zm2.675-.6-.223.615-1.137-.065 1.53-4.142 1.198-.114 1.33 4.207-1.137.1-.243-.78-1.318.179Zm1.043-1.06-.308-.98-.39 1.082.698-.103Zm4.397-.51c-.035-.768-.355-1.147-.961-1.137-.633.015-.931.42-.896 1.212.033.74.357 1.124.972 1.149.588-.05.883-.459.885-1.225Zm.999-.115c.041 1.574-.587 2.374-1.884 2.4-1.297.05-1.97-.673-2.021-2.171.041-1.526.702-2.288 1.983-2.288 1.225-.018 1.866.669 1.922 2.06Zm1.392 1.19v1.013l-1.09.082-.003-1.096h1.093Zm-1.093-.337-.009-2.836 1.099-.047.003 2.883h-1.093Z" fill="#fff"/>
    <path d="M68.08 61.095c7.353 0 13.315-5.236 13.315-11.694 0-6.46-5.962-11.695-13.315-11.695-7.354 0-13.315 5.236-13.315 11.694 0 6.46 5.961 11.695 13.315 11.695Z" fill="#FFEF7B"/>
    <path d="m74.442 56.117-7.204 1.056s2.99 6.361 11.208 9.019c0 0-4.723-4.633-4.004-10.075Z" fill="#FFEF7B"/>
    <path d="m60.017 47.808.026 1.526 1.594-.114.05-1.465 1.072-.038-.123 4.394-1.014.038v-1.793l-1.579.088.062 1.594-1.05.027-.037-4.208.999-.05Zm5.824 2.109c-.035-.768-.356-1.147-.961-1.137-.633.016-.932.42-.897 1.213.034.74.358 1.123.973 1.149.588-.051.883-.46.885-1.225Zm.999-.114c.04 1.574-.587 2.374-1.884 2.4-1.297.05-1.97-.674-2.021-2.172.04-1.525.702-2.288 1.983-2.288 1.225-.017 1.865.67 1.922 2.06Zm1.544-2.16-.188 3.358 2.236-.012-.103 1.187-3.22-.1.176-4.23 1.099-.202Zm3.5 3.844-.222.615-1.137-.064 1.53-4.142 1.198-.115 1.33 4.207-1.137.1-.243-.78-1.318.18Zm1.044-1.06-.308-.979-.39 1.081.698-.102Zm3.073.565v1.014l-1.09.082-.003-1.096h1.093Zm-1.093-.337L74.9 47.82l1.099-.047.003 2.883h-1.093Z" fill="#fff"/>
    <path d="M45.46 39.872c8.248 0 14.934-5.874 14.934-13.12 0-7.245-6.686-13.119-14.935-13.119-8.248 0-14.934 5.874-14.934 13.12 0 7.245 6.686 13.119 14.934 13.119Z" fill="#E0CB32"/>
    <path d="m38.32 34.293 8.077 1.183s-3.354 7.14-12.573 10.116c0 0 5.301-5.197 4.496-11.3Z" fill="#E0CB32"/>
    <path d="m36.133 24.306-.547-.076-.087.625.609.122c.168.015.282-.073.34-.266.034-.238-.071-.373-.315-.405Zm-.759 1.396-.08.652.652.168c.24.006.384-.088.43-.282.05-.236-.073-.378-.368-.426l-.634-.112Zm-1.09 1.257.586-3.815 1.564.286c.67.182.961.623.875 1.32a1.486 1.486 0 0 1-.262.661c.192.225.264.534.216.927-.137.807-.627 1.144-1.468 1.01l-1.512-.389Zm5.828-1.051c.066-.684-.169-1.06-.705-1.128-.562-.067-.877.253-.947.959-.065.658.173 1.038.714 1.139.526.03.839-.294.938-.97Zm.898.026c-.164 1.397-.821 2.024-1.971 1.882-1.154-.12-1.657-.846-1.511-2.177.23-1.344.912-1.934 2.044-1.771 1.085.14 1.565.829 1.438 2.066Zm1.242-.348-.307 2.5-.93-.11.501-3.725 1.179.135 1.104 2.817.404-2.68.953.104-.668 3.87-1.197-.172-1.039-2.739Zm2.801 1.646c.093.18.257.288.493.325.4.028.64-.242.722-.808l.284-1.808.904.13-.275 1.82c-.204 1.21-.776 1.75-1.714 1.622a2.251 2.251 0 0 1-.602-.17l.188-1.11Zm4.84.084c.067-.684-.168-1.06-.705-1.128-.561-.067-.877.253-.947.958-.064.66.174 1.039.714 1.14.527.03.84-.294.939-.97Zm.898.026c-.164 1.397-.82 2.024-1.97 1.882-1.154-.12-1.658-.846-1.512-2.177.23-1.344.912-1.934 2.045-1.771 1.085.14 1.564.829 1.437 2.066Zm1.36-1.515-.275 1.84c-.057.556.134.869.571.939.4.027.64-.242.722-.809l.284-1.807.904.13-.275 1.82c-.204 1.21-.776 1.75-1.714 1.622-1.079-.162-1.533-.831-1.364-2.007l.291-1.875.857.147Zm3.955 1.37-.675-.07-.084.587.642.164c.229.006.365-.082.409-.266.056-.246-.041-.384-.292-.415Zm-.507 1.466-.38-.065-.234 1.407-.931-.086.602-3.859 1.571.24c.814.129 1.173.575 1.08 1.34-.094.55-.356.89-.785 1.018.163.4.302.958.417 1.676l-.98-.083c-.092-.764-.212-1.294-.36-1.588Z" fill="#fff"/>
    <path d="M269.558 30.238c8.249 0 14.935-5.873 14.935-13.119C284.493 9.874 277.807 4 269.558 4c-8.248 0-14.934 5.874-14.934 13.12 0 7.245 6.686 13.118 14.934 13.118Z" fill="#AA9A28"/>
    <path d="m276.698 24.66-8.077 1.182s3.354 7.14 12.573 10.116c0 0-5.301-5.196-4.496-11.299Z" fill="#AA9A28"/>
    <path d="m261.017 14.808.026 1.526 1.594-.114.05-1.465 1.072-.038-.123 4.394-1.014.038v-1.793l-1.579.088.061 1.594-1.048.026-.038-4.207.999-.05Zm4.174 1.573 2.025-.059-.103.973-1.98.09-.038.616 2.235-.012-.102 1.187-3.22-.1.167-4.207 3.196-.061-.091.984-2.051.067-.038.522Zm3.66-1.737L268.663 18l2.235-.012-.102 1.187-3.22-.1.176-4.23 1.099-.202Zm3.492 0L272.155 18l2.236-.012-.103 1.187-3.22-.1.176-4.23 1.099-.202Zm5.051 2.273c-.036-.768-.356-1.147-.961-1.137-.633.016-.932.42-.897 1.213.033.74.358 1.123.973 1.149.588-.051.883-.46.885-1.225Zm.999-.114c.041 1.574-.587 2.374-1.884 2.4-1.297.05-1.971-.674-2.022-2.172.041-1.525.702-2.288 1.984-2.288 1.224-.017 1.865.67 1.922 2.06Zm1.391 1.19v1.013l-1.09.082-.003-1.096h1.093Zm-1.093-.338-.008-2.836 1.098-.046.003 2.882h-1.093Z" fill="#fff"/>
    <path d="M253.977 56.094c9.764 0 17.679-5.625 17.679-12.564s-7.915-12.564-17.679-12.564c-9.763 0-17.678 5.625-17.678 12.564 0 6.94 7.915 12.564 17.678 12.564Z" fill="#E1C435"/>
    <path d="m248.453 52.627 7.74 1.133s-3.212 6.84-12.045 9.692c0 0 5.074-4.978 4.305-10.825Z" fill="#E1C435"/>
    <path d="M243.396 45.472c.245 1.317-.148 2.059-1.18 2.225-1.073.181-1.725-.288-1.956-1.407-.186-1.258.247-1.98 1.299-2.164.957-.183 1.558.158 1.802 1.023l-.86.084c-.081-.257-.356-.34-.825-.25-.517.104-.704.479-.561 1.125.134.602.455.87.964.802.393-.065.581-.239.563-.52l-.831.096-.094-.774 1.679-.24Zm.793-1.668.29 1.712c.111.509.37.731.779.666.362-.092.497-.4.405-.926l-.273-1.685.839-.147.284 1.693c.171 1.132-.179 1.777-1.048 1.936-1.003.17-1.601-.292-1.792-1.384l-.286-1.747.802-.118Zm2.287-.413 2.837-.56.106.847-1.033.213.56 2.648-.825.242-.562-2.712-.954.241-.129-.92Zm4.124.536 1.654-.34.055.814-1.612.36.057.51 1.833-.331.087.988-2.657.382-.469-3.477 2.615-.51.067.82-1.673.35.043.434Zm2.798-.626.453 2.304-.857.173-.636-3.448 1.084-.222 1.796 2.176-.419-2.492.875-.185.531 3.625-1.111.194-1.716-2.125Zm3.789-1.787 2.837-.56.106.847-1.034.213.561 2.648-.825.242-.562-2.713-.954.242-.129-.92Zm3.739 2.386-.094.537-.942.11.659-3.62.967-.266 1.697 3.262-.918.245-.312-.605-1.057.337Zm.704-1.02-.393-.76-.165.944.558-.185Zm4.303-1.357c.246 1.317-.147 2.058-1.179 2.224-1.074.181-1.726-.288-1.957-1.407-.186-1.258.247-1.98 1.299-2.164.958-.182 1.559.159 1.803 1.023l-.861.084c-.081-.257-.356-.34-.824-.25-.517.104-.704.479-.561 1.125.133.603.454.87.963.803.393-.066.581-.24.563-.52l-.831.096-.093-.775 1.678-.24Zm1.34.845.146.832-.882.225-.16-.9.896-.157Zm-.945-.119-.415-2.326.895-.197.417 2.366-.897.157Z" fill="#fff"/>
  </svg>