<svg width="20" height="19" viewBox="0 0 20 19" fill="none" xmlns="http://www.w3.org/2000/svg"><path d="m9.864 18.1 4.118-10.86h1.9L20 18.1h-1.9l-.95-2.76h-4.39l-.995 2.76h-1.9Zm3.44-4.344h3.257l-1.584-4.48h-.09l-1.584 4.48Zm-10.59 1.629-1.266-1.267 4.57-4.57a14.53 14.53 0 0 1-1.505-1.969 14.423 14.423 0 0 1-1.12-2.15h1.901c.272.544.562 1.034.872 1.471.31.438.682.898 1.12 1.38a12.578 12.578 0 0 0 1.65-2.228c.438-.762.808-1.573 1.11-2.432H0V1.81h6.335V0h1.81v1.81h6.335v1.81h-2.625a16.424 16.424 0 0 1-1.29 3.122 14.602 14.602 0 0 1-2.013 2.85l2.172 2.218-.679 1.855L7.24 10.86l-4.525 4.525Z" fill="#000"/></svg>