<svg width="10" height="17" viewBox="0 0 10 17" fill="none" xmlns="http://www.w3.org/2000/svg">
<path d="M8.01844 16.6636L0.25347 9.12797C0.161304 9.03826 0.0958666 8.94107 0.057157 8.83641C0.0184474 8.73175 -0.000600037 8.61961 1.4401e-05 8.5C1.4401e-05 8.38039 0.0190618 8.26825 0.057157 8.16359C0.0952522 8.05893 0.16069 7.96174 0.25347 7.87203L8.01844 0.313984C8.23349 0.104661 8.50231 0 8.82489 0C9.14747 0 9.42396 0.112137 9.65438 0.336412C9.88479 0.560686 10 0.822339 10 1.12137C10 1.4204 9.88479 1.68206 9.65438 1.90633L2.88019 8.5L9.65438 15.0937C9.86943 15.303 9.97696 15.5611 9.97696 15.8679C9.97696 16.1747 9.86175 16.4399 9.63134 16.6636C9.40092 16.8879 9.13211 17 8.82489 17C8.51767 17 8.24885 16.8879 8.01844 16.6636Z" fill="#222222"/>
</svg>
