<svg width="14" height="17" viewBox="0 0 14 17" fill="none" xmlns="http://www.w3.org/2000/svg"><path d="M7 12.952c-.464 0-.91-.17-1.237-.474a1.56 1.56 0 0 1-.513-1.145c0-.898.779-1.619 1.75-1.619.464 0 .91.17 1.237.474.329.304.513.716.513 1.145 0 .43-.184.841-.513 1.145A1.825 1.825 0 0 1 7 12.952Zm5.25 2.429V7.286H1.75v8.095h10.5Zm0-9.714c.464 0 .91.17 1.237.474.329.304.513.715.513 1.145v8.095c0 .43-.184.841-.513 1.145A1.825 1.825 0 0 1 12.25 17H1.75c-.464 0-.91-.17-1.237-.474A1.56 1.56 0 0 1 0 15.38V7.286c0-.899.779-1.62 1.75-1.62h.875V4.049c0-1.074.46-2.103 1.281-2.862C4.726.426 5.84 0 7 0a4.69 4.69 0 0 1 1.674.308 4.432 4.432 0 0 1 1.42.878c.406.375.728.822.948 1.313.22.49.333 1.017.333 1.549v1.619h.875ZM7 1.619c-.696 0-1.364.256-1.856.711a2.34 2.34 0 0 0-.769 1.718v1.619h5.25v-1.62a2.34 2.34 0 0 0-.769-1.717A2.737 2.737 0 0 0 7 1.62Z" fill="#222"/></svg>