<svg width="129" height="93" viewBox="0 0 129 93" fill="#D2D2D2" xmlns="http://www.w3.org/2000/svg"><path d="M96.931 80.73a37.207 37.207 0 0 0 6.625-1.788c12.128-4.555 28.065-19.671 24.662-31.952-4.37-15.47-30.908-10.553-39.632-8.936-11.633 2.155-25.882-8.116-45.63-22.359A948.916 948.916 0 0 0 23.687 1.99a6.188 6.188 0 0 0-7.23.217A37.573 37.573 0 0 0 5.22 14.362a37.352 37.352 0 0 0-4.895 15.78A32.905 32.905 0 0 0 3.09 44.37a32.993 32.993 0 0 0 8.613 11.67 61.993 61.993 0 0 1 16.94 30.544 6.144 6.144 0 0 0 2.178 4.17 6.213 6.213 0 0 0 8.705-.733 6.156 6.156 0 0 0 1.458-4.476 111.975 111.975 0 0 1 2.922-25.49 133.053 133.053 0 0 1 25.17 14.422 36.977 36.977 0 0 0 13.292 5.915 37.12 37.12 0 0 0 14.563.338Z"/></svg>