<svg width="120" height="92" viewBox="0 0 120 92" fill="none" xmlns="http://www.w3.org/2000/svg"><path d="m119.889.08-9.294 71.621a20.257 20.257 0 0 1-7.694 13.42 20.122 20.122 0 0 1-14.896 4.04 20.122 20.122 0 0 1-13.371-7.707 20.256 20.256 0 0 1-4.015-14.94 20.256 20.256 0 0 1 7.695-13.42 20.122 20.122 0 0 1 14.896-4.04c3.084.4 5.907 1.465 8.313 3.06l4.365-33.634-58.693 4.794-6.617 50.994a20.256 20.256 0 0 1-7.694 13.42 20.122 20.122 0 0 1-14.896 4.04A20.122 20.122 0 0 1 4.617 84.02 20.256 20.256 0 0 1 .602 69.08a20.256 20.256 0 0 1 7.695-13.42 20.122 20.122 0 0 1 14.895-4.04c3.084.4 5.908 1.466 8.314 3.06l6.2-47.786L119.89.08Z" fill="#D2D2D2"/></svg>