<svg width="80" height="57" viewBox="0 0 80 57" fill="none" xmlns="http://www.w3.org/2000/svg"><path d="M79.31 48.045a8.735 8.735 0 0 1-8.735 8.736H9.426A8.736 8.736 0 0 1 .69 48.045V8.735A8.736 8.736 0 0 1 9.426 0h61.149a8.735 8.735 0 0 1 8.735 8.736v39.31Z" fill="#060"/><path d="M70.575 0H33.449v56.781h37.126a8.736 8.736 0 0 0 8.735-8.736V8.735A8.736 8.736 0 0 0 70.575 0Z" fill="#D52B1E"/><path d="M33.449 10.92a17.47 17.47 0 1 0 0 34.941 17.47 17.47 0 0 0 0-34.942Zm-13.35 10.032 3.498 3.499-5.372 2.686a15.179 15.179 0 0 1 1.874-6.185Zm-1.874 8.69 9.61 4.82-5.91 3.94.03.045a15.206 15.206 0 0 1-3.73-8.805Zm13.04 13.861a15.165 15.165 0 0 1-5.66-2.01h5.66v2.01Zm0-4.193h-6.768l6.768-4.512v4.512Zm0-7.137-1.326.884-9.336-4.667 4.621-2.31 6.041 6.038v.055Zm0-3.143-7.738-7.737 7.738 1.288v6.45Zm0-8.718-9.679-1.557a15.25 15.25 0 0 1 9.679-5.477v7.034Zm15.534.64a15.18 15.18 0 0 1 1.874 6.187L43.3 24.453l3.499-3.5Zm-11.166-7.674c3.8.543 7.256 2.499 9.679 5.477l-9.68 1.557v-7.034Zm0 9.303 7.737-1.29-7.737 7.74v-6.45Zm0 9.537 6.038-6.038 4.623 2.31-9.333 4.667-1.328-.884v-.055Zm0 11.385v-2.01h5.66a15.166 15.166 0 0 1-5.66 2.01Zm0-4.193v-4.512L42.4 39.31h-6.768Zm9.312-.863.03-.046-5.91-3.94 9.61-4.82a15.235 15.235 0 0 1-3.73 8.806Z" fill="#FFCC4D"/><path d="M24.713 17.471v15.287a8.736 8.736 0 0 0 17.471 0V17.471h-17.47Z" fill="#D52B1E"/><path d="M26.897 19.655v13.103a6.552 6.552 0 0 0 13.104 0V19.655H26.897Z" fill="#fff"/><path d="M29.081 26.207h8.736v4.367H29.08v-4.367Z" fill="#829ACD"/><path d="M31.265 24.023h4.368v8.735h-4.368v-8.735Z" fill="#829ACD"/><path d="M26.897 26.207h2.184v4.367h-2.184v-4.367Zm4.368 0h4.368v4.367h-4.368v-4.367Zm6.552 0H40v4.367h-2.184v-4.367Zm-6.552 6.551h4.368v4.368h-4.368v-4.368Zm0-13.103h4.368v4.368h-4.368v-4.368Z" fill="#039"/></svg>