<svg width="90" height="97" viewBox="0 0 90 97" fill="none" xmlns="http://www.w3.org/2000/svg">
    <path
        d="M14.6517 93.2291L25.4907 53.0294L14.2299 40.4361L10.8154 45.6326L14.5797 64.0208L5.57863 65.9143L0.893386 43.6957L12.3727 26.5685L42.3279 20.403L34.2671 4.36647L42.4241 0.248738L55.9438 26.9638L37.1763 30.8631L40.9109 37.2029L86.5161 19.6643L89.744 27.5393L40.0747 52.9784L23.4093 96.1193L14.6517 93.2291ZM14.4717 20.2083C12.0633 19.4135 10.2846 17.8731 9.1356 15.5872C7.98657 13.3013 7.81112 10.954 8.60926 8.54539C9.40544 6.1329 10.9455 4.35018 13.2295 3.19721C15.5134 2.04425 17.8576 1.86615 20.2621 2.66293C22.6704 3.45774 24.4491 4.99812 25.5982 7.28405C26.7472 9.56998 26.9226 11.9173 26.1245 14.3259C25.3283 16.7383 23.7883 18.5211 21.5043 19.674C19.2203 20.827 16.8761 21.0051 14.4717 20.2083Z"
        fill="#D2D2D2" />
</svg>