<svg width="27" height="17" viewBox="0 0 27 17" fill="none" xmlns="http://www.w3.org/2000/svg">
<path d="M26.4657 3.36866L14.4974 16.5691C14.3549 16.7258 14.2005 16.837 14.0343 16.9028C13.8681 16.9686 13.69 17.001 13.5 17C13.31 17 13.1319 16.9676 12.9657 16.9028C12.7995 16.8381 12.6451 16.7268 12.5026 16.5691L0.49868 3.36866C0.166226 3.00307 -6.31801e-07 2.54608 -6.55772e-07 1.99769C-6.79742e-07 1.44931 0.1781 0.979263 0.5343 0.587559C0.890501 0.195854 1.30607 1.85026e-06 1.781 1.8295e-06C2.25594 1.80874e-06 2.6715 0.195854 3.0277 0.587559L13.5 12.1037L23.9723 0.587558C24.3047 0.221967 24.7146 0.0391701 25.2019 0.0391701C25.6892 0.0391701 26.1104 0.235022 26.4657 0.626727C26.8219 1.01843 27 1.47542 27 1.99769C27 2.51997 26.8219 2.97695 26.4657 3.36866Z" fill="white"/>
</svg>
