<svg width="173" height="273" viewBox="0 0 173 273" fill="none" xmlns="http://www.w3.org/2000/svg">
<rect width="172.369" height="273" rx="8" fill="#F7F9FB"/>
<rect x="0.5" y="0.5" width="171.369" height="272" rx="7.5" stroke="#4D4D4D" stroke-opacity="0.3"/>
<path d="M42.2427 180.79C41.1867 180.79 40.3974 180.497 39.8747 179.91C39.3627 179.313 39.1067 178.433 39.1067 177.27V175.99C39.1067 174.838 39.3681 173.963 39.8907 173.366C40.4134 172.769 41.1761 172.47 42.1787 172.47C42.3921 172.47 42.5894 172.486 42.7707 172.518C42.9521 172.539 43.1227 172.577 43.2827 172.63V170.39C43.2827 170.07 43.4427 169.91 43.7627 169.91H44.6107C44.9307 169.91 45.0907 170.07 45.0907 170.39V178.918C45.0907 179.43 45.0107 179.787 44.8507 179.99C44.6907 180.193 44.4507 180.353 44.1307 180.47C43.8214 180.587 43.5067 180.667 43.1867 180.71C42.8667 180.763 42.5521 180.79 42.2427 180.79ZM42.1307 179.158C42.2907 179.158 42.4454 179.158 42.5947 179.158C42.7441 179.147 42.8881 179.121 43.0267 179.078C43.1227 179.057 43.1867 179.014 43.2187 178.95C43.2614 178.875 43.2827 178.758 43.2827 178.598V174.678C43.2827 174.518 43.2614 174.406 43.2187 174.342C43.1867 174.267 43.1227 174.219 43.0267 174.198C42.8881 174.155 42.7494 174.134 42.6107 174.134C42.4827 174.123 42.3281 174.118 42.1467 174.118C41.3467 174.118 40.9467 174.513 40.9467 175.302V177.942C40.9467 178.753 41.3414 179.158 42.1307 179.158ZM49.8886 180.79C48.6833 180.79 47.8193 180.497 47.2966 179.91C46.7846 179.323 46.5286 178.443 46.5286 177.27V175.99C46.5286 174.87 46.8006 174.006 47.3446 173.398C47.8886 172.779 48.6246 172.47 49.5526 172.47C50.4593 172.47 51.1633 172.742 51.6646 173.286C52.1766 173.83 52.4326 174.571 52.4326 175.51V176.198C52.4326 176.454 52.4166 176.662 52.3846 176.822C52.3526 176.982 52.2886 177.105 52.1926 177.19C52.1073 177.275 51.99 177.334 51.8406 177.366C51.6913 177.398 51.5046 177.414 51.2806 177.414H48.3686V177.894C48.3686 178.278 48.4646 178.587 48.6566 178.822C48.8593 179.046 49.2273 179.158 49.7606 179.158H51.6806C52.0006 179.158 52.1606 179.318 52.1606 179.638V179.814C52.1606 180.006 52.1233 180.166 52.0486 180.294C51.9846 180.411 51.862 180.507 51.6806 180.582C51.51 180.657 51.2753 180.71 50.9766 180.742C50.6886 180.774 50.326 180.79 49.8886 180.79ZM48.3686 176.038H50.3046C50.4433 176.038 50.5286 176.017 50.5606 175.974C50.6033 175.931 50.6246 175.83 50.6246 175.67V175.318C50.6246 174.913 50.5286 174.609 50.3366 174.406C50.1446 174.203 49.878 174.102 49.5366 174.102C48.758 174.102 48.3686 174.507 48.3686 175.318V176.038ZM56.2341 180.79C55.8075 180.79 55.4181 180.731 55.0661 180.614C54.7141 180.497 54.4155 180.342 54.1701 180.15C53.9248 179.947 53.7328 179.718 53.5941 179.462C53.4555 179.206 53.3861 178.939 53.3861 178.662C53.3861 178.342 53.5461 178.182 53.8661 178.182H54.6341C54.7941 178.182 54.9061 178.225 54.9701 178.31C55.0448 178.385 55.1141 178.502 55.1781 178.662C55.2421 178.811 55.3488 178.934 55.4981 179.03C55.6581 179.115 55.8821 179.158 56.1701 179.158C56.8635 179.158 57.2101 178.907 57.2101 178.406C57.2101 178.161 57.1141 177.969 56.9221 177.83C56.7408 177.681 56.5061 177.553 56.2181 177.446C55.9408 177.329 55.6368 177.217 55.3061 177.11C54.9861 176.993 54.6821 176.849 54.3941 176.678C54.1168 176.497 53.8821 176.267 53.6901 175.99C53.5088 175.702 53.4181 175.334 53.4181 174.886C53.4181 174.555 53.4821 174.241 53.6101 173.942C53.7381 173.643 53.9195 173.387 54.1541 173.174C54.3888 172.961 54.6715 172.79 55.0021 172.662C55.3435 172.534 55.7168 172.47 56.1221 172.47C56.5701 172.47 56.9701 172.534 57.3221 172.662C57.6741 172.779 57.9675 172.945 58.2021 173.158C58.4475 173.371 58.6341 173.627 58.7621 173.926C58.8901 174.214 58.9541 174.529 58.9541 174.87C58.9541 175.19 58.7941 175.35 58.4741 175.35H57.6261C57.4661 175.35 57.3488 175.313 57.2741 175.238C57.2101 175.153 57.1675 175.03 57.1461 174.87C57.1141 174.657 57.0181 174.475 56.8581 174.326C56.7088 174.177 56.4635 174.102 56.1221 174.102C55.8341 174.102 55.6101 174.161 55.4501 174.278C55.2901 174.395 55.2101 174.571 55.2101 174.806C55.2101 175.041 55.3008 175.227 55.4821 175.366C55.6741 175.505 55.9088 175.633 56.1861 175.75C56.4741 175.857 56.7781 175.969 57.0981 176.086C57.4288 176.203 57.7328 176.358 58.0101 176.55C58.2981 176.731 58.5328 176.966 58.7141 177.254C58.9061 177.542 59.0021 177.91 59.0021 178.358C59.0021 178.689 58.9381 179.003 58.8101 179.302C58.6821 179.59 58.4955 179.846 58.2501 180.07C58.0155 180.294 57.7275 180.47 57.3861 180.598C57.0448 180.726 56.6608 180.79 56.2341 180.79ZM66.9754 179.158C67.434 179.158 67.786 179.03 68.0314 178.774C68.2874 178.518 68.4154 178.118 68.4154 177.574C68.4154 177.254 68.5807 177.094 68.9114 177.094H69.6314C70.0474 177.094 70.2554 177.307 70.2554 177.734C70.2554 178.214 70.1754 178.646 70.0154 179.03C69.8554 179.403 69.626 179.723 69.3274 179.99C69.0394 180.246 68.6927 180.443 68.2874 180.582C67.8927 180.721 67.4554 180.79 66.9754 180.79C65.7487 180.79 64.8474 180.454 64.2714 179.782C63.6954 179.11 63.4074 178.059 63.4074 176.63V173.91C63.4074 172.481 63.6954 171.43 64.2714 170.758C64.8474 170.086 65.7487 169.75 66.9754 169.75C67.4554 169.75 67.8927 169.819 68.2874 169.958C68.6927 170.097 69.0394 170.294 69.3274 170.55C69.626 170.806 69.8554 171.126 70.0154 171.51C70.1754 171.883 70.2554 172.31 70.2554 172.79C70.2554 173.217 70.0474 173.43 69.6314 173.43H68.9114C68.5807 173.43 68.4154 173.27 68.4154 172.95C68.4154 172.406 68.2874 172.011 68.0314 171.766C67.786 171.51 67.434 171.382 66.9754 171.382C66.3994 171.382 65.9727 171.547 65.6954 171.878C65.4287 172.198 65.2954 172.71 65.2954 173.414V177.11C65.2954 177.814 65.4287 178.331 65.6954 178.662C65.9727 178.993 66.3994 179.158 66.9754 179.158ZM72.0942 180.63C71.7742 180.63 71.6142 180.47 71.6142 180.15V170.39C71.6142 170.07 71.7742 169.91 72.0942 169.91H72.9422C73.2622 169.91 73.4222 170.07 73.4222 170.39V180.15C73.4222 180.47 73.2622 180.63 72.9422 180.63H72.0942ZM75.6567 180.63C75.3367 180.63 75.1767 180.47 75.1767 180.15V173.11C75.1767 172.79 75.3367 172.63 75.6567 172.63H76.5047C76.8247 172.63 76.9847 172.79 76.9847 173.11V180.15C76.9847 180.47 76.8247 180.63 76.5047 180.63H75.6567ZM76.0887 171.91C75.4167 171.91 75.0807 171.574 75.0807 170.902C75.0807 170.241 75.4167 169.91 76.0887 169.91C76.7607 169.91 77.0967 170.241 77.0967 170.902C77.0967 171.574 76.7607 171.91 76.0887 171.91ZM81.7792 180.79C80.5739 180.79 79.7099 180.497 79.1872 179.91C78.6752 179.323 78.4192 178.443 78.4192 177.27V175.99C78.4192 174.87 78.6912 174.006 79.2352 173.398C79.7792 172.779 80.5152 172.47 81.4432 172.47C82.3499 172.47 83.0539 172.742 83.5552 173.286C84.0672 173.83 84.3232 174.571 84.3232 175.51V176.198C84.3232 176.454 84.3072 176.662 84.2752 176.822C84.2432 176.982 84.1792 177.105 84.0832 177.19C83.9979 177.275 83.8806 177.334 83.7312 177.366C83.5819 177.398 83.3952 177.414 83.1712 177.414H80.2592V177.894C80.2592 178.278 80.3552 178.587 80.5472 178.822C80.7499 179.046 81.1179 179.158 81.6512 179.158H83.5712C83.8912 179.158 84.0512 179.318 84.0512 179.638V179.814C84.0512 180.006 84.0139 180.166 83.9392 180.294C83.8752 180.411 83.7526 180.507 83.5712 180.582C83.4006 180.657 83.1659 180.71 82.8672 180.742C82.5792 180.774 82.2166 180.79 81.7792 180.79ZM80.2592 176.038H82.1952C82.3339 176.038 82.4192 176.017 82.4512 175.974C82.4939 175.931 82.5152 175.83 82.5152 175.67V175.318C82.5152 174.913 82.4192 174.609 82.2272 174.406C82.0352 174.203 81.7686 174.102 81.4272 174.102C80.6486 174.102 80.2592 174.507 80.2592 175.318V176.038ZM86.1567 180.63C85.8367 180.63 85.6767 180.47 85.6767 180.15V174.342C85.6767 173.841 85.7567 173.489 85.9167 173.286C86.0767 173.073 86.3114 172.907 86.6207 172.79C86.9087 172.673 87.2127 172.593 87.5327 172.55C87.8634 172.497 88.1781 172.47 88.4767 172.47C89.5754 172.47 90.3487 172.726 90.7967 173.238C91.2447 173.75 91.4687 174.545 91.4687 175.622V180.15C91.4687 180.47 91.3087 180.63 90.9887 180.63H90.1407C89.8207 180.63 89.6607 180.47 89.6607 180.15V175.462C89.6607 174.982 89.5754 174.635 89.4047 174.422C89.2341 174.209 88.9354 174.102 88.5087 174.102C88.3594 174.102 88.2154 174.107 88.0767 174.118C87.9381 174.129 87.8207 174.15 87.7247 174.182C87.6287 174.214 87.5647 174.262 87.5327 174.326C87.5007 174.39 87.4847 174.502 87.4847 174.662V180.15C87.4847 180.47 87.3247 180.63 87.0047 180.63H86.1567ZM92.9055 174.166C92.5855 174.166 92.4255 174.006 92.4255 173.686V173.11C92.4255 172.79 92.5855 172.63 92.9055 172.63H93.4175V171.51C93.4175 171.19 93.5775 171.03 93.8975 171.03H94.7455C95.0655 171.03 95.2255 171.19 95.2255 171.51V172.63H96.3135C96.6335 172.63 96.7935 172.79 96.7935 173.11V173.686C96.7935 174.006 96.6335 174.166 96.3135 174.166H95.2255V178.678C95.2255 178.998 95.3855 179.158 95.7055 179.158H96.3135C96.6335 179.158 96.7935 179.318 96.7935 179.638V179.814C96.7935 180.465 96.2762 180.79 95.2415 180.79C94.8788 180.79 94.5802 180.742 94.3455 180.646C94.1108 180.561 93.9242 180.427 93.7855 180.246C93.6468 180.065 93.5508 179.835 93.4975 179.558C93.4442 179.27 93.4175 178.934 93.4175 178.55V174.166H92.9055ZM100.281 180.79C99.8543 180.79 99.465 180.731 99.113 180.614C98.761 180.497 98.4623 180.342 98.217 180.15C97.9717 179.947 97.7797 179.718 97.641 179.462C97.5023 179.206 97.433 178.939 97.433 178.662C97.433 178.342 97.593 178.182 97.913 178.182H98.681C98.841 178.182 98.953 178.225 99.017 178.31C99.0917 178.385 99.161 178.502 99.225 178.662C99.289 178.811 99.3957 178.934 99.545 179.03C99.705 179.115 99.929 179.158 100.217 179.158C100.91 179.158 101.257 178.907 101.257 178.406C101.257 178.161 101.161 177.969 100.969 177.83C100.788 177.681 100.553 177.553 100.265 177.446C99.9877 177.329 99.6837 177.217 99.353 177.11C99.033 176.993 98.729 176.849 98.441 176.678C98.1637 176.497 97.929 176.267 97.737 175.99C97.5557 175.702 97.465 175.334 97.465 174.886C97.465 174.555 97.529 174.241 97.657 173.942C97.785 173.643 97.9663 173.387 98.201 173.174C98.4357 172.961 98.7183 172.79 99.049 172.662C99.3903 172.534 99.7637 172.47 100.169 172.47C100.617 172.47 101.017 172.534 101.369 172.662C101.721 172.779 102.014 172.945 102.249 173.158C102.494 173.371 102.681 173.627 102.809 173.926C102.937 174.214 103.001 174.529 103.001 174.87C103.001 175.19 102.841 175.35 102.521 175.35H101.673C101.513 175.35 101.396 175.313 101.321 175.238C101.257 175.153 101.214 175.03 101.193 174.87C101.161 174.657 101.065 174.475 100.905 174.326C100.756 174.177 100.51 174.102 100.169 174.102C99.881 174.102 99.657 174.161 99.497 174.278C99.337 174.395 99.257 174.571 99.257 174.806C99.257 175.041 99.3477 175.227 99.529 175.366C99.721 175.505 99.9557 175.633 100.233 175.75C100.521 175.857 100.825 175.969 101.145 176.086C101.476 176.203 101.78 176.358 102.057 176.55C102.345 176.731 102.58 176.966 102.761 177.254C102.953 177.542 103.049 177.91 103.049 178.358C103.049 178.689 102.985 179.003 102.857 179.302C102.729 179.59 102.542 179.846 102.297 180.07C102.062 180.294 101.774 180.47 101.433 180.598C101.092 180.726 100.708 180.79 100.281 180.79ZM110.062 180.79C109.636 180.79 109.246 180.731 108.894 180.614C108.542 180.497 108.244 180.342 107.998 180.15C107.753 179.947 107.561 179.718 107.422 179.462C107.284 179.206 107.214 178.939 107.214 178.662C107.214 178.342 107.374 178.182 107.694 178.182H108.462C108.622 178.182 108.734 178.225 108.798 178.31C108.873 178.385 108.942 178.502 109.006 178.662C109.07 178.811 109.177 178.934 109.326 179.03C109.486 179.115 109.71 179.158 109.998 179.158C110.692 179.158 111.038 178.907 111.038 178.406C111.038 178.161 110.942 177.969 110.75 177.83C110.569 177.681 110.334 177.553 110.046 177.446C109.769 177.329 109.465 177.217 109.134 177.11C108.814 176.993 108.51 176.849 108.222 176.678C107.945 176.497 107.71 176.267 107.518 175.99C107.337 175.702 107.246 175.334 107.246 174.886C107.246 174.555 107.31 174.241 107.438 173.942C107.566 173.643 107.748 173.387 107.982 173.174C108.217 172.961 108.5 172.79 108.83 172.662C109.172 172.534 109.545 172.47 109.95 172.47C110.398 172.47 110.798 172.534 111.15 172.662C111.502 172.779 111.796 172.945 112.03 173.158C112.276 173.371 112.462 173.627 112.59 173.926C112.718 174.214 112.782 174.529 112.782 174.87C112.782 175.19 112.622 175.35 112.302 175.35H111.454C111.294 175.35 111.177 175.313 111.102 175.238C111.038 175.153 110.996 175.03 110.974 174.87C110.942 174.657 110.846 174.475 110.686 174.326C110.537 174.177 110.292 174.102 109.95 174.102C109.662 174.102 109.438 174.161 109.278 174.278C109.118 174.395 109.038 174.571 109.038 174.806C109.038 175.041 109.129 175.227 109.31 175.366C109.502 175.505 109.737 175.633 110.014 175.75C110.302 175.857 110.606 175.969 110.926 176.086C111.257 176.203 111.561 176.358 111.838 176.55C112.126 176.731 112.361 176.966 112.542 177.254C112.734 177.542 112.83 177.91 112.83 178.358C112.83 178.689 112.766 179.003 112.638 179.302C112.51 179.59 112.324 179.846 112.078 180.07C111.844 180.294 111.556 180.47 111.214 180.598C110.873 180.726 110.489 180.79 110.062 180.79ZM116.848 179.158C117.648 179.158 118.048 178.758 118.048 177.958V175.318C118.048 174.507 117.67 174.102 116.912 174.102C116.112 174.102 115.712 174.502 115.712 175.302V177.942C115.712 178.753 116.091 179.158 116.848 179.158ZM116.816 180.79C115.856 180.79 115.126 180.497 114.624 179.91C114.123 179.313 113.872 178.433 113.872 177.27V175.99C113.872 174.838 114.134 173.963 114.656 173.366C115.179 172.769 115.942 172.47 116.944 172.47C117.904 172.47 118.635 172.769 119.136 173.366C119.638 173.963 119.888 174.843 119.888 176.006V177.27C119.888 178.433 119.627 179.313 119.104 179.91C118.582 180.497 117.819 180.79 116.816 180.79ZM121.813 180.63C121.493 180.63 121.333 180.47 121.333 180.15V174.342C121.333 173.841 121.413 173.489 121.573 173.286C121.733 173.073 121.968 172.907 122.277 172.79C122.565 172.673 122.869 172.593 123.189 172.55C123.52 172.497 123.834 172.47 124.133 172.47C125.232 172.47 126.005 172.726 126.453 173.238C126.901 173.75 127.125 174.545 127.125 175.622V180.15C127.125 180.47 126.965 180.63 126.645 180.63H125.797C125.477 180.63 125.317 180.47 125.317 180.15V175.462C125.317 174.982 125.232 174.635 125.061 174.422C124.89 174.209 124.592 174.102 124.165 174.102C124.016 174.102 123.872 174.107 123.733 174.118C123.594 174.129 123.477 174.15 123.381 174.182C123.285 174.214 123.221 174.262 123.189 174.326C123.157 174.39 123.141 174.502 123.141 174.662V180.15C123.141 180.47 122.981 180.63 122.661 180.63H121.813ZM128.562 174.166C128.242 174.166 128.082 174.006 128.082 173.686V173.11C128.082 172.79 128.242 172.63 128.562 172.63H129.074V171.51C129.074 171.19 129.234 171.03 129.554 171.03H130.402C130.722 171.03 130.882 171.19 130.882 171.51V172.63H131.97C132.29 172.63 132.45 172.79 132.45 173.11V173.686C132.45 174.006 132.29 174.166 131.97 174.166H130.882V178.678C130.882 178.998 131.042 179.158 131.362 179.158H131.97C132.29 179.158 132.45 179.318 132.45 179.638V179.814C132.45 180.465 131.932 180.79 130.898 180.79C130.535 180.79 130.236 180.742 130.002 180.646C129.767 180.561 129.58 180.427 129.442 180.246C129.303 180.065 129.207 179.835 129.154 179.558C129.1 179.27 129.074 178.934 129.074 178.55V174.166H128.562ZM66.4909 200.63C66.1709 200.63 66.0109 200.47 66.0109 200.15V194.166H63.8349V200.15C63.8349 200.47 63.6749 200.63 63.3549 200.63H62.5069C62.1869 200.63 62.0269 200.47 62.0269 200.15V194.166H61.5149C61.1949 194.166 61.0349 194.006 61.0349 193.686V193.11C61.0349 192.79 61.1949 192.63 61.5149 192.63H62.0269V191.99C62.0269 191.222 62.1975 190.657 62.5389 190.294C62.8909 189.931 63.3975 189.75 64.0589 189.75C64.4749 189.75 64.8002 189.819 65.0349 189.958C65.2802 190.086 65.4029 190.326 65.4029 190.678V190.902C65.4029 191.222 65.2429 191.382 64.9229 191.382H64.3149C63.9949 191.382 63.8349 191.542 63.8349 191.862V192.63H67.3389C67.6589 192.63 67.8189 192.79 67.8189 193.11V200.15C67.8189 200.47 67.6589 200.63 67.3389 200.63H66.4909ZM66.9229 191.91C66.2509 191.91 65.9149 191.574 65.9149 190.902C65.9149 190.241 66.2509 189.91 66.9229 189.91C67.5949 189.91 67.9309 190.241 67.9309 190.902C67.9309 191.574 67.5949 191.91 66.9229 191.91ZM72.399 200.79C71.343 200.79 70.5537 200.497 70.031 199.91C69.519 199.313 69.263 198.433 69.263 197.27V195.99C69.263 194.838 69.5243 193.963 70.047 193.366C70.5697 192.769 71.3323 192.47 72.335 192.47C72.5483 192.47 72.7457 192.486 72.927 192.518C73.1083 192.539 73.279 192.577 73.439 192.63V190.39C73.439 190.07 73.599 189.91 73.919 189.91H74.767C75.087 189.91 75.247 190.07 75.247 190.39V198.918C75.247 199.43 75.167 199.787 75.007 199.99C74.847 200.193 74.607 200.353 74.287 200.47C73.9777 200.587 73.663 200.667 73.343 200.71C73.023 200.763 72.7083 200.79 72.399 200.79ZM72.287 199.158C72.447 199.158 72.6017 199.158 72.751 199.158C72.9003 199.147 73.0443 199.121 73.183 199.078C73.279 199.057 73.343 199.014 73.375 198.95C73.4177 198.875 73.439 198.758 73.439 198.598V194.678C73.439 194.518 73.4177 194.406 73.375 194.342C73.343 194.267 73.279 194.219 73.183 194.198C73.0443 194.155 72.9057 194.134 72.767 194.134C72.639 194.123 72.4843 194.118 72.303 194.118C71.503 194.118 71.103 194.513 71.103 195.302V197.942C71.103 198.753 71.4977 199.158 72.287 199.158ZM80.0449 200.79C78.8395 200.79 77.9755 200.497 77.4529 199.91C76.9409 199.323 76.6849 198.443 76.6849 197.27V195.99C76.6849 194.87 76.9569 194.006 77.5009 193.398C78.0449 192.779 78.7809 192.47 79.7089 192.47C80.6155 192.47 81.3195 192.742 81.8209 193.286C82.3329 193.83 82.5889 194.571 82.5889 195.51V196.198C82.5889 196.454 82.5729 196.662 82.5409 196.822C82.5089 196.982 82.4449 197.105 82.3489 197.19C82.2635 197.275 82.1462 197.334 81.9969 197.366C81.8475 197.398 81.6609 197.414 81.4369 197.414H78.5249V197.894C78.5249 198.278 78.6209 198.587 78.8129 198.822C79.0155 199.046 79.3835 199.158 79.9169 199.158H81.8369C82.1569 199.158 82.3169 199.318 82.3169 199.638V199.814C82.3169 200.006 82.2795 200.166 82.2049 200.294C82.1409 200.411 82.0182 200.507 81.8369 200.582C81.6662 200.657 81.4315 200.71 81.1329 200.742C80.8449 200.774 80.4822 200.79 80.0449 200.79ZM78.5249 196.038H80.4609C80.5995 196.038 80.6849 196.017 80.7169 195.974C80.7595 195.931 80.7809 195.83 80.7809 195.67V195.318C80.7809 194.913 80.6849 194.609 80.4929 194.406C80.3009 194.203 80.0342 194.102 79.6929 194.102C78.9142 194.102 78.5249 194.507 78.5249 195.318V196.038ZM78.6529 191.75C78.4822 191.75 78.3969 191.702 78.3969 191.606C78.3969 191.563 78.4235 191.478 78.4769 191.35L79.2929 189.51C79.3889 189.297 79.5062 189.163 79.6449 189.11C79.7835 189.057 79.9595 189.03 80.1729 189.03H81.2129C81.4582 189.03 81.5809 189.089 81.5809 189.206C81.5809 189.281 81.5329 189.382 81.4369 189.51L79.9969 191.35C79.9329 191.435 79.8742 191.505 79.8209 191.558C79.7782 191.611 79.7355 191.654 79.6929 191.686C79.6609 191.707 79.6182 191.723 79.5649 191.734C79.5115 191.745 79.4475 191.75 79.3729 191.75H78.6529ZM84.4224 200.63C84.1024 200.63 83.9424 200.47 83.9424 200.15V190.39C83.9424 190.07 84.1024 189.91 84.4224 189.91H85.2704C85.5904 189.91 85.7504 190.07 85.7504 190.39V200.15C85.7504 200.47 85.5904 200.63 85.2704 200.63H84.4224ZM87.9849 200.63C87.6649 200.63 87.5049 200.47 87.5049 200.15V193.11C87.5049 192.79 87.6649 192.63 87.9849 192.63H88.8329C89.1529 192.63 89.3129 192.79 89.3129 193.11V200.15C89.3129 200.47 89.1529 200.63 88.8329 200.63H87.9849ZM88.4169 191.91C87.7449 191.91 87.4089 191.574 87.4089 190.902C87.4089 190.241 87.7449 189.91 88.4169 189.91C89.0889 189.91 89.4249 190.241 89.4249 190.902C89.4249 191.574 89.0889 191.91 88.4169 191.91ZM93.5154 200.79C93.0887 200.79 92.6994 200.731 92.3474 200.614C91.9954 200.497 91.6967 200.342 91.4514 200.15C91.206 199.947 91.014 199.718 90.8754 199.462C90.7367 199.206 90.6674 198.939 90.6674 198.662C90.6674 198.342 90.8274 198.182 91.1474 198.182H91.9154C92.0754 198.182 92.1874 198.225 92.2514 198.31C92.326 198.385 92.3954 198.502 92.4594 198.662C92.5234 198.811 92.63 198.934 92.7794 199.03C92.9394 199.115 93.1634 199.158 93.4514 199.158C94.1447 199.158 94.4914 198.907 94.4914 198.406C94.4914 198.161 94.3954 197.969 94.2034 197.83C94.022 197.681 93.7874 197.553 93.4994 197.446C93.222 197.329 92.918 197.217 92.5874 197.11C92.2674 196.993 91.9634 196.849 91.6754 196.678C91.398 196.497 91.1634 196.267 90.9714 195.99C90.79 195.702 90.6994 195.334 90.6994 194.886C90.6994 194.555 90.7634 194.241 90.8914 193.942C91.0194 193.643 91.2007 193.387 91.4354 193.174C91.67 192.961 91.9527 192.79 92.2834 192.662C92.6247 192.534 92.998 192.47 93.4034 192.47C93.8514 192.47 94.2514 192.534 94.6034 192.662C94.9554 192.779 95.2487 192.945 95.4834 193.158C95.7287 193.371 95.9154 193.627 96.0434 193.926C96.1714 194.214 96.2354 194.529 96.2354 194.87C96.2354 195.19 96.0754 195.35 95.7554 195.35H94.9074C94.7474 195.35 94.63 195.313 94.5554 195.238C94.4914 195.153 94.4487 195.03 94.4274 194.87C94.3954 194.657 94.2994 194.475 94.1394 194.326C93.99 194.177 93.7447 194.102 93.4034 194.102C93.1154 194.102 92.8914 194.161 92.7314 194.278C92.5714 194.395 92.4914 194.571 92.4914 194.806C92.4914 195.041 92.582 195.227 92.7634 195.366C92.9554 195.505 93.19 195.633 93.4674 195.75C93.7554 195.857 94.0594 195.969 94.3794 196.086C94.71 196.203 95.014 196.358 95.2914 196.55C95.5794 196.731 95.814 196.966 95.9954 197.254C96.1874 197.542 96.2834 197.91 96.2834 198.358C96.2834 198.689 96.2194 199.003 96.0914 199.302C95.9634 199.59 95.7767 199.846 95.5314 200.07C95.2967 200.294 95.0087 200.47 94.6674 200.598C94.326 200.726 93.942 200.79 93.5154 200.79ZM100.686 200.79C99.4802 200.79 98.6162 200.497 98.0935 199.91C97.5815 199.323 97.3255 198.443 97.3255 197.27V195.99C97.3255 194.87 97.5975 194.006 98.1415 193.398C98.6855 192.779 99.4215 192.47 100.35 192.47C101.256 192.47 101.96 192.742 102.462 193.286C102.974 193.83 103.23 194.571 103.23 195.51V196.198C103.23 196.454 103.214 196.662 103.182 196.822C103.15 196.982 103.086 197.105 102.99 197.19C102.904 197.275 102.787 197.334 102.638 197.366C102.488 197.398 102.302 197.414 102.078 197.414H99.1655V197.894C99.1655 198.278 99.2615 198.587 99.4535 198.822C99.6562 199.046 100.024 199.158 100.558 199.158H102.478C102.798 199.158 102.958 199.318 102.958 199.638V199.814C102.958 200.006 102.92 200.166 102.846 200.294C102.782 200.411 102.659 200.507 102.478 200.582C102.307 200.657 102.072 200.71 101.774 200.742C101.486 200.774 101.123 200.79 100.686 200.79ZM99.1655 196.038H101.102C101.24 196.038 101.326 196.017 101.358 195.974C101.4 195.931 101.422 195.83 101.422 195.67V195.318C101.422 194.913 101.326 194.609 101.134 194.406C100.942 194.203 100.675 194.102 100.334 194.102C99.5548 194.102 99.1655 194.507 99.1655 195.318V196.038ZM99.2935 191.75C99.1228 191.75 99.0375 191.702 99.0375 191.606C99.0375 191.563 99.0642 191.478 99.1175 191.35L99.9335 189.51C100.03 189.297 100.147 189.163 100.286 189.11C100.424 189.057 100.6 189.03 100.814 189.03H101.854C102.099 189.03 102.222 189.089 102.222 189.206C102.222 189.281 102.174 189.382 102.078 189.51L100.638 191.35C100.574 191.435 100.515 191.505 100.462 191.558C100.419 191.611 100.376 191.654 100.334 191.686C100.302 191.707 100.259 191.723 100.206 191.734C100.152 191.745 100.088 191.75 100.014 191.75H99.2935ZM107.031 200.79C106.604 200.79 106.215 200.731 105.863 200.614C105.511 200.497 105.212 200.342 104.967 200.15C104.722 199.947 104.53 199.718 104.391 199.462C104.252 199.206 104.183 198.939 104.183 198.662C104.183 198.342 104.343 198.182 104.663 198.182H105.431C105.591 198.182 105.703 198.225 105.767 198.31C105.842 198.385 105.911 198.502 105.975 198.662C106.039 198.811 106.146 198.934 106.295 199.03C106.455 199.115 106.679 199.158 106.967 199.158C107.66 199.158 108.007 198.907 108.007 198.406C108.007 198.161 107.911 197.969 107.719 197.83C107.538 197.681 107.303 197.553 107.015 197.446C106.738 197.329 106.434 197.217 106.103 197.11C105.783 196.993 105.479 196.849 105.191 196.678C104.914 196.497 104.679 196.267 104.487 195.99C104.306 195.702 104.215 195.334 104.215 194.886C104.215 194.555 104.279 194.241 104.407 193.942C104.535 193.643 104.716 193.387 104.951 193.174C105.186 192.961 105.468 192.79 105.799 192.662C106.14 192.534 106.514 192.47 106.919 192.47C107.367 192.47 107.767 192.534 108.119 192.662C108.471 192.779 108.764 192.945 108.999 193.158C109.244 193.371 109.431 193.627 109.559 193.926C109.687 194.214 109.751 194.529 109.751 194.87C109.751 195.19 109.591 195.35 109.271 195.35H108.423C108.263 195.35 108.146 195.313 108.071 195.238C108.007 195.153 107.964 195.03 107.943 194.87C107.911 194.657 107.815 194.475 107.655 194.326C107.506 194.177 107.26 194.102 106.919 194.102C106.631 194.102 106.407 194.161 106.247 194.278C106.087 194.395 106.007 194.571 106.007 194.806C106.007 195.041 106.098 195.227 106.279 195.366C106.471 195.505 106.706 195.633 106.983 195.75C107.271 195.857 107.575 195.969 107.895 196.086C108.226 196.203 108.53 196.358 108.807 196.55C109.095 196.731 109.33 196.966 109.511 197.254C109.703 197.542 109.799 197.91 109.799 198.358C109.799 198.689 109.735 199.003 109.607 199.302C109.479 199.59 109.292 199.846 109.047 200.07C108.812 200.294 108.524 200.47 108.183 200.598C107.842 200.726 107.458 200.79 107.031 200.79Z" fill="#212121"/>
<rect x="29.209" y="29.6282" width="114.528" height="107.37" rx="7" fill="white"/>
<path d="M67.8659 87.499C67.8659 88.043 67.9453 88.485 68.1039 88.825C68.2853 89.165 68.5119 89.437 68.7839 89.641C69.0559 89.845 69.3506 89.9923 69.6679 90.083C69.9853 90.151 70.2913 90.185 70.5859 90.185C71.4473 90.185 72.1386 89.947 72.6599 89.471C73.1813 88.995 73.4419 88.247 73.4419 87.227V86.037C73.4419 85.2437 73.2153 84.5977 72.7619 84.099C72.3313 83.5777 71.7646 83.317 71.0619 83.317H68.8519C68.1719 83.317 67.8319 82.977 67.8319 82.297V80.869C67.8319 80.189 68.1719 79.849 68.8519 79.849H71.0619C71.6513 79.849 72.1386 79.6563 72.5239 79.271C72.9093 78.8857 73.1019 78.3983 73.1019 77.809V76.687C73.1019 75.667 72.8753 74.9077 72.4219 74.409C71.9686 73.9103 71.3566 73.661 70.5859 73.661C70.3139 73.661 70.0193 73.7063 69.7019 73.797C69.4073 73.865 69.1353 74.001 68.8859 74.205C68.6366 74.409 68.4326 74.681 68.2739 75.021C68.1153 75.361 68.0359 75.803 68.0359 76.347C68.0359 76.755 67.9339 77.0383 67.7299 77.197C67.5486 77.333 67.3106 77.401 67.0159 77.401H65.4179C65.0326 77.401 64.7153 77.299 64.4659 77.095C64.2393 76.8683 64.1259 76.5283 64.1259 76.075C64.1259 75.191 64.2846 74.3863 64.6019 73.661C64.9193 72.9357 65.3613 72.3237 65.9279 71.825C66.4946 71.3037 67.1746 70.907 67.9679 70.635C68.7613 70.3403 69.6339 70.193 70.5859 70.193C71.6739 70.193 72.6259 70.363 73.4419 70.703C74.2579 71.0203 74.9379 71.485 75.4819 72.097C76.0486 72.6863 76.4679 73.389 76.7399 74.205C77.0346 75.021 77.1819 75.905 77.1819 76.857V77.299C77.1819 78.4323 76.9779 79.3617 76.5699 80.087C76.1619 80.8123 75.6633 81.3677 75.0739 81.753C75.8673 82.0703 76.4679 82.671 76.8759 83.555C77.3066 84.439 77.5219 85.4363 77.5219 86.547V87.057C77.5219 88.009 77.3746 88.893 77.0799 89.709C76.7853 90.525 76.3433 91.2277 75.7539 91.817C75.1873 92.3837 74.4619 92.837 73.5779 93.177C72.7166 93.4943 71.7193 93.653 70.5859 93.653C69.6113 93.653 68.7159 93.517 67.8999 93.245C67.0839 92.9503 66.3813 92.5537 65.7919 92.055C65.2253 91.5337 64.7719 90.9103 64.4319 90.185C64.1146 89.4597 63.9559 88.655 63.9559 87.771V87.261C63.9559 86.8077 64.0693 86.479 64.2959 86.275C64.5453 86.0483 64.8626 85.935 65.2479 85.935H66.8459C67.1179 85.935 67.3559 86.0143 67.5599 86.173C67.7639 86.309 67.8659 86.581 67.8659 86.989V87.499ZM87.7007 90.185C88.5394 90.185 89.2874 89.8903 89.9447 89.301C90.602 88.7117 90.9307 87.8163 90.9307 86.615V77.265C90.9307 76.1543 90.6247 75.2817 90.0127 74.647C89.4234 73.9897 88.698 73.661 87.8367 73.661C86.9527 73.661 86.1934 73.967 85.5587 74.579C84.924 75.191 84.6067 76.075 84.6067 77.231V86.581C84.6067 87.737 84.9014 88.6323 85.4907 89.267C86.1027 89.879 86.8394 90.185 87.7007 90.185ZM87.6327 93.653C86.25 93.653 85.1054 93.4263 84.1987 92.973C83.292 92.497 82.5667 91.8397 82.0227 91.001C81.5014 90.1623 81.1274 89.165 80.9007 88.009C80.6967 86.8303 80.5947 85.5383 80.5947 84.133V79.713C80.5947 76.313 81.184 73.8763 82.3627 72.403C83.564 70.9297 85.4114 70.193 87.9047 70.193C90.33 70.193 92.1094 70.9523 93.2427 72.471C94.376 73.9897 94.9427 76.415 94.9427 79.747V84.133C94.9427 85.901 94.7954 87.397 94.5007 88.621C94.206 89.8223 93.7527 90.797 93.1407 91.545C92.5514 92.293 91.792 92.837 90.8627 93.177C89.956 93.4943 88.8794 93.653 87.6327 93.653ZM106.923 87.873C106.75 87.873 106.596 87.933 106.463 88.053C106.33 88.173 106.263 88.353 106.263 88.593V91.233C106.263 91.4597 106.316 91.6397 106.423 91.773C106.543 91.893 106.69 91.953 106.863 91.953C107.063 91.953 107.23 91.893 107.363 91.773C107.51 91.6397 107.583 91.4597 107.583 91.233V88.613C107.583 88.3863 107.516 88.2063 107.383 88.073C107.263 87.9397 107.11 87.873 106.923 87.873ZM106.943 86.333C107.436 86.333 107.843 86.4063 108.163 86.553C108.483 86.6997 108.736 86.9063 108.923 87.173C109.11 87.4263 109.243 87.733 109.323 88.093C109.403 88.453 109.443 88.853 109.443 89.293V90.533C109.443 91.5997 109.23 92.3663 108.803 92.833C108.376 93.2863 107.723 93.513 106.843 93.513C106.003 93.513 105.383 93.273 104.983 92.793C104.583 92.313 104.383 91.553 104.383 90.513V89.293C104.383 88.1997 104.59 87.433 105.003 86.993C105.43 86.553 106.076 86.333 106.943 86.333ZM99.8831 85.353C100.056 85.353 100.21 85.293 100.343 85.173C100.476 85.053 100.543 84.873 100.543 84.633V81.993C100.543 81.7663 100.483 81.593 100.363 81.473C100.256 81.3397 100.116 81.273 99.9431 81.273C99.7431 81.273 99.5698 81.3397 99.4231 81.473C99.2898 81.593 99.2231 81.7663 99.2231 81.993V84.613C99.2231 84.8397 99.2831 85.0197 99.4031 85.153C99.5365 85.2863 99.6965 85.353 99.8831 85.353ZM99.8631 86.893C99.3698 86.893 98.9631 86.8263 98.6431 86.693C98.3231 86.5463 98.0631 86.3463 97.8631 86.093C97.6765 85.8263 97.5431 85.513 97.4631 85.153C97.3965 84.7797 97.3631 84.373 97.3631 83.933V82.693C97.3631 81.6263 97.5765 80.8663 98.0031 80.413C98.4298 79.9463 99.0831 79.713 99.9631 79.713C100.803 79.713 101.423 79.953 101.823 80.433C102.223 80.913 102.423 81.673 102.423 82.713V83.933C102.423 84.4797 102.37 84.9463 102.263 85.333C102.156 85.7063 101.996 86.013 101.783 86.253C101.583 86.4797 101.323 86.6463 101.003 86.753C100.683 86.8463 100.303 86.893 99.8631 86.893ZM105.343 80.333C105.41 80.173 105.483 80.0663 105.563 80.013C105.643 79.9463 105.77 79.913 105.943 79.913H106.703C107.01 79.913 107.163 80.033 107.163 80.273C107.163 80.393 107.136 80.5063 107.083 80.613L101.463 92.893C101.383 93.053 101.303 93.1663 101.223 93.233C101.143 93.2863 101.023 93.313 100.863 93.313H100.103C99.7831 93.313 99.6231 93.193 99.6231 92.953C99.6231 92.8597 99.6565 92.7463 99.7231 92.613L105.343 80.333Z" fill="#AF0929"/>
<rect x="29.709" y="30.1282" width="113.528" height="106.37" rx="6.5" stroke="#4D4D4D" stroke-opacity="0.3"/>
</svg>
