<svg width="805" height="131" viewBox="0 0 805 131" fill="none" xmlns="http://www.w3.org/2000/svg">
<path d="M93.0291 4.28C93.2744 4.28 93.3971 4.39733 93.3971 4.632V5.048C93.3971 5.28267 93.2744 5.4 93.0291 5.4H89.0291V8.936H92.3571C92.6024 8.936 92.7251 9.05333 92.7251 9.288V9.704C92.7251 9.93867 92.6024 10.056 92.3571 10.056H89.0291V14.648C89.0291 14.8827 88.9117 15 88.6771 15H88.1811C87.9464 15 87.8291 14.8827 87.8291 14.648V4.648C87.8291 4.40267 87.9571 4.28 88.2131 4.28H93.0291ZM95.3433 5.704C94.8526 5.704 94.6073 5.464 94.6073 4.984C94.6073 4.51467 94.8526 4.28 95.3433 4.28C95.8233 4.28 96.0633 4.51467 96.0633 4.984C96.0633 5.464 95.8233 5.704 95.3433 5.704ZM94.7353 7.368C94.7353 7.12267 94.8526 7 95.0873 7H95.5833C95.818 7 95.9353 7.12267 95.9353 7.368V14.648C95.9353 14.8827 95.818 15 95.5833 15H95.0873C94.8526 15 94.7353 14.8827 94.7353 14.648V7.368ZM97.6966 10.2C97.6966 9.06933 97.9419 8.22667 98.4326 7.672C98.9232 7.11733 99.6006 6.84 100.465 6.84C101.265 6.84 101.905 7.064 102.385 7.512C102.865 7.94933 103.105 8.584 103.105 9.416C103.105 9.65067 102.987 9.768 102.753 9.768H102.257C102.022 9.768 101.905 9.65067 101.905 9.416C101.905 8.92533 101.771 8.56267 101.505 8.328C101.238 8.08267 100.891 7.96 100.465 7.96C99.4299 7.96 98.9126 8.568 98.9126 9.784V12.216C98.9126 13.432 99.4406 14.04 100.497 14.04C100.902 14.04 101.233 13.944 101.489 13.752C101.745 13.56 101.873 13.2453 101.873 12.808C101.873 12.5733 101.99 12.456 102.225 12.456H102.721C102.955 12.456 103.073 12.5733 103.073 12.808C103.073 13.1813 103.003 13.5173 102.865 13.816C102.737 14.104 102.555 14.3493 102.321 14.552C102.097 14.744 101.825 14.8933 101.505 15C101.195 15.1067 100.859 15.16 100.497 15.16C99.6326 15.16 98.9499 14.8827 98.4486 14.328C97.9472 13.7733 97.6966 12.9307 97.6966 11.8V10.2ZM105.982 7.144C106.441 6.94133 106.953 6.84 107.518 6.84C108.553 6.84 109.278 7.08533 109.694 7.576C110.121 8.06667 110.334 8.84 110.334 9.896V14.648C110.334 14.8827 110.217 15 109.982 15H109.486C109.252 15 109.134 14.8827 109.134 14.648V9.896C109.134 9.21333 109.012 8.72267 108.766 8.424C108.532 8.11467 108.1 7.96 107.47 7.96C107.246 7.96 107.038 7.976 106.846 8.008C106.654 8.02933 106.484 8.06667 106.334 8.12C106.206 8.17333 106.116 8.24267 106.062 8.328C106.009 8.40267 105.982 8.54667 105.982 8.76V14.648C105.982 14.8827 105.865 15 105.63 15H105.134C104.9 15 104.782 14.8827 104.782 14.648V4.648C104.782 4.40267 104.9 4.28 105.134 4.28H105.63C105.865 4.28 105.982 4.40267 105.982 4.648V7.144ZM114.921 15C113.982 15 113.262 14.728 112.761 14.184C112.26 13.6293 112.009 12.808 112.009 11.72V10.488C112.009 8.056 112.98 6.84 114.921 6.84C115.796 6.84 116.484 7.10133 116.985 7.624C117.486 8.14667 117.737 8.92533 117.737 9.96V10.424C117.737 10.8613 117.662 11.144 117.513 11.272C117.374 11.3893 117.092 11.448 116.665 11.448H113.225V12.04C113.225 12.648 113.364 13.1067 113.641 13.416C113.929 13.7253 114.393 13.88 115.033 13.88H117.097C117.321 13.88 117.433 13.9973 117.433 14.232V14.328C117.433 14.5733 117.31 14.7493 117.065 14.856C116.83 14.952 116.393 15 115.753 15H114.921ZM116.201 10.488C116.34 10.488 116.425 10.4667 116.457 10.424C116.5 10.3813 116.521 10.28 116.521 10.12V9.784C116.521 8.568 115.988 7.96 114.921 7.96C113.79 7.96 113.225 8.568 113.225 9.784V10.488H116.201ZM120.223 13.16C120.244 13.416 120.383 13.6293 120.639 13.8C120.895 13.96 121.252 14.04 121.711 14.04C122.703 14.04 123.199 13.6773 123.199 12.952C123.199 12.6427 123.097 12.392 122.895 12.2C122.692 12.008 122.436 11.848 122.127 11.72C121.817 11.5813 121.481 11.448 121.119 11.32C120.767 11.192 120.436 11.0373 120.127 10.856C119.817 10.664 119.561 10.4293 119.359 10.152C119.156 9.864 119.055 9.48533 119.055 9.016C119.055 8.70667 119.113 8.41867 119.231 8.152C119.359 7.88533 119.535 7.656 119.759 7.464C119.983 7.272 120.249 7.12267 120.559 7.016C120.879 6.89867 121.231 6.84 121.615 6.84C122.468 6.84 123.129 7.04267 123.599 7.448C124.079 7.84267 124.319 8.35467 124.319 8.984C124.319 9.21867 124.201 9.336 123.967 9.336H123.471C123.247 9.336 123.129 9.21867 123.119 8.984C123.097 8.68533 122.959 8.44 122.703 8.248C122.457 8.056 122.095 7.96 121.615 7.96C121.177 7.96 120.836 8.05067 120.591 8.232C120.356 8.40267 120.239 8.65867 120.239 9C120.239 9.30933 120.34 9.55467 120.543 9.736C120.745 9.91733 121.001 10.0773 121.311 10.216C121.62 10.3547 121.951 10.488 122.303 10.616C122.665 10.7333 123.001 10.888 123.311 11.08C123.62 11.2613 123.876 11.5013 124.079 11.8C124.281 12.088 124.383 12.4613 124.383 12.92C124.383 13.2293 124.319 13.5227 124.191 13.8C124.073 14.0667 123.897 14.3013 123.663 14.504C123.439 14.7067 123.161 14.8667 122.831 14.984C122.511 15.1013 122.148 15.16 121.743 15.16C121.327 15.16 120.953 15.1067 120.623 15C120.292 14.8933 120.004 14.7493 119.759 14.568C119.524 14.3867 119.343 14.1787 119.215 13.944C119.087 13.6987 119.023 13.4373 119.023 13.16C119.023 12.9253 119.14 12.808 119.375 12.808H119.871C120.095 12.808 120.212 12.9253 120.223 13.16ZM130.482 14.648C130.482 14.8827 130.365 15 130.13 15H129.634C129.4 15 129.282 14.8827 129.282 14.648V4.648C129.282 4.40267 129.4 4.28 129.634 4.28H130.13C130.365 4.28 130.482 4.40267 130.482 4.648V14.648ZM132.563 8.552C132.563 8.232 132.601 7.976 132.675 7.784C132.761 7.592 132.894 7.44267 133.075 7.336C133.353 7.16533 133.673 7.04267 134.035 6.968C134.409 6.88267 134.782 6.84 135.155 6.84C136.051 6.84 136.697 7.06933 137.091 7.528C137.39 7.31467 137.721 7.14933 138.083 7.032C138.457 6.904 138.835 6.84 139.219 6.84C140.169 6.84 140.841 7.10667 141.235 7.64C141.63 8.17333 141.827 8.92533 141.827 9.896V14.648C141.827 14.8827 141.71 15 141.475 15H140.979C140.745 15 140.627 14.8827 140.627 14.648V9.896C140.627 9.20267 140.526 8.70667 140.323 8.408C140.121 8.10933 139.747 7.96 139.203 7.96C138.99 7.96 138.793 7.976 138.611 8.008C138.441 8.02933 138.286 8.06667 138.147 8.12C138.009 8.17333 137.913 8.248 137.859 8.344C137.817 8.42933 137.795 8.58933 137.795 8.824V14.648C137.795 14.8827 137.678 15 137.443 15H136.947C136.713 15 136.595 14.8827 136.595 14.648V9.896C136.595 9.20267 136.494 8.70667 136.291 8.408C136.089 8.10933 135.715 7.96 135.171 7.96C134.958 7.96 134.761 7.976 134.579 8.008C134.409 8.02933 134.254 8.06667 134.115 8.12C133.977 8.17333 133.881 8.248 133.827 8.344C133.785 8.42933 133.763 8.58933 133.763 8.824V14.648C133.763 14.8827 133.646 15 133.411 15H132.915C132.681 15 132.563 14.8827 132.563 14.648V8.552ZM143.876 8.552C143.876 8.14667 143.94 7.83733 144.068 7.624C144.196 7.41067 144.393 7.25067 144.66 7.144C144.937 7.02667 145.247 6.94667 145.588 6.904C145.94 6.86133 146.287 6.84 146.628 6.84C147.567 6.84 148.287 7.11733 148.788 7.672C149.3 8.216 149.556 9.064 149.556 10.216V11.8C149.556 12.952 149.3 13.8 148.788 14.344C148.276 14.888 147.551 15.16 146.612 15.16C146.335 15.16 146.063 15.1387 145.796 15.096C145.54 15.0533 145.3 14.9893 145.076 14.904V17.416C145.076 17.6507 144.959 17.768 144.724 17.768H144.228C143.993 17.768 143.876 17.6507 143.876 17.416V8.552ZM146.628 14.04C147.247 14.04 147.684 13.8747 147.94 13.544C148.196 13.2133 148.324 12.7013 148.324 12.008V9.992C148.324 9.32 148.196 8.81333 147.94 8.472C147.684 8.13067 147.247 7.96 146.628 7.96C146.137 7.96 145.737 8.01867 145.428 8.136C145.279 8.18933 145.183 8.28533 145.14 8.424C145.097 8.552 145.076 8.77067 145.076 9.08V13.192C145.076 13.4267 145.103 13.5867 145.156 13.672C145.209 13.7573 145.3 13.8267 145.428 13.88C145.599 13.944 145.785 13.9867 145.988 14.008C146.191 14.0293 146.404 14.04 146.628 14.04ZM152.513 9.016C152.46 9.24 152.327 9.352 152.113 9.352H151.681C151.436 9.352 151.313 9.22933 151.313 8.984C151.313 8.68533 151.377 8.408 151.505 8.152C151.633 7.88533 151.815 7.656 152.049 7.464C152.284 7.272 152.567 7.12267 152.897 7.016C153.228 6.89867 153.596 6.84 154.001 6.84C154.513 6.84 154.94 6.92 155.281 7.08C155.633 7.22933 155.911 7.44267 156.113 7.72C156.316 7.99733 156.46 8.33333 156.545 8.728C156.631 9.12267 156.673 9.56533 156.673 10.056V13.464C156.673 13.8693 156.609 14.168 156.481 14.36C156.364 14.552 156.167 14.7067 155.889 14.824C155.324 15.048 154.689 15.16 153.985 15.16C153.047 15.16 152.327 14.9467 151.825 14.52C151.324 14.0827 151.073 13.4587 151.073 12.648C151.073 12.2213 151.148 11.8533 151.297 11.544C151.447 11.2347 151.649 10.984 151.905 10.792C152.172 10.5893 152.481 10.44 152.833 10.344C153.196 10.248 153.591 10.2 154.017 10.2C154.263 10.2 154.508 10.2213 154.753 10.264C155.009 10.296 155.249 10.3387 155.473 10.392V9.576C155.473 8.49867 154.983 7.96 154.001 7.96C153.564 7.96 153.217 8.05067 152.961 8.232C152.705 8.41333 152.556 8.67467 152.513 9.016ZM153.969 11.16C153.479 11.16 153.073 11.2667 152.753 11.48C152.444 11.6827 152.289 12.0507 152.289 12.584C152.289 13.128 152.433 13.5067 152.721 13.72C153.02 13.9333 153.447 14.04 154.001 14.04C154.183 14.04 154.375 14.0293 154.577 14.008C154.78 13.9867 154.961 13.944 155.121 13.88C155.249 13.8267 155.34 13.7573 155.393 13.672C155.447 13.5867 155.473 13.4267 155.473 13.192V11.352C155.249 11.2987 155.009 11.256 154.753 11.224C154.508 11.1813 154.247 11.16 153.969 11.16ZM158.275 10.2C158.275 9.06933 158.52 8.22667 159.011 7.672C159.501 7.11733 160.179 6.84 161.043 6.84C161.843 6.84 162.483 7.064 162.963 7.512C163.443 7.94933 163.683 8.584 163.683 9.416C163.683 9.65067 163.565 9.768 163.331 9.768H162.835C162.6 9.768 162.483 9.65067 162.483 9.416C162.483 8.92533 162.349 8.56267 162.083 8.328C161.816 8.08267 161.469 7.96 161.043 7.96C160.008 7.96 159.491 8.568 159.491 9.784V12.216C159.491 13.432 160.019 14.04 161.075 14.04C161.48 14.04 161.811 13.944 162.067 13.752C162.323 13.56 162.451 13.2453 162.451 12.808C162.451 12.5733 162.568 12.456 162.803 12.456H163.299C163.533 12.456 163.651 12.5733 163.651 12.808C163.651 13.1813 163.581 13.5173 163.443 13.816C163.315 14.104 163.133 14.3493 162.899 14.552C162.675 14.744 162.403 14.8933 162.083 15C161.773 15.1067 161.437 15.16 161.075 15.16C160.211 15.16 159.528 14.8827 159.027 14.328C158.525 13.7733 158.275 12.9307 158.275 11.8V10.2ZM164.992 8.04C164.747 8.04 164.624 7.92267 164.624 7.688V7.352C164.624 7.11733 164.747 7 164.992 7H165.728V5.768C165.728 5.52267 165.846 5.4 166.08 5.4H166.576C166.811 5.4 166.928 5.52267 166.928 5.768V7H168.288C168.534 7 168.656 7.11733 168.656 7.352V7.688C168.656 7.92267 168.534 8.04 168.288 8.04H166.928V13.208C166.928 13.5067 166.982 13.72 167.088 13.848C167.195 13.976 167.371 14.04 167.616 14.04H168.352C168.566 14.04 168.672 14.1627 168.672 14.408V14.504C168.672 14.7173 168.582 14.8827 168.4 15C168.219 15.1067 167.878 15.16 167.376 15.16C166.854 15.16 166.448 15 166.16 14.68C165.872 14.3493 165.728 13.8213 165.728 13.096V8.04H164.992ZM175.843 8.008C175.598 8.008 175.39 8.024 175.219 8.056C175.059 8.07733 174.91 8.11467 174.771 8.168C174.622 8.232 174.526 8.32267 174.483 8.44C174.451 8.55733 174.435 8.78667 174.435 9.128V14.648C174.435 14.8827 174.318 15 174.083 15H173.587C173.353 15 173.235 14.8827 173.235 14.648V8.552C173.235 8.17867 173.31 7.88 173.459 7.656C173.619 7.432 173.822 7.26133 174.067 7.144C174.323 7.016 174.606 6.936 174.915 6.904C175.225 6.86133 175.534 6.84 175.843 6.84C176.195 6.84 176.435 6.872 176.563 6.936C176.702 7 176.771 7.13333 176.771 7.336V7.576C176.771 7.72533 176.739 7.83733 176.675 7.912C176.611 7.976 176.489 8.008 176.307 8.008H175.843ZM180.562 15C179.623 15 178.903 14.728 178.402 14.184C177.9 13.6293 177.65 12.808 177.65 11.72V10.488C177.65 8.056 178.62 6.84 180.562 6.84C181.436 6.84 182.124 7.10133 182.626 7.624C183.127 8.14667 183.378 8.92533 183.378 9.96V10.424C183.378 10.8613 183.303 11.144 183.154 11.272C183.015 11.3893 182.732 11.448 182.306 11.448H178.866V12.04C178.866 12.648 179.004 13.1067 179.282 13.416C179.57 13.7253 180.034 13.88 180.674 13.88H182.738C182.962 13.88 183.074 13.9973 183.074 14.232V14.328C183.074 14.5733 182.951 14.7493 182.706 14.856C182.471 14.952 182.034 15 181.394 15H180.562ZM181.842 10.488C181.98 10.488 182.066 10.4667 182.098 10.424C182.14 10.3813 182.162 10.28 182.162 10.12V9.784C182.162 8.568 181.628 7.96 180.562 7.96C179.431 7.96 178.866 8.568 178.866 9.784V10.488H181.842ZM179.858 6.12C179.687 6.12 179.602 6.072 179.602 5.976C179.602 5.93333 179.628 5.848 179.682 5.72L180.498 3.88C180.594 3.66667 180.711 3.53333 180.85 3.48C180.988 3.42667 181.164 3.4 181.378 3.4H181.938C182.183 3.4 182.306 3.45867 182.306 3.576C182.306 3.65067 182.258 3.752 182.162 3.88L180.722 5.72C180.658 5.80533 180.599 5.87467 180.546 5.928C180.503 5.98133 180.46 6.024 180.418 6.056C180.386 6.07733 180.343 6.09333 180.29 6.104C180.236 6.11467 180.172 6.12 180.098 6.12H179.858ZM186.107 9.016C186.054 9.24 185.921 9.352 185.707 9.352H185.275C185.03 9.352 184.907 9.22933 184.907 8.984C184.907 8.68533 184.971 8.408 185.099 8.152C185.227 7.88533 185.409 7.656 185.643 7.464C185.878 7.272 186.161 7.12267 186.491 7.016C186.822 6.89867 187.19 6.84 187.595 6.84C188.107 6.84 188.534 6.92 188.875 7.08C189.227 7.22933 189.505 7.44267 189.707 7.72C189.91 7.99733 190.054 8.33333 190.139 8.728C190.225 9.12267 190.267 9.56533 190.267 10.056V13.464C190.267 13.8693 190.203 14.168 190.075 14.36C189.958 14.552 189.761 14.7067 189.483 14.824C188.918 15.048 188.283 15.16 187.579 15.16C186.641 15.16 185.921 14.9467 185.419 14.52C184.918 14.0827 184.667 13.4587 184.667 12.648C184.667 12.2213 184.742 11.8533 184.891 11.544C185.041 11.2347 185.243 10.984 185.499 10.792C185.766 10.5893 186.075 10.44 186.427 10.344C186.79 10.248 187.185 10.2 187.611 10.2C187.857 10.2 188.102 10.2213 188.347 10.264C188.603 10.296 188.843 10.3387 189.067 10.392V9.576C189.067 8.49867 188.577 7.96 187.595 7.96C187.158 7.96 186.811 8.05067 186.555 8.232C186.299 8.41333 186.15 8.67467 186.107 9.016ZM187.563 11.16C187.073 11.16 186.667 11.2667 186.347 11.48C186.038 11.6827 185.883 12.0507 185.883 12.584C185.883 13.128 186.027 13.5067 186.315 13.72C186.614 13.9333 187.041 14.04 187.595 14.04C187.777 14.04 187.969 14.0293 188.171 14.008C188.374 13.9867 188.555 13.944 188.715 13.88C188.843 13.8267 188.934 13.7573 188.987 13.672C189.041 13.5867 189.067 13.4267 189.067 13.192V11.352C188.843 11.2987 188.603 11.256 188.347 11.224C188.102 11.1813 187.841 11.16 187.563 11.16ZM193.388 14.648C193.388 14.8827 193.271 15 193.036 15H192.54C192.306 15 192.188 14.8827 192.188 14.648V4.648C192.188 4.40267 192.306 4.28 192.54 4.28H193.036C193.271 4.28 193.388 4.40267 193.388 4.648V14.648ZM196.078 5.704C195.587 5.704 195.342 5.464 195.342 4.984C195.342 4.51467 195.587 4.28 196.078 4.28C196.558 4.28 196.798 4.51467 196.798 4.984C196.798 5.464 196.558 5.704 196.078 5.704ZM195.47 7.368C195.47 7.12267 195.587 7 195.822 7H196.318C196.552 7 196.67 7.12267 196.67 7.368V14.648C196.67 14.8827 196.552 15 196.318 15H195.822C195.587 15 195.47 14.8827 195.47 14.648V7.368ZM199.551 13.16C199.572 13.416 199.711 13.6293 199.967 13.8C200.223 13.96 200.58 14.04 201.039 14.04C202.031 14.04 202.527 13.6773 202.527 12.952C202.527 12.6427 202.426 12.392 202.223 12.2C202.02 12.008 201.764 11.848 201.455 11.72C201.146 11.5813 200.81 11.448 200.447 11.32C200.095 11.192 199.764 11.0373 199.455 10.856C199.146 10.664 198.89 10.4293 198.687 10.152C198.484 9.864 198.383 9.48533 198.383 9.016C198.383 8.70667 198.442 8.41867 198.559 8.152C198.687 7.88533 198.863 7.656 199.087 7.464C199.311 7.272 199.578 7.12267 199.887 7.016C200.207 6.89867 200.559 6.84 200.943 6.84C201.796 6.84 202.458 7.04267 202.927 7.448C203.407 7.84267 203.647 8.35467 203.647 8.984C203.647 9.21867 203.53 9.336 203.295 9.336H202.799C202.575 9.336 202.458 9.21867 202.447 8.984C202.426 8.68533 202.287 8.44 202.031 8.248C201.786 8.056 201.423 7.96 200.943 7.96C200.506 7.96 200.164 8.05067 199.919 8.232C199.684 8.40267 199.567 8.65867 199.567 9C199.567 9.30933 199.668 9.55467 199.871 9.736C200.074 9.91733 200.33 10.0773 200.639 10.216C200.948 10.3547 201.279 10.488 201.631 10.616C201.994 10.7333 202.33 10.888 202.639 11.08C202.948 11.2613 203.204 11.5013 203.407 11.8C203.61 12.088 203.711 12.4613 203.711 12.92C203.711 13.2293 203.647 13.5227 203.519 13.8C203.402 14.0667 203.226 14.3013 202.991 14.504C202.767 14.7067 202.49 14.8667 202.159 14.984C201.839 15.1013 201.476 15.16 201.071 15.16C200.655 15.16 200.282 15.1067 199.951 15C199.62 14.8933 199.332 14.7493 199.087 14.568C198.852 14.3867 198.671 14.1787 198.543 13.944C198.415 13.6987 198.351 13.4373 198.351 13.16C198.351 12.9253 198.468 12.808 198.703 12.808H199.199C199.423 12.808 199.54 12.9253 199.551 13.16ZM207.999 15C207.061 15 206.341 14.728 205.839 14.184C205.338 13.6293 205.087 12.808 205.087 11.72V10.488C205.087 8.056 206.058 6.84 207.999 6.84C208.874 6.84 209.562 7.10133 210.063 7.624C210.565 8.14667 210.815 8.92533 210.815 9.96V10.424C210.815 10.8613 210.741 11.144 210.591 11.272C210.453 11.3893 210.17 11.448 209.743 11.448H206.303V12.04C206.303 12.648 206.442 13.1067 206.719 13.416C207.007 13.7253 207.471 13.88 208.111 13.88H210.175C210.399 13.88 210.511 13.9973 210.511 14.232V14.328C210.511 14.5733 210.389 14.7493 210.143 14.856C209.909 14.952 209.471 15 208.831 15H207.999ZM209.279 10.488C209.418 10.488 209.503 10.4667 209.535 10.424C209.578 10.3813 209.599 10.28 209.599 10.12V9.784C209.599 8.568 209.066 7.96 207.999 7.96C206.869 7.96 206.303 8.568 206.303 9.784V10.488H209.279ZM207.295 6.12C207.125 6.12 207.039 6.072 207.039 5.976C207.039 5.93333 207.066 5.848 207.119 5.72L207.935 3.88C208.031 3.66667 208.149 3.53333 208.287 3.48C208.426 3.42667 208.602 3.4 208.815 3.4H209.375C209.621 3.4 209.743 3.45867 209.743 3.576C209.743 3.65067 209.695 3.752 209.599 3.88L208.159 5.72C208.095 5.80533 208.037 5.87467 207.983 5.928C207.941 5.98133 207.898 6.024 207.855 6.056C207.823 6.07733 207.781 6.09333 207.727 6.104C207.674 6.11467 207.61 6.12 207.535 6.12H207.295ZM215.093 15C214.154 15 213.434 14.728 212.933 14.184C212.432 13.6293 212.181 12.808 212.181 11.72V10.488C212.181 8.056 213.152 6.84 215.093 6.84C215.968 6.84 216.656 7.10133 217.157 7.624C217.658 8.14667 217.909 8.92533 217.909 9.96V10.424C217.909 10.8613 217.834 11.144 217.685 11.272C217.546 11.3893 217.264 11.448 216.837 11.448H213.397V12.04C213.397 12.648 213.536 13.1067 213.813 13.416C214.101 13.7253 214.565 13.88 215.205 13.88H217.269C217.493 13.88 217.605 13.9973 217.605 14.232V14.328C217.605 14.5733 217.482 14.7493 217.237 14.856C217.002 14.952 216.565 15 215.925 15H215.093ZM216.373 10.488C216.512 10.488 216.597 10.4667 216.629 10.424C216.672 10.3813 216.693 10.28 216.693 10.12V9.784C216.693 8.568 216.16 7.96 215.093 7.96C213.962 7.96 213.397 8.568 213.397 9.784V10.488H216.373ZM220.395 13.16C220.416 13.416 220.555 13.6293 220.811 13.8C221.067 13.96 221.424 14.04 221.883 14.04C222.875 14.04 223.371 13.6773 223.371 12.952C223.371 12.6427 223.269 12.392 223.067 12.2C222.864 12.008 222.608 11.848 222.299 11.72C221.989 11.5813 221.653 11.448 221.291 11.32C220.939 11.192 220.608 11.0373 220.299 10.856C219.989 10.664 219.733 10.4293 219.531 10.152C219.328 9.864 219.227 9.48533 219.227 9.016C219.227 8.70667 219.285 8.41867 219.403 8.152C219.531 7.88533 219.707 7.656 219.931 7.464C220.155 7.272 220.421 7.12267 220.731 7.016C221.051 6.89867 221.403 6.84 221.787 6.84C222.64 6.84 223.301 7.04267 223.771 7.448C224.251 7.84267 224.491 8.35467 224.491 8.984C224.491 9.21867 224.373 9.336 224.139 9.336H223.643C223.419 9.336 223.301 9.21867 223.291 8.984C223.269 8.68533 223.131 8.44 222.875 8.248C222.629 8.056 222.267 7.96 221.787 7.96C221.349 7.96 221.008 8.05067 220.763 8.232C220.528 8.40267 220.411 8.65867 220.411 9C220.411 9.30933 220.512 9.55467 220.715 9.736C220.917 9.91733 221.173 10.0773 221.483 10.216C221.792 10.3547 222.123 10.488 222.475 10.616C222.837 10.7333 223.173 10.888 223.483 11.08C223.792 11.2613 224.048 11.5013 224.251 11.8C224.453 12.088 224.555 12.4613 224.555 12.92C224.555 13.2293 224.491 13.5227 224.363 13.8C224.245 14.0667 224.069 14.3013 223.835 14.504C223.611 14.7067 223.333 14.8667 223.003 14.984C222.683 15.1013 222.32 15.16 221.915 15.16C221.499 15.16 221.125 15.1067 220.795 15C220.464 14.8933 220.176 14.7493 219.931 14.568C219.696 14.3867 219.515 14.1787 219.387 13.944C219.259 13.6987 219.195 13.4373 219.195 13.16C219.195 12.9253 219.312 12.808 219.547 12.808H220.043C220.267 12.808 220.384 12.9253 220.395 13.16Z" fill="#212121"/>
<g clip-path="url(#clip0_892_3716)">
<mask id="path-2-inside-1_892_3716" fill="white">
<path d="M215.5 99C215.5 82.2914 208.863 66.2671 197.048 54.4523C185.233 42.6375 169.209 36 152.5 36C135.791 36 119.767 42.6375 107.952 54.4523C96.1375 66.2671 89.5 82.2913 89.5 99L108.687 99C108.687 87.3801 113.303 76.2361 121.52 68.0196C129.736 59.8031 140.88 55.1871 152.5 55.1871C164.12 55.1871 175.264 59.8031 183.48 68.0196C191.697 76.2361 196.313 87.3801 196.313 99H215.5Z"/>
</mask>
<path d="M215.5 99C215.5 82.2914 208.863 66.2671 197.048 54.4523C185.233 42.6375 169.209 36 152.5 36C135.791 36 119.767 42.6375 107.952 54.4523C96.1375 66.2671 89.5 82.2913 89.5 99L108.687 99C108.687 87.3801 113.303 76.2361 121.52 68.0196C129.736 59.8031 140.88 55.1871 152.5 55.1871C164.12 55.1871 175.264 59.8031 183.48 68.0196C191.697 76.2361 196.313 87.3801 196.313 99H215.5Z" fill="#4D4D4D" fill-opacity="0.3" stroke="#4D4D4D" stroke-opacity="0.3" stroke-width="2" mask="url(#path-2-inside-1_892_3716)"/>
<path d="M206.638 66.7803C199.593 54.9426 188.862 45.7402 176.088 40.5825C163.314 35.4247 149.202 34.5959 135.913 38.2228C122.623 41.8498 110.889 49.7327 102.506 60.6643C94.1238 71.596 89.5553 84.9738 89.5005 98.7493L108.687 98.8256C108.726 89.2456 111.903 79.9421 117.732 72.3397C123.562 64.7374 131.722 59.2553 140.965 56.7329C150.207 54.2106 160.021 54.787 168.904 58.3739C177.787 61.9609 185.25 68.3606 190.15 76.5931L206.638 66.7803Z" fill="#AF0929"/>
<path d="M141.568 95C141.488 95 141.374 94.9667 141.228 94.9C141.094 94.8333 141.028 94.7067 141.028 94.52C141.028 94.4533 141.048 94.3667 141.088 94.26L145.568 83.64H140.948C140.548 83.64 140.348 83.44 140.348 83.04V82.2C140.348 81.8 140.548 81.6 140.948 81.6H147.588C147.988 81.6 148.188 81.8 148.188 82.2V82.66C148.188 82.8467 148.154 83.0067 148.088 83.14C148.034 83.2733 147.974 83.4267 147.908 83.6L143.328 94.56C143.248 94.7467 143.161 94.8667 143.068 94.92C142.988 94.9733 142.814 95 142.548 95H141.568ZM157.475 91.52C157.475 92.0533 157.389 92.5467 157.215 93C157.055 93.4533 156.809 93.8467 156.475 94.18C156.142 94.5 155.722 94.7533 155.215 94.94C154.722 95.1133 154.149 95.2 153.495 95.2C152.922 95.2 152.395 95.12 151.915 94.96C151.435 94.7867 151.022 94.5533 150.675 94.26C150.342 93.9533 150.075 93.5867 149.875 93.16C149.689 92.7333 149.595 92.26 149.595 91.74V91.44C149.595 91.1733 149.662 90.98 149.795 90.86C149.942 90.7267 150.129 90.66 150.355 90.66H151.295C151.455 90.66 151.595 90.7067 151.715 90.8C151.835 90.88 151.895 91.04 151.895 91.28V91.58C151.895 91.9 151.942 92.16 152.035 92.36C152.142 92.56 152.275 92.72 152.435 92.84C152.595 92.96 152.769 93.0467 152.955 93.1C153.142 93.14 153.322 93.16 153.495 93.16C153.975 93.16 154.355 93.02 154.635 92.74C154.929 92.46 155.075 92.02 155.075 91.42V89.82C155.075 89.5267 155.029 89.28 154.935 89.08C154.842 88.88 154.715 88.72 154.555 88.6C154.409 88.4667 154.229 88.3733 154.015 88.32C153.815 88.2667 153.602 88.24 153.375 88.24C153.109 88.24 152.855 88.2733 152.615 88.34C152.389 88.4067 152.189 88.5267 152.015 88.7C151.909 88.8067 151.735 88.86 151.495 88.86H150.555C150.155 88.86 149.955 88.66 149.955 88.26V82.2C149.955 81.8 150.155 81.6 150.555 81.6H156.335C156.735 81.6 156.935 81.8 156.935 82.2V83.04C156.935 83.44 156.735 83.64 156.335 83.64H152.215V86.54C152.402 86.4467 152.622 86.3667 152.875 86.3C153.142 86.2333 153.449 86.2 153.795 86.2C154.315 86.2 154.795 86.28 155.235 86.44C155.689 86.6 156.075 86.84 156.395 87.16C156.729 87.4667 156.989 87.8533 157.175 88.32C157.375 88.7867 157.475 89.32 157.475 89.92V91.52ZM168.726 89.56C168.552 89.56 168.399 89.62 168.266 89.74C168.132 89.86 168.066 90.04 168.066 90.28V92.92C168.066 93.1467 168.119 93.3267 168.226 93.46C168.346 93.58 168.492 93.64 168.666 93.64C168.866 93.64 169.032 93.58 169.166 93.46C169.312 93.3267 169.386 93.1467 169.386 92.92V90.3C169.386 90.0733 169.319 89.8933 169.186 89.76C169.066 89.6267 168.912 89.56 168.726 89.56ZM168.746 88.02C169.239 88.02 169.646 88.0933 169.966 88.24C170.286 88.3867 170.539 88.5933 170.726 88.86C170.912 89.1133 171.046 89.42 171.126 89.78C171.206 90.14 171.246 90.54 171.246 90.98V92.22C171.246 93.2867 171.032 94.0533 170.606 94.52C170.179 94.9733 169.526 95.2 168.646 95.2C167.806 95.2 167.186 94.96 166.786 94.48C166.386 94 166.186 93.24 166.186 92.2V90.98C166.186 89.8867 166.392 89.12 166.806 88.68C167.232 88.24 167.879 88.02 168.746 88.02ZM161.686 87.04C161.859 87.04 162.012 86.98 162.146 86.86C162.279 86.74 162.346 86.56 162.346 86.32V83.68C162.346 83.4533 162.286 83.28 162.166 83.16C162.059 83.0267 161.919 82.96 161.746 82.96C161.546 82.96 161.372 83.0267 161.226 83.16C161.092 83.28 161.026 83.4533 161.026 83.68V86.3C161.026 86.5267 161.086 86.7067 161.206 86.84C161.339 86.9733 161.499 87.04 161.686 87.04ZM161.666 88.58C161.172 88.58 160.766 88.5133 160.446 88.38C160.126 88.2333 159.866 88.0333 159.666 87.78C159.479 87.5133 159.346 87.2 159.266 86.84C159.199 86.4667 159.166 86.06 159.166 85.62V84.38C159.166 83.3133 159.379 82.5533 159.806 82.1C160.232 81.6333 160.886 81.4 161.766 81.4C162.606 81.4 163.226 81.64 163.626 82.12C164.026 82.6 164.226 83.36 164.226 84.4V85.62C164.226 86.1667 164.172 86.6333 164.066 87.02C163.959 87.3933 163.799 87.7 163.586 87.94C163.386 88.1667 163.126 88.3333 162.806 88.44C162.486 88.5333 162.106 88.58 161.666 88.58ZM167.146 82.02C167.212 81.86 167.286 81.7533 167.366 81.7C167.446 81.6333 167.572 81.6 167.746 81.6H168.506C168.812 81.6 168.966 81.72 168.966 81.96C168.966 82.08 168.939 82.1933 168.886 82.3L163.266 94.58C163.186 94.74 163.106 94.8533 163.026 94.92C162.946 94.9733 162.826 95 162.666 95H161.906C161.586 95 161.426 94.88 161.426 94.64C161.426 94.5467 161.459 94.4333 161.526 94.3L167.146 82.02Z" fill="#212121"/>
<path d="M97.9788 113.04C98.6828 113.04 99.1895 112.816 99.4988 112.368C99.8188 111.909 99.9788 111.2 99.9788 110.24V107.056C99.9788 106.149 99.8241 105.456 99.5148 104.976C99.2161 104.485 98.7148 104.24 98.0108 104.24C97.3068 104.24 96.8001 104.475 96.4908 104.944C96.1815 105.403 96.0268 106.101 96.0268 107.04V110.24C96.0268 111.179 96.1761 111.883 96.4748 112.352C96.7735 112.811 97.2748 113.04 97.9788 113.04ZM98.0268 103.12C99.0935 103.12 99.8935 103.451 100.427 104.112C100.971 104.773 101.243 105.84 101.243 107.312V109.984C101.243 110.741 101.168 111.387 101.019 111.92C100.88 112.443 100.672 112.875 100.395 113.216C100.117 113.547 99.7708 113.787 99.3548 113.936C98.9495 114.085 98.4855 114.16 97.9628 114.16C96.8428 114.16 96.0268 113.803 95.5148 113.088C95.0135 112.363 94.7628 111.328 94.7628 109.984V107.312C94.7628 105.829 95.0401 104.763 95.5948 104.112C96.1601 103.451 96.9708 103.12 98.0268 103.12Z" fill="#212121"/>
<path d="M199.961 114.16C199.523 114.16 199.113 114.107 198.729 114C198.345 113.893 198.009 113.723 197.721 113.488C197.433 113.243 197.203 112.923 197.033 112.528C196.862 112.133 196.777 111.648 196.777 111.072C196.777 110.72 196.814 110.4 196.889 110.112C196.974 109.824 197.081 109.573 197.209 109.36C197.337 109.136 197.481 108.955 197.641 108.816C197.801 108.667 197.966 108.549 198.137 108.464C197.827 108.304 197.561 108.027 197.337 107.632C197.113 107.237 197.001 106.747 197.001 106.16C197.001 105.595 197.081 105.12 197.241 104.736C197.411 104.341 197.63 104.027 197.897 103.792C198.174 103.547 198.489 103.376 198.841 103.28C199.203 103.173 199.577 103.12 199.961 103.12C200.345 103.12 200.713 103.173 201.065 103.28C201.427 103.376 201.742 103.547 202.009 103.792C202.286 104.027 202.505 104.341 202.665 104.736C202.835 105.12 202.921 105.595 202.921 106.16C202.921 106.736 202.809 107.221 202.585 107.616C202.361 108.011 202.094 108.293 201.785 108.464C201.955 108.549 202.121 108.667 202.281 108.816C202.451 108.955 202.601 109.136 202.729 109.36C202.857 109.573 202.958 109.824 203.033 110.112C203.118 110.4 203.161 110.72 203.161 111.072C203.161 111.648 203.075 112.133 202.905 112.528C202.734 112.923 202.505 113.243 202.217 113.488C201.929 113.723 201.587 113.893 201.193 114C200.809 114.107 200.398 114.16 199.961 114.16ZM199.961 113.04C200.686 113.04 201.187 112.869 201.465 112.528C201.742 112.187 201.881 111.728 201.881 111.152V111.024C201.881 110.736 201.849 110.469 201.785 110.224C201.731 109.979 201.63 109.765 201.481 109.584C201.342 109.392 201.145 109.248 200.889 109.152C200.643 109.045 200.334 108.992 199.961 108.992C199.587 108.992 199.278 109.045 199.033 109.152C198.787 109.248 198.59 109.392 198.441 109.584C198.302 109.765 198.201 109.979 198.137 110.224C198.083 110.469 198.057 110.736 198.057 111.024V111.152C198.057 111.728 198.19 112.187 198.457 112.528C198.734 112.869 199.235 113.04 199.961 113.04ZM199.961 108.048C200.291 108.048 200.563 108 200.777 107.904C201.001 107.808 201.177 107.68 201.305 107.52C201.443 107.349 201.539 107.157 201.593 106.944C201.646 106.731 201.673 106.501 201.673 106.256V106.112C201.673 105.845 201.646 105.6 201.593 105.376C201.539 105.141 201.443 104.939 201.305 104.768C201.177 104.597 201.001 104.469 200.777 104.384C200.563 104.288 200.291 104.24 199.961 104.24C199.641 104.24 199.369 104.288 199.145 104.384C198.931 104.469 198.755 104.597 198.617 104.768C198.489 104.939 198.393 105.141 198.329 105.376C198.275 105.6 198.249 105.845 198.249 106.112V106.256C198.249 106.491 198.275 106.72 198.329 106.944C198.382 107.157 198.473 107.349 198.601 107.52C198.739 107.68 198.915 107.808 199.129 107.904C199.353 108 199.63 108.048 199.961 108.048ZM210.089 103.28C210.334 103.28 210.457 103.403 210.457 103.648V104.048C210.457 104.283 210.334 104.4 210.089 104.4H206.361V107.44C206.542 107.301 206.766 107.184 207.033 107.088C207.31 106.992 207.63 106.944 207.993 106.944C208.388 106.944 208.761 107.008 209.113 107.136C209.465 107.264 209.769 107.456 210.025 107.712C210.281 107.957 210.484 108.261 210.633 108.624C210.782 108.987 210.857 109.403 210.857 109.872V111.312C210.857 112.144 210.601 112.827 210.089 113.36C209.577 113.893 208.82 114.16 207.817 114.16C207.369 114.16 206.958 114.101 206.585 113.984C206.222 113.856 205.908 113.675 205.641 113.44C205.385 113.205 205.188 112.928 205.049 112.608C204.91 112.288 204.841 111.925 204.841 111.52V111.328C204.841 111.04 204.98 110.896 205.257 110.896H205.705C205.94 110.896 206.057 111.019 206.057 111.264V111.44C206.057 111.771 206.11 112.043 206.217 112.256C206.334 112.459 206.478 112.619 206.649 112.736C206.82 112.853 207.006 112.933 207.209 112.976C207.422 113.019 207.625 113.04 207.817 113.04C208.34 113.04 208.761 112.907 209.081 112.64C209.412 112.363 209.577 111.92 209.577 111.312V109.776C209.577 109.467 209.529 109.205 209.433 108.992C209.337 108.768 209.209 108.592 209.049 108.464C208.889 108.325 208.697 108.224 208.473 108.16C208.26 108.096 208.03 108.064 207.785 108.064C207.465 108.064 207.177 108.112 206.921 108.208C206.676 108.304 206.478 108.459 206.329 108.672C206.233 108.8 206.11 108.864 205.961 108.864H205.513C205.268 108.864 205.145 108.747 205.145 108.512V103.632C205.145 103.397 205.268 103.28 205.513 103.28H210.089ZM219.408 109.264C218.832 109.264 218.544 109.685 218.544 110.528V112.016C218.544 112.421 218.608 112.736 218.736 112.96C218.864 113.173 219.077 113.28 219.376 113.28C219.696 113.28 219.925 113.173 220.064 112.96C220.203 112.747 220.272 112.432 220.272 112.016V110.528C220.272 110.123 220.203 109.813 220.064 109.6C219.936 109.376 219.717 109.264 219.408 109.264ZM219.376 114.16C218.768 114.16 218.304 113.979 217.984 113.616C217.675 113.253 217.52 112.661 217.52 111.84V110.688C217.52 109.856 217.68 109.269 218 108.928C218.331 108.576 218.8 108.4 219.408 108.4C220.08 108.4 220.56 108.597 220.848 108.992C221.147 109.376 221.296 109.941 221.296 110.688V111.856C221.296 112.677 221.131 113.269 220.8 113.632C220.48 113.984 220.005 114.16 219.376 114.16ZM214.272 108.016C214.848 108.016 215.136 107.6 215.136 106.768V105.28C215.136 104.437 214.859 104.016 214.304 104.016C213.984 104.016 213.755 104.123 213.616 104.336C213.477 104.549 213.408 104.864 213.408 105.28V106.752C213.408 107.157 213.472 107.472 213.6 107.696C213.739 107.909 213.963 108.016 214.272 108.016ZM214.304 103.12C214.912 103.12 215.371 103.307 215.68 103.68C216 104.043 216.16 104.629 216.16 105.44V106.592C216.16 107.424 215.995 108.016 215.664 108.368C215.344 108.72 214.88 108.896 214.272 108.896C213.6 108.896 213.115 108.699 212.816 108.304C212.528 107.909 212.384 107.339 212.384 106.592V105.44C212.384 104.608 212.544 104.016 212.864 103.664C213.195 103.301 213.675 103.12 214.304 103.12ZM218.64 103.568C218.693 103.451 218.741 103.376 218.784 103.344C218.837 103.301 218.923 103.28 219.04 103.28H219.392C219.563 103.28 219.659 103.323 219.68 103.408C219.701 103.483 219.68 103.589 219.616 103.728L215.04 113.712C214.987 113.829 214.933 113.909 214.88 113.952C214.837 113.984 214.757 114 214.64 114H214.288C214.117 114 214.021 113.963 214 113.888C213.979 113.803 214 113.691 214.064 113.552L218.64 103.568Z" fill="#212121"/>
</g>
<path d="M311.982 4.28C312.228 4.28 312.35 4.39733 312.35 4.632V5.048C312.35 5.28267 312.228 5.4 311.982 5.4H307.982V8.936H311.31C311.556 8.936 311.678 9.05333 311.678 9.288V9.704C311.678 9.93867 311.556 10.056 311.31 10.056H307.982V14.648C307.982 14.8827 307.865 15 307.63 15H307.134C306.9 15 306.782 14.8827 306.782 14.648V4.648C306.782 4.40267 306.91 4.28 307.166 4.28H311.982ZM314.296 5.704C313.806 5.704 313.56 5.464 313.56 4.984C313.56 4.51467 313.806 4.28 314.296 4.28C314.776 4.28 315.016 4.51467 315.016 4.984C315.016 5.464 314.776 5.704 314.296 5.704ZM313.688 7.368C313.688 7.12267 313.806 7 314.04 7H314.536C314.771 7 314.888 7.12267 314.888 7.368V14.648C314.888 14.8827 314.771 15 314.536 15H314.04C313.806 15 313.688 14.8827 313.688 14.648V7.368ZM316.65 10.2C316.65 9.06933 316.895 8.22667 317.386 7.672C317.876 7.11733 318.554 6.84 319.418 6.84C320.218 6.84 320.858 7.064 321.338 7.512C321.818 7.94933 322.058 8.584 322.058 9.416C322.058 9.65067 321.94 9.768 321.706 9.768H321.21C320.975 9.768 320.858 9.65067 320.858 9.416C320.858 8.92533 320.724 8.56267 320.458 8.328C320.191 8.08267 319.844 7.96 319.418 7.96C318.383 7.96 317.866 8.568 317.866 9.784V12.216C317.866 13.432 318.394 14.04 319.45 14.04C319.855 14.04 320.186 13.944 320.442 13.752C320.698 13.56 320.826 13.2453 320.826 12.808C320.826 12.5733 320.943 12.456 321.178 12.456H321.674C321.908 12.456 322.026 12.5733 322.026 12.808C322.026 13.1813 321.956 13.5173 321.818 13.816C321.69 14.104 321.508 14.3493 321.274 14.552C321.05 14.744 320.778 14.8933 320.458 15C320.148 15.1067 319.812 15.16 319.45 15.16C318.586 15.16 317.903 14.8827 317.402 14.328C316.9 13.7733 316.65 12.9307 316.65 11.8V10.2ZM324.935 7.144C325.394 6.94133 325.906 6.84 326.471 6.84C327.506 6.84 328.231 7.08533 328.647 7.576C329.074 8.06667 329.287 8.84 329.287 9.896V14.648C329.287 14.8827 329.17 15 328.935 15H328.439C328.205 15 328.087 14.8827 328.087 14.648V9.896C328.087 9.21333 327.965 8.72267 327.719 8.424C327.485 8.11467 327.053 7.96 326.423 7.96C326.199 7.96 325.991 7.976 325.799 8.008C325.607 8.02933 325.437 8.06667 325.287 8.12C325.159 8.17333 325.069 8.24267 325.015 8.328C324.962 8.40267 324.935 8.54667 324.935 8.76V14.648C324.935 14.8827 324.818 15 324.583 15H324.087C323.853 15 323.735 14.8827 323.735 14.648V4.648C323.735 4.40267 323.853 4.28 324.087 4.28H324.583C324.818 4.28 324.935 4.40267 324.935 4.648V7.144ZM333.874 15C332.936 15 332.216 14.728 331.714 14.184C331.213 13.6293 330.962 12.808 330.962 11.72V10.488C330.962 8.056 331.933 6.84 333.874 6.84C334.749 6.84 335.437 7.10133 335.938 7.624C336.44 8.14667 336.69 8.92533 336.69 9.96V10.424C336.69 10.8613 336.616 11.144 336.466 11.272C336.328 11.3893 336.045 11.448 335.618 11.448H332.178V12.04C332.178 12.648 332.317 13.1067 332.594 13.416C332.882 13.7253 333.346 13.88 333.986 13.88H336.05C336.274 13.88 336.386 13.9973 336.386 14.232V14.328C336.386 14.5733 336.264 14.7493 336.018 14.856C335.784 14.952 335.346 15 334.706 15H333.874ZM335.154 10.488C335.293 10.488 335.378 10.4667 335.41 10.424C335.453 10.3813 335.474 10.28 335.474 10.12V9.784C335.474 8.568 334.941 7.96 333.874 7.96C332.744 7.96 332.178 8.568 332.178 9.784V10.488H335.154ZM339.176 13.16C339.197 13.416 339.336 13.6293 339.592 13.8C339.848 13.96 340.205 14.04 340.664 14.04C341.656 14.04 342.152 13.6773 342.152 12.952C342.152 12.6427 342.051 12.392 341.848 12.2C341.645 12.008 341.389 11.848 341.08 11.72C340.771 11.5813 340.435 11.448 340.072 11.32C339.72 11.192 339.389 11.0373 339.08 10.856C338.771 10.664 338.515 10.4293 338.312 10.152C338.109 9.864 338.008 9.48533 338.008 9.016C338.008 8.70667 338.067 8.41867 338.184 8.152C338.312 7.88533 338.488 7.656 338.712 7.464C338.936 7.272 339.203 7.12267 339.512 7.016C339.832 6.89867 340.184 6.84 340.568 6.84C341.421 6.84 342.083 7.04267 342.552 7.448C343.032 7.84267 343.272 8.35467 343.272 8.984C343.272 9.21867 343.155 9.336 342.92 9.336H342.424C342.2 9.336 342.083 9.21867 342.072 8.984C342.051 8.68533 341.912 8.44 341.656 8.248C341.411 8.056 341.048 7.96 340.568 7.96C340.131 7.96 339.789 8.05067 339.544 8.232C339.309 8.40267 339.192 8.65867 339.192 9C339.192 9.30933 339.293 9.55467 339.496 9.736C339.699 9.91733 339.955 10.0773 340.264 10.216C340.573 10.3547 340.904 10.488 341.256 10.616C341.619 10.7333 341.955 10.888 342.264 11.08C342.573 11.2613 342.829 11.5013 343.032 11.8C343.235 12.088 343.336 12.4613 343.336 12.92C343.336 13.2293 343.272 13.5227 343.144 13.8C343.027 14.0667 342.851 14.3013 342.616 14.504C342.392 14.7067 342.115 14.8667 341.784 14.984C341.464 15.1013 341.101 15.16 340.696 15.16C340.28 15.16 339.907 15.1067 339.576 15C339.245 14.8933 338.957 14.7493 338.712 14.568C338.477 14.3867 338.296 14.1787 338.168 13.944C338.04 13.6987 337.976 13.4373 337.976 13.16C337.976 12.9253 338.093 12.808 338.328 12.808H338.824C339.048 12.808 339.165 12.9253 339.176 13.16ZM349.435 14.648C349.435 14.8827 349.318 15 349.083 15H348.587C348.353 15 348.235 14.8827 348.235 14.648V4.648C348.235 4.40267 348.353 4.28 348.587 4.28H349.083C349.318 4.28 349.435 4.40267 349.435 4.648V14.648ZM351.517 8.552C351.517 8.232 351.554 7.976 351.629 7.784C351.714 7.592 351.847 7.44267 352.029 7.336C352.306 7.16533 352.626 7.04267 352.989 6.968C353.362 6.88267 353.735 6.84 354.109 6.84C355.005 6.84 355.65 7.06933 356.045 7.528C356.343 7.31467 356.674 7.14933 357.037 7.032C357.41 6.904 357.789 6.84 358.173 6.84C359.122 6.84 359.794 7.10667 360.189 7.64C360.583 8.17333 360.781 8.92533 360.781 9.896V14.648C360.781 14.8827 360.663 15 360.429 15H359.933C359.698 15 359.581 14.8827 359.581 14.648V9.896C359.581 9.20267 359.479 8.70667 359.277 8.408C359.074 8.10933 358.701 7.96 358.157 7.96C357.943 7.96 357.746 7.976 357.565 8.008C357.394 8.02933 357.239 8.06667 357.101 8.12C356.962 8.17333 356.866 8.248 356.813 8.344C356.77 8.42933 356.749 8.58933 356.749 8.824V14.648C356.749 14.8827 356.631 15 356.397 15H355.901C355.666 15 355.549 14.8827 355.549 14.648V9.896C355.549 9.20267 355.447 8.70667 355.245 8.408C355.042 8.10933 354.669 7.96 354.125 7.96C353.911 7.96 353.714 7.976 353.533 8.008C353.362 8.02933 353.207 8.06667 353.069 8.12C352.93 8.17333 352.834 8.248 352.781 8.344C352.738 8.42933 352.717 8.58933 352.717 8.824V14.648C352.717 14.8827 352.599 15 352.365 15H351.869C351.634 15 351.517 14.8827 351.517 14.648V8.552ZM362.829 8.552C362.829 8.14667 362.893 7.83733 363.021 7.624C363.149 7.41067 363.346 7.25067 363.613 7.144C363.89 7.02667 364.2 6.94667 364.541 6.904C364.893 6.86133 365.24 6.84 365.581 6.84C366.52 6.84 367.24 7.11733 367.741 7.672C368.253 8.216 368.509 9.064 368.509 10.216V11.8C368.509 12.952 368.253 13.8 367.741 14.344C367.229 14.888 366.504 15.16 365.565 15.16C365.288 15.16 365.016 15.1387 364.749 15.096C364.493 15.0533 364.253 14.9893 364.029 14.904V17.416C364.029 17.6507 363.912 17.768 363.677 17.768H363.181C362.946 17.768 362.829 17.6507 362.829 17.416V8.552ZM365.581 14.04C366.2 14.04 366.637 13.8747 366.893 13.544C367.149 13.2133 367.277 12.7013 367.277 12.008V9.992C367.277 9.32 367.149 8.81333 366.893 8.472C366.637 8.13067 366.2 7.96 365.581 7.96C365.09 7.96 364.69 8.01867 364.381 8.136C364.232 8.18933 364.136 8.28533 364.093 8.424C364.05 8.552 364.029 8.77067 364.029 9.08V13.192C364.029 13.4267 364.056 13.5867 364.109 13.672C364.162 13.7573 364.253 13.8267 364.381 13.88C364.552 13.944 364.738 13.9867 364.941 14.008C365.144 14.0293 365.357 14.04 365.581 14.04ZM371.467 9.016C371.413 9.24 371.28 9.352 371.067 9.352H370.635C370.389 9.352 370.267 9.22933 370.267 8.984C370.267 8.68533 370.331 8.408 370.459 8.152C370.587 7.88533 370.768 7.656 371.003 7.464C371.237 7.272 371.52 7.12267 371.851 7.016C372.181 6.89867 372.549 6.84 372.955 6.84C373.467 6.84 373.893 6.92 374.235 7.08C374.587 7.22933 374.864 7.44267 375.067 7.72C375.269 7.99733 375.413 8.33333 375.499 8.728C375.584 9.12267 375.627 9.56533 375.627 10.056V13.464C375.627 13.8693 375.563 14.168 375.435 14.36C375.317 14.552 375.12 14.7067 374.843 14.824C374.277 15.048 373.643 15.16 372.939 15.16C372 15.16 371.28 14.9467 370.779 14.52C370.277 14.0827 370.027 13.4587 370.027 12.648C370.027 12.2213 370.101 11.8533 370.251 11.544C370.4 11.2347 370.603 10.984 370.859 10.792C371.125 10.5893 371.435 10.44 371.787 10.344C372.149 10.248 372.544 10.2 372.971 10.2C373.216 10.2 373.461 10.2213 373.707 10.264C373.963 10.296 374.203 10.3387 374.427 10.392V9.576C374.427 8.49867 373.936 7.96 372.955 7.96C372.517 7.96 372.171 8.05067 371.915 8.232C371.659 8.41333 371.509 8.67467 371.467 9.016ZM372.923 11.16C372.432 11.16 372.027 11.2667 371.707 11.48C371.397 11.6827 371.243 12.0507 371.243 12.584C371.243 13.128 371.387 13.5067 371.675 13.72C371.973 13.9333 372.4 14.04 372.955 14.04C373.136 14.04 373.328 14.0293 373.531 14.008C373.733 13.9867 373.915 13.944 374.075 13.88C374.203 13.8267 374.293 13.7573 374.347 13.672C374.4 13.5867 374.427 13.4267 374.427 13.192V11.352C374.203 11.2987 373.963 11.256 373.707 11.224C373.461 11.1813 373.2 11.16 372.923 11.16ZM377.228 10.2C377.228 9.06933 377.473 8.22667 377.964 7.672C378.454 7.11733 379.132 6.84 379.996 6.84C380.796 6.84 381.436 7.064 381.916 7.512C382.396 7.94933 382.636 8.584 382.636 9.416C382.636 9.65067 382.518 9.768 382.284 9.768H381.788C381.553 9.768 381.436 9.65067 381.436 9.416C381.436 8.92533 381.302 8.56267 381.036 8.328C380.769 8.08267 380.422 7.96 379.996 7.96C378.961 7.96 378.444 8.568 378.444 9.784V12.216C378.444 13.432 378.972 14.04 380.028 14.04C380.433 14.04 380.764 13.944 381.02 13.752C381.276 13.56 381.404 13.2453 381.404 12.808C381.404 12.5733 381.521 12.456 381.756 12.456H382.252C382.486 12.456 382.604 12.5733 382.604 12.808C382.604 13.1813 382.534 13.5173 382.396 13.816C382.268 14.104 382.086 14.3493 381.852 14.552C381.628 14.744 381.356 14.8933 381.036 15C380.726 15.1067 380.39 15.16 380.028 15.16C379.164 15.16 378.481 14.8827 377.98 14.328C377.478 13.7733 377.228 12.9307 377.228 11.8V10.2ZM383.945 8.04C383.7 8.04 383.577 7.92267 383.577 7.688V7.352C383.577 7.11733 383.7 7 383.945 7H384.681V5.768C384.681 5.52267 384.799 5.4 385.033 5.4H385.529C385.764 5.4 385.881 5.52267 385.881 5.768V7H387.241C387.487 7 387.609 7.11733 387.609 7.352V7.688C387.609 7.92267 387.487 8.04 387.241 8.04H385.881V13.208C385.881 13.5067 385.935 13.72 386.041 13.848C386.148 13.976 386.324 14.04 386.569 14.04H387.305C387.519 14.04 387.625 14.1627 387.625 14.408V14.504C387.625 14.7173 387.535 14.8827 387.353 15C387.172 15.1067 386.831 15.16 386.329 15.16C385.807 15.16 385.401 15 385.113 14.68C384.825 14.3493 384.681 13.8213 384.681 13.096V8.04H383.945ZM393.756 8.04V14.648C393.756 14.8827 393.639 15 393.404 15H392.908C392.674 15 392.556 14.8827 392.556 14.648V8.04H391.82C391.575 8.04 391.452 7.92267 391.452 7.688V7.352C391.452 7.11733 391.575 7 391.82 7H392.556V6.344C392.556 5.61867 392.711 5.06933 393.02 4.696C393.34 4.312 393.788 4.12 394.364 4.12C394.866 4.12 395.207 4.17867 395.388 4.296C395.57 4.40267 395.66 4.56267 395.66 4.776V4.872C395.66 5.11733 395.554 5.24 395.34 5.24H394.604C394.295 5.24 394.076 5.304 393.948 5.432C393.82 5.56 393.756 5.77333 393.756 6.072V7H395.116C395.362 7 395.484 7.11733 395.484 7.352V7.688C395.484 7.92267 395.362 8.04 395.116 8.04H393.756ZM397.779 9.016C397.726 9.24 397.592 9.352 397.379 9.352H396.947C396.702 9.352 396.579 9.22933 396.579 8.984C396.579 8.68533 396.643 8.408 396.771 8.152C396.899 7.88533 397.08 7.656 397.315 7.464C397.55 7.272 397.832 7.12267 398.163 7.016C398.494 6.89867 398.862 6.84 399.267 6.84C399.779 6.84 400.206 6.92 400.547 7.08C400.899 7.22933 401.176 7.44267 401.379 7.72C401.582 7.99733 401.726 8.33333 401.811 8.728C401.896 9.12267 401.939 9.56533 401.939 10.056V13.464C401.939 13.8693 401.875 14.168 401.747 14.36C401.63 14.552 401.432 14.7067 401.155 14.824C400.59 15.048 399.955 15.16 399.251 15.16C398.312 15.16 397.592 14.9467 397.091 14.52C396.59 14.0827 396.339 13.4587 396.339 12.648C396.339 12.2213 396.414 11.8533 396.563 11.544C396.712 11.2347 396.915 10.984 397.171 10.792C397.438 10.5893 397.747 10.44 398.099 10.344C398.462 10.248 398.856 10.2 399.283 10.2C399.528 10.2 399.774 10.2213 400.019 10.264C400.275 10.296 400.515 10.3387 400.739 10.392V9.576C400.739 8.49867 400.248 7.96 399.267 7.96C398.83 7.96 398.483 8.05067 398.227 8.232C397.971 8.41333 397.822 8.67467 397.779 9.016ZM399.235 11.16C398.744 11.16 398.339 11.2667 398.019 11.48C397.71 11.6827 397.555 12.0507 397.555 12.584C397.555 13.128 397.699 13.5067 397.987 13.72C398.286 13.9333 398.712 14.04 399.267 14.04C399.448 14.04 399.64 14.0293 399.843 14.008C400.046 13.9867 400.227 13.944 400.387 13.88C400.515 13.8267 400.606 13.7573 400.659 13.672C400.712 13.5867 400.739 13.4267 400.739 13.192V11.352C400.515 11.2987 400.275 11.256 400.019 11.224C399.774 11.1813 399.512 11.16 399.235 11.16ZM404.468 5.704C403.978 5.704 403.732 5.464 403.732 4.984C403.732 4.51467 403.978 4.28 404.468 4.28C404.948 4.28 405.188 4.51467 405.188 4.984C405.188 5.464 404.948 5.704 404.468 5.704ZM403.86 7.368C403.86 7.12267 403.978 7 404.212 7H404.708C404.943 7 405.06 7.12267 405.06 7.368V14.648C405.06 14.8827 404.943 15 404.708 15H404.212C403.978 15 403.86 14.8827 403.86 14.648V7.368ZM406.774 8.04C406.528 8.04 406.406 7.92267 406.406 7.688V7.352C406.406 7.11733 406.528 7 406.774 7H407.51V5.768C407.51 5.52267 407.627 5.4 407.862 5.4H408.358C408.592 5.4 408.71 5.52267 408.71 5.768V7H410.07C410.315 7 410.438 7.11733 410.438 7.352V7.688C410.438 7.92267 410.315 8.04 410.07 8.04H408.71V13.208C408.71 13.5067 408.763 13.72 408.87 13.848C408.976 13.976 409.152 14.04 409.398 14.04H410.134C410.347 14.04 410.454 14.1627 410.454 14.408V14.504C410.454 14.7173 410.363 14.8827 410.182 15C410 15.1067 409.659 15.16 409.158 15.16C408.635 15.16 408.23 15 407.942 14.68C407.654 14.3493 407.51 13.8213 407.51 13.096V8.04H406.774ZM414.405 15C413.467 15 412.747 14.728 412.245 14.184C411.744 13.6293 411.493 12.808 411.493 11.72V10.488C411.493 8.056 412.464 6.84 414.405 6.84C415.28 6.84 415.968 7.10133 416.469 7.624C416.971 8.14667 417.221 8.92533 417.221 9.96V10.424C417.221 10.8613 417.147 11.144 416.997 11.272C416.859 11.3893 416.576 11.448 416.149 11.448H412.709V12.04C412.709 12.648 412.848 13.1067 413.125 13.416C413.413 13.7253 413.877 13.88 414.517 13.88H416.581C416.805 13.88 416.917 13.9973 416.917 14.232V14.328C416.917 14.5733 416.795 14.7493 416.549 14.856C416.315 14.952 415.877 15 415.237 15H414.405ZM415.685 10.488C415.824 10.488 415.909 10.4667 415.941 10.424C415.984 10.3813 416.005 10.28 416.005 10.12V9.784C416.005 8.568 415.472 7.96 414.405 7.96C413.275 7.96 412.709 8.568 412.709 9.784V10.488H415.685ZM419.707 13.16C419.729 13.416 419.867 13.6293 420.123 13.8C420.379 13.96 420.737 14.04 421.195 14.04C422.187 14.04 422.683 13.6773 422.683 12.952C422.683 12.6427 422.582 12.392 422.379 12.2C422.177 12.008 421.921 11.848 421.611 11.72C421.302 11.5813 420.966 11.448 420.603 11.32C420.251 11.192 419.921 11.0373 419.611 10.856C419.302 10.664 419.046 10.4293 418.843 10.152C418.641 9.864 418.539 9.48533 418.539 9.016C418.539 8.70667 418.598 8.41867 418.715 8.152C418.843 7.88533 419.019 7.656 419.243 7.464C419.467 7.272 419.734 7.12267 420.043 7.016C420.363 6.89867 420.715 6.84 421.099 6.84C421.953 6.84 422.614 7.04267 423.083 7.448C423.563 7.84267 423.803 8.35467 423.803 8.984C423.803 9.21867 423.686 9.336 423.451 9.336H422.955C422.731 9.336 422.614 9.21867 422.603 8.984C422.582 8.68533 422.443 8.44 422.187 8.248C421.942 8.056 421.579 7.96 421.099 7.96C420.662 7.96 420.321 8.05067 420.075 8.232C419.841 8.40267 419.723 8.65867 419.723 9C419.723 9.30933 419.825 9.55467 420.027 9.736C420.23 9.91733 420.486 10.0773 420.795 10.216C421.105 10.3547 421.435 10.488 421.787 10.616C422.15 10.7333 422.486 10.888 422.795 11.08C423.105 11.2613 423.361 11.5013 423.563 11.8C423.766 12.088 423.867 12.4613 423.867 12.92C423.867 13.2293 423.803 13.5227 423.675 13.8C423.558 14.0667 423.382 14.3013 423.147 14.504C422.923 14.7067 422.646 14.8667 422.315 14.984C421.995 15.1013 421.633 15.16 421.227 15.16C420.811 15.16 420.438 15.1067 420.107 15C419.777 14.8933 419.489 14.7493 419.243 14.568C419.009 14.3867 418.827 14.1787 418.699 13.944C418.571 13.6987 418.507 13.4373 418.507 13.16C418.507 12.9253 418.625 12.808 418.859 12.808H419.355C419.579 12.808 419.697 12.9253 419.707 13.16ZM429.967 9.016C429.913 9.24 429.78 9.352 429.567 9.352H429.135C428.889 9.352 428.767 9.22933 428.767 8.984C428.767 8.68533 428.831 8.408 428.959 8.152C429.087 7.88533 429.268 7.656 429.503 7.464C429.737 7.272 430.02 7.12267 430.351 7.016C430.681 6.89867 431.049 6.84 431.455 6.84C431.967 6.84 432.393 6.92 432.735 7.08C433.087 7.22933 433.364 7.44267 433.567 7.72C433.769 7.99733 433.913 8.33333 433.999 8.728C434.084 9.12267 434.127 9.56533 434.127 10.056V13.464C434.127 13.8693 434.063 14.168 433.935 14.36C433.817 14.552 433.62 14.7067 433.343 14.824C432.777 15.048 432.143 15.16 431.439 15.16C430.5 15.16 429.78 14.9467 429.279 14.52C428.777 14.0827 428.527 13.4587 428.527 12.648C428.527 12.2213 428.601 11.8533 428.751 11.544C428.9 11.2347 429.103 10.984 429.359 10.792C429.625 10.5893 429.935 10.44 430.287 10.344C430.649 10.248 431.044 10.2 431.471 10.2C431.716 10.2 431.961 10.2213 432.207 10.264C432.463 10.296 432.703 10.3387 432.927 10.392V9.576C432.927 8.49867 432.436 7.96 431.455 7.96C431.017 7.96 430.671 8.05067 430.415 8.232C430.159 8.41333 430.009 8.67467 429.967 9.016ZM431.423 11.16C430.932 11.16 430.527 11.2667 430.207 11.48C429.897 11.6827 429.743 12.0507 429.743 12.584C429.743 13.128 429.887 13.5067 430.175 13.72C430.473 13.9333 430.9 14.04 431.455 14.04C431.636 14.04 431.828 14.0293 432.031 14.008C432.233 13.9867 432.415 13.944 432.575 13.88C432.703 13.8267 432.793 13.7573 432.847 13.672C432.9 13.5867 432.927 13.4267 432.927 13.192V11.352C432.703 11.2987 432.463 11.256 432.207 11.224C431.961 11.1813 431.7 11.16 431.423 11.16ZM440.341 7.48C440.383 7.32 440.431 7.20267 440.485 7.128C440.549 7.04267 440.661 7 440.821 7H441.333C441.589 7 441.685 7.12267 441.621 7.368L439.685 14.04C439.599 14.3387 439.498 14.5733 439.381 14.744C439.263 14.9147 439.055 15 438.757 15H438.165C438.015 15 437.887 14.9787 437.781 14.936C437.685 14.8933 437.605 14.8293 437.541 14.744C437.477 14.6587 437.423 14.5573 437.381 14.44C437.338 14.3227 437.295 14.1893 437.253 14.04L435.301 7.368C435.237 7.12267 435.333 7 435.589 7H436.149C436.309 7 436.415 7.04267 436.469 7.128C436.533 7.20267 436.586 7.32 436.629 7.48L438.261 13.608C438.303 13.768 438.367 13.848 438.453 13.848C438.538 13.848 438.602 13.768 438.645 13.608L440.341 7.48ZM445.609 15C444.67 15 443.95 14.728 443.449 14.184C442.947 13.6293 442.697 12.808 442.697 11.72V10.488C442.697 8.056 443.667 6.84 445.609 6.84C446.483 6.84 447.171 7.10133 447.673 7.624C448.174 8.14667 448.425 8.92533 448.425 9.96V10.424C448.425 10.8613 448.35 11.144 448.201 11.272C448.062 11.3893 447.779 11.448 447.353 11.448H443.913V12.04C443.913 12.648 444.051 13.1067 444.329 13.416C444.617 13.7253 445.081 13.88 445.721 13.88H447.785C448.009 13.88 448.121 13.9973 448.121 14.232V14.328C448.121 14.5733 447.998 14.7493 447.753 14.856C447.518 14.952 447.081 15 446.441 15H445.609ZM446.889 10.488C447.027 10.488 447.113 10.4667 447.145 10.424C447.187 10.3813 447.209 10.28 447.209 10.12V9.784C447.209 8.568 446.675 7.96 445.609 7.96C444.478 7.96 443.913 8.568 443.913 9.784V10.488H446.889ZM449.79 10.2C449.79 9.06933 450.036 8.22667 450.526 7.672C451.017 7.11733 451.694 6.84 452.558 6.84C453.358 6.84 453.998 7.064 454.478 7.512C454.958 7.94933 455.198 8.584 455.198 9.416C455.198 9.65067 455.081 9.768 454.846 9.768H454.35C454.116 9.768 453.998 9.65067 453.998 9.416C453.998 8.92533 453.865 8.56267 453.598 8.328C453.332 8.08267 452.985 7.96 452.558 7.96C451.524 7.96 451.006 8.568 451.006 9.784V12.216C451.006 13.432 451.534 14.04 452.59 14.04C452.996 14.04 453.326 13.944 453.582 13.752C453.838 13.56 453.966 13.2453 453.966 12.808C453.966 12.5733 454.084 12.456 454.318 12.456H454.814C455.049 12.456 455.166 12.5733 455.166 12.808C455.166 13.1813 455.097 13.5173 454.958 13.816C454.83 14.104 454.649 14.3493 454.414 14.552C454.19 14.744 453.918 14.8933 453.598 15C453.289 15.1067 452.953 15.16 452.59 15.16C451.726 15.16 451.044 14.8827 450.542 14.328C450.041 13.7733 449.79 12.9307 449.79 11.8V10.2ZM461.279 14.648C461.279 14.8827 461.162 15 460.927 15H460.431C460.196 15 460.079 14.8827 460.079 14.648V4.648C460.079 4.40267 460.196 4.28 460.431 4.28H460.927C461.162 4.28 461.279 4.40267 461.279 4.648V14.648ZM465.952 15C465.014 15 464.294 14.728 463.792 14.184C463.291 13.6293 463.04 12.808 463.04 11.72V10.488C463.04 8.056 464.011 6.84 465.952 6.84C466.827 6.84 467.515 7.10133 468.016 7.624C468.518 8.14667 468.768 8.92533 468.768 9.96V10.424C468.768 10.8613 468.694 11.144 468.544 11.272C468.406 11.3893 468.123 11.448 467.696 11.448H464.256V12.04C464.256 12.648 464.395 13.1067 464.672 13.416C464.96 13.7253 465.424 13.88 466.064 13.88H468.128C468.352 13.88 468.464 13.9973 468.464 14.232V14.328C468.464 14.5733 468.342 14.7493 468.096 14.856C467.862 14.952 467.424 15 466.784 15H465.952ZM467.232 10.488C467.371 10.488 467.456 10.4667 467.488 10.424C467.531 10.3813 467.552 10.28 467.552 10.12V9.784C467.552 8.568 467.019 7.96 465.952 7.96C464.822 7.96 464.256 8.568 464.256 9.784V10.488H467.232ZM473.337 10.2C473.337 9.06933 473.583 8.22667 474.073 7.672C474.564 7.11733 475.241 6.84 476.105 6.84C476.905 6.84 477.545 7.064 478.025 7.512C478.505 7.94933 478.745 8.584 478.745 9.416C478.745 9.65067 478.628 9.768 478.393 9.768H477.897C477.663 9.768 477.545 9.65067 477.545 9.416C477.545 8.92533 477.412 8.56267 477.145 8.328C476.879 8.08267 476.532 7.96 476.105 7.96C475.071 7.96 474.553 8.568 474.553 9.784V12.216C474.553 13.432 475.081 14.04 476.137 14.04C476.543 14.04 476.873 13.944 477.129 13.752C477.385 13.56 477.513 13.2453 477.513 12.808C477.513 12.5733 477.631 12.456 477.865 12.456H478.361C478.596 12.456 478.713 12.5733 478.713 12.808C478.713 13.1813 478.644 13.5173 478.505 13.816C478.377 14.104 478.196 14.3493 477.961 14.552C477.737 14.744 477.465 14.8933 477.145 15C476.836 15.1067 476.5 15.16 476.137 15.16C475.273 15.16 474.591 14.8827 474.089 14.328C473.588 13.7733 473.337 12.9307 473.337 11.8V10.2ZM481.623 14.648C481.623 14.8827 481.505 15 481.271 15H480.775C480.54 15 480.423 14.8827 480.423 14.648V4.648C480.423 4.40267 480.54 4.28 480.775 4.28H481.271C481.505 4.28 481.623 4.40267 481.623 4.648V14.648ZM484.312 5.704C483.821 5.704 483.576 5.464 483.576 4.984C483.576 4.51467 483.821 4.28 484.312 4.28C484.792 4.28 485.032 4.51467 485.032 4.984C485.032 5.464 484.792 5.704 484.312 5.704ZM483.704 7.368C483.704 7.12267 483.821 7 484.056 7H484.552C484.787 7 484.904 7.12267 484.904 7.368V14.648C484.904 14.8827 484.787 15 484.552 15H484.056C483.821 15 483.704 14.8827 483.704 14.648V7.368ZM489.577 15C488.639 15 487.919 14.728 487.417 14.184C486.916 13.6293 486.665 12.808 486.665 11.72V10.488C486.665 8.056 487.636 6.84 489.577 6.84C490.452 6.84 491.14 7.10133 491.641 7.624C492.143 8.14667 492.393 8.92533 492.393 9.96V10.424C492.393 10.8613 492.319 11.144 492.169 11.272C492.031 11.3893 491.748 11.448 491.321 11.448H487.881V12.04C487.881 12.648 488.02 13.1067 488.297 13.416C488.585 13.7253 489.049 13.88 489.689 13.88H491.753C491.977 13.88 492.089 13.9973 492.089 14.232V14.328C492.089 14.5733 491.967 14.7493 491.721 14.856C491.487 14.952 491.049 15 490.409 15H489.577ZM490.857 10.488C490.996 10.488 491.081 10.4667 491.113 10.424C491.156 10.3813 491.177 10.28 491.177 10.12V9.784C491.177 8.568 490.644 7.96 489.577 7.96C488.447 7.96 487.881 8.568 487.881 9.784V10.488H490.857ZM494.079 8.552C494.079 8.14667 494.138 7.848 494.255 7.656C494.383 7.45333 494.58 7.29333 494.847 7.176C495.124 7.05867 495.423 6.97333 495.743 6.92C496.074 6.86667 496.41 6.84 496.751 6.84C497.284 6.84 497.732 6.904 498.095 7.032C498.468 7.14933 498.767 7.33067 498.991 7.576C499.215 7.82133 499.375 8.14133 499.471 8.536C499.578 8.92 499.631 9.37333 499.631 9.896V14.648C499.631 14.8827 499.514 15 499.279 15H498.783C498.548 15 498.431 14.8827 498.431 14.648V9.896C498.431 9.21333 498.308 8.72267 498.063 8.424C497.828 8.11467 497.396 7.96 496.767 7.96C496.543 7.96 496.335 7.976 496.143 8.008C495.951 8.02933 495.78 8.06667 495.631 8.12C495.492 8.17333 495.396 8.248 495.343 8.344C495.3 8.42933 495.279 8.58933 495.279 8.824V14.648C495.279 14.8827 495.162 15 494.927 15H494.431C494.196 15 494.079 14.8827 494.079 14.648V8.552ZM501.258 8.04C501.013 8.04 500.89 7.92267 500.89 7.688V7.352C500.89 7.11733 501.013 7 501.258 7H501.994V5.768C501.994 5.52267 502.111 5.4 502.346 5.4H502.842C503.077 5.4 503.194 5.52267 503.194 5.768V7H504.554C504.799 7 504.922 7.11733 504.922 7.352V7.688C504.922 7.92267 504.799 8.04 504.554 8.04H503.194V13.208C503.194 13.5067 503.247 13.72 503.354 13.848C503.461 13.976 503.637 14.04 503.882 14.04H504.618C504.831 14.04 504.938 14.1627 504.938 14.408V14.504C504.938 14.7173 504.847 14.8827 504.666 15C504.485 15.1067 504.143 15.16 503.642 15.16C503.119 15.16 502.714 15 502.426 14.68C502.138 14.3493 501.994 13.8213 501.994 13.096V8.04H501.258Z" fill="#212121"/>
<g clip-path="url(#clip1_892_3716)">
<mask id="path-8-inside-2_892_3716" fill="white">
<path d="M465 99C465 82.2914 458.363 66.2671 446.548 54.4523C434.733 42.6375 418.709 36 402 36C385.291 36 369.267 42.6375 357.452 54.4523C345.637 66.2671 339 82.2913 339 99L358.187 99C358.187 87.3801 362.803 76.2361 371.02 68.0196C379.236 59.8031 390.38 55.1871 402 55.1871C413.62 55.1871 424.764 59.8031 432.98 68.0196C441.197 76.2361 445.813 87.3801 445.813 99H465Z"/>
</mask>
<path d="M465 99C465 82.2914 458.363 66.2671 446.548 54.4523C434.733 42.6375 418.709 36 402 36C385.291 36 369.267 42.6375 357.452 54.4523C345.637 66.2671 339 82.2913 339 99L358.187 99C358.187 87.3801 362.803 76.2361 371.02 68.0196C379.236 59.8031 390.38 55.1871 402 55.1871C413.62 55.1871 424.764 59.8031 432.98 68.0196C441.197 76.2361 445.813 87.3801 445.813 99H465Z" fill="#4D4D4D" fill-opacity="0.3" stroke="#4D4D4D" stroke-opacity="0.3" stroke-width="2" mask="url(#path-8-inside-2_892_3716)"/>
<path d="M370.602 44.3816C361.095 49.8471 353.178 57.6997 347.636 67.1628C342.095 76.6259 339.119 87.3717 339.003 98.3376L358.19 98.5393C358.27 90.9132 360.339 83.4401 364.193 76.859C368.047 70.278 373.553 64.817 380.164 61.016L370.602 44.3816Z" fill="#AF0929"/>
<path d="M396.313 91.58C396.313 91.9 396.36 92.16 396.453 92.36C396.56 92.56 396.693 92.72 396.853 92.84C397.013 92.96 397.186 93.0467 397.373 93.1C397.56 93.14 397.74 93.16 397.913 93.16C398.42 93.16 398.826 93.02 399.133 92.74C399.44 92.46 399.593 92.02 399.593 91.42V90.72C399.593 90.2533 399.46 89.8733 399.193 89.58C398.94 89.2733 398.606 89.12 398.193 89.12H396.893C396.493 89.12 396.293 88.92 396.293 88.52V87.68C396.293 87.28 396.493 87.08 396.893 87.08H398.193C398.54 87.08 398.826 86.9667 399.053 86.74C399.28 86.5133 399.393 86.2267 399.393 85.88V85.22C399.393 84.62 399.26 84.1733 398.993 83.88C398.726 83.5867 398.366 83.44 397.913 83.44C397.753 83.44 397.58 83.4667 397.393 83.52C397.22 83.56 397.06 83.64 396.913 83.76C396.766 83.88 396.646 84.04 396.553 84.24C396.46 84.44 396.413 84.7 396.413 85.02C396.413 85.26 396.353 85.4267 396.233 85.52C396.126 85.6 395.986 85.64 395.813 85.64H394.873C394.646 85.64 394.46 85.58 394.313 85.46C394.18 85.3267 394.113 85.1267 394.113 84.86C394.113 84.34 394.206 83.8667 394.393 83.44C394.58 83.0133 394.84 82.6533 395.173 82.36C395.506 82.0533 395.906 81.82 396.373 81.66C396.84 81.4867 397.353 81.4 397.913 81.4C398.553 81.4 399.113 81.5 399.593 81.7C400.073 81.8867 400.473 82.16 400.793 82.52C401.126 82.8667 401.373 83.28 401.533 83.76C401.706 84.24 401.793 84.76 401.793 85.32V85.58C401.793 86.2467 401.673 86.7933 401.433 87.22C401.193 87.6467 400.9 87.9733 400.553 88.2C401.02 88.3867 401.373 88.74 401.613 89.26C401.866 89.78 401.993 90.3667 401.993 91.02V91.32C401.993 91.88 401.906 92.4 401.733 92.88C401.56 93.36 401.3 93.7733 400.953 94.12C400.62 94.4533 400.193 94.72 399.673 94.92C399.166 95.1067 398.58 95.2 397.913 95.2C397.34 95.2 396.813 95.12 396.333 94.96C395.853 94.7867 395.44 94.5533 395.093 94.26C394.76 93.9533 394.493 93.5867 394.293 93.16C394.106 92.7333 394.013 92.26 394.013 91.74V91.44C394.013 91.1733 394.08 90.98 394.213 90.86C394.36 90.7267 394.546 90.66 394.773 90.66H395.713C395.873 90.66 396.013 90.7067 396.133 90.8C396.253 90.88 396.313 91.04 396.313 91.28V91.58ZM413.36 89.56C413.187 89.56 413.034 89.62 412.9 89.74C412.767 89.86 412.7 90.04 412.7 90.28V92.92C412.7 93.1467 412.754 93.3267 412.86 93.46C412.98 93.58 413.127 93.64 413.3 93.64C413.5 93.64 413.667 93.58 413.8 93.46C413.947 93.3267 414.02 93.1467 414.02 92.92V90.3C414.02 90.0733 413.954 89.8933 413.82 89.76C413.7 89.6267 413.547 89.56 413.36 89.56ZM413.38 88.02C413.874 88.02 414.28 88.0933 414.6 88.24C414.92 88.3867 415.174 88.5933 415.36 88.86C415.547 89.1133 415.68 89.42 415.76 89.78C415.84 90.14 415.88 90.54 415.88 90.98V92.22C415.88 93.2867 415.667 94.0533 415.24 94.52C414.814 94.9733 414.16 95.2 413.28 95.2C412.44 95.2 411.82 94.96 411.42 94.48C411.02 94 410.82 93.24 410.82 92.2V90.98C410.82 89.8867 411.027 89.12 411.44 88.68C411.867 88.24 412.514 88.02 413.38 88.02ZM406.32 87.04C406.494 87.04 406.647 86.98 406.78 86.86C406.914 86.74 406.98 86.56 406.98 86.32V83.68C406.98 83.4533 406.92 83.28 406.8 83.16C406.694 83.0267 406.554 82.96 406.38 82.96C406.18 82.96 406.007 83.0267 405.86 83.16C405.727 83.28 405.66 83.4533 405.66 83.68V86.3C405.66 86.5267 405.72 86.7067 405.84 86.84C405.974 86.9733 406.134 87.04 406.32 87.04ZM406.3 88.58C405.807 88.58 405.4 88.5133 405.08 88.38C404.76 88.2333 404.5 88.0333 404.3 87.78C404.114 87.5133 403.98 87.2 403.9 86.84C403.834 86.4667 403.8 86.06 403.8 85.62V84.38C403.8 83.3133 404.014 82.5533 404.44 82.1C404.867 81.6333 405.52 81.4 406.4 81.4C407.24 81.4 407.86 81.64 408.26 82.12C408.66 82.6 408.86 83.36 408.86 84.4V85.62C408.86 86.1667 408.807 86.6333 408.7 87.02C408.594 87.3933 408.434 87.7 408.22 87.94C408.02 88.1667 407.76 88.3333 407.44 88.44C407.12 88.5333 406.74 88.58 406.3 88.58ZM411.78 82.02C411.847 81.86 411.92 81.7533 412 81.7C412.08 81.6333 412.207 81.6 412.38 81.6H413.14C413.447 81.6 413.6 81.72 413.6 81.96C413.6 82.08 413.574 82.1933 413.52 82.3L407.9 94.58C407.82 94.74 407.74 94.8533 407.66 94.92C407.58 94.9733 407.46 95 407.3 95H406.54C406.22 95 406.06 94.88 406.06 94.64C406.06 94.5467 406.094 94.4333 406.16 94.3L411.78 82.02Z" fill="#212121"/>
<path d="M347.479 113.04C348.183 113.04 348.689 112.816 348.999 112.368C349.319 111.909 349.479 111.2 349.479 110.24V107.056C349.479 106.149 349.324 105.456 349.015 104.976C348.716 104.485 348.215 104.24 347.511 104.24C346.807 104.24 346.3 104.475 345.991 104.944C345.681 105.403 345.527 106.101 345.527 107.04V110.24C345.527 111.179 345.676 111.883 345.975 112.352C346.273 112.811 346.775 113.04 347.479 113.04ZM347.527 103.12C348.593 103.12 349.393 103.451 349.927 104.112C350.471 104.773 350.743 105.84 350.743 107.312V109.984C350.743 110.741 350.668 111.387 350.519 111.92C350.38 112.443 350.172 112.875 349.895 113.216C349.617 113.547 349.271 113.787 348.855 113.936C348.449 114.085 347.985 114.16 347.463 114.16C346.343 114.16 345.527 113.803 345.015 113.088C344.513 112.363 344.263 111.328 344.263 109.984V107.312C344.263 105.829 344.54 104.763 345.095 104.112C345.66 103.451 346.471 103.12 347.527 103.12Z" fill="#212121"/>
<path d="M448.102 106.224C448.017 106.309 447.942 106.352 447.878 106.352C447.814 106.352 447.74 106.309 447.654 106.224L447.302 105.856C447.228 105.781 447.19 105.712 447.19 105.648C447.19 105.584 447.233 105.509 447.318 105.424L449.222 103.728C449.34 103.621 449.462 103.52 449.59 103.424C449.729 103.328 449.868 103.28 450.006 103.28H450.39C450.668 103.28 450.806 103.403 450.806 103.648V113.648C450.806 113.883 450.689 114 450.454 114H449.958C449.724 114 449.606 113.883 449.606 113.648V104.848L448.102 106.224ZM456.096 113.04C456.8 113.04 457.307 112.816 457.616 112.368C457.936 111.909 458.096 111.2 458.096 110.24V107.056C458.096 106.149 457.941 105.456 457.632 104.976C457.333 104.485 456.832 104.24 456.128 104.24C455.424 104.24 454.917 104.475 454.608 104.944C454.299 105.403 454.144 106.101 454.144 107.04V110.24C454.144 111.179 454.293 111.883 454.592 112.352C454.891 112.811 455.392 113.04 456.096 113.04ZM456.144 103.12C457.211 103.12 458.011 103.451 458.544 104.112C459.088 104.773 459.36 105.84 459.36 107.312V109.984C459.36 110.741 459.285 111.387 459.136 111.92C458.997 112.443 458.789 112.875 458.512 113.216C458.235 113.547 457.888 113.787 457.472 113.936C457.067 114.085 456.603 114.16 456.08 114.16C454.96 114.16 454.144 113.803 453.632 113.088C453.131 112.363 452.88 111.328 452.88 109.984V107.312C452.88 105.829 453.157 104.763 453.712 104.112C454.277 103.451 455.088 103.12 456.144 103.12ZM467.978 109.264C467.402 109.264 467.114 109.685 467.114 110.528V112.016C467.114 112.421 467.178 112.736 467.306 112.96C467.434 113.173 467.648 113.28 467.946 113.28C468.266 113.28 468.496 113.173 468.634 112.96C468.773 112.747 468.842 112.432 468.842 112.016V110.528C468.842 110.123 468.773 109.813 468.634 109.6C468.506 109.376 468.288 109.264 467.978 109.264ZM467.946 114.16C467.338 114.16 466.874 113.979 466.554 113.616C466.245 113.253 466.09 112.661 466.09 111.84V110.688C466.09 109.856 466.25 109.269 466.57 108.928C466.901 108.576 467.37 108.4 467.978 108.4C468.65 108.4 469.13 108.597 469.418 108.992C469.717 109.376 469.866 109.941 469.866 110.688V111.856C469.866 112.677 469.701 113.269 469.37 113.632C469.05 113.984 468.576 114.16 467.946 114.16ZM462.842 108.016C463.418 108.016 463.706 107.6 463.706 106.768V105.28C463.706 104.437 463.429 104.016 462.874 104.016C462.554 104.016 462.325 104.123 462.186 104.336C462.048 104.549 461.978 104.864 461.978 105.28V106.752C461.978 107.157 462.042 107.472 462.17 107.696C462.309 107.909 462.533 108.016 462.842 108.016ZM462.874 103.12C463.482 103.12 463.941 103.307 464.25 103.68C464.57 104.043 464.73 104.629 464.73 105.44V106.592C464.73 107.424 464.565 108.016 464.234 108.368C463.914 108.72 463.45 108.896 462.842 108.896C462.17 108.896 461.685 108.699 461.386 108.304C461.098 107.909 460.954 107.339 460.954 106.592V105.44C460.954 104.608 461.114 104.016 461.434 103.664C461.765 103.301 462.245 103.12 462.874 103.12ZM467.21 103.568C467.264 103.451 467.312 103.376 467.354 103.344C467.408 103.301 467.493 103.28 467.61 103.28H467.962C468.133 103.28 468.229 103.323 468.25 103.408C468.272 103.483 468.25 103.589 468.186 103.728L463.61 113.712C463.557 113.829 463.504 113.909 463.45 113.952C463.408 113.984 463.328 114 463.21 114H462.858C462.688 114 462.592 113.963 462.57 113.888C462.549 113.803 462.57 113.691 462.634 113.552L467.21 103.568Z" fill="#212121"/>
</g>
<path d="M607.369 4.28C607.796 4.28 608.19 4.344 608.553 4.472C608.916 4.58933 609.225 4.776 609.481 5.032C609.748 5.27733 609.95 5.592 610.089 5.976C610.238 6.34933 610.313 6.79733 610.313 7.32V8.76C610.313 9.72 610.041 10.4667 609.497 11C608.953 11.5333 608.228 11.8 607.321 11.8H605.529V14.648C605.529 14.8827 605.412 15 605.177 15H604.681C604.446 15 604.329 14.8827 604.329 14.648V4.648C604.329 4.40267 604.446 4.28 604.681 4.28H607.369ZM605.529 5.4V10.68H607.225C607.886 10.68 608.356 10.5147 608.633 10.184C608.91 9.85333 609.049 9.40533 609.049 8.84V7.24C609.049 6.568 608.889 6.09333 608.569 5.816C608.249 5.53867 607.785 5.4 607.177 5.4H605.529ZM614.687 8.008C614.442 8.008 614.234 8.024 614.063 8.056C613.903 8.07733 613.754 8.11467 613.615 8.168C613.466 8.232 613.37 8.32267 613.327 8.44C613.295 8.55733 613.279 8.78667 613.279 9.128V14.648C613.279 14.8827 613.162 15 612.927 15H612.431C612.196 15 612.079 14.8827 612.079 14.648V8.552C612.079 8.17867 612.154 7.88 612.303 7.656C612.463 7.432 612.666 7.26133 612.911 7.144C613.167 7.016 613.45 6.936 613.759 6.904C614.068 6.86133 614.378 6.84 614.687 6.84C615.039 6.84 615.279 6.872 615.407 6.936C615.546 7 615.615 7.13333 615.615 7.336V7.576C615.615 7.72533 615.583 7.83733 615.519 7.912C615.455 7.976 615.332 8.008 615.151 8.008H614.687ZM619.389 14.04C620.008 14.04 620.445 13.8693 620.701 13.528C620.957 13.1867 621.085 12.664 621.085 11.96V10.04C621.085 9.34667 620.957 8.82933 620.701 8.488C620.456 8.136 620.029 7.96 619.421 7.96C618.781 7.96 618.333 8.136 618.077 8.488C617.832 8.82933 617.709 9.34667 617.709 10.04V11.96C617.709 12.664 617.837 13.1867 618.093 13.528C618.349 13.8693 618.781 14.04 619.389 14.04ZM619.437 6.84C620.355 6.84 621.059 7.11733 621.549 7.672C622.051 8.216 622.301 9.064 622.301 10.216V11.8C622.301 12.952 622.045 13.8 621.533 14.344C621.032 14.888 620.312 15.16 619.373 15.16C618.456 15.16 617.747 14.888 617.245 14.344C616.744 13.8 616.493 12.952 616.493 11.8V10.2C616.493 9.05867 616.749 8.216 617.261 7.672C617.773 7.11733 618.499 6.84 619.437 6.84ZM623.439 17.928C623.002 17.928 622.709 17.8693 622.559 17.752C622.399 17.6453 622.319 17.4853 622.319 17.272V17.176C622.319 16.9307 622.426 16.808 622.639 16.808H623.215C623.514 16.808 623.727 16.744 623.855 16.616C623.994 16.488 624.063 16.28 624.063 15.992V7.368C624.063 7.12267 624.181 7 624.415 7H624.911C625.146 7 625.263 7.12267 625.263 7.368V15.432C625.263 16.296 625.13 16.9253 624.863 17.32C624.607 17.7253 624.133 17.928 623.439 17.928ZM624.671 5.704C624.181 5.704 623.935 5.464 623.935 4.984C623.935 4.51467 624.181 4.28 624.671 4.28C625.151 4.28 625.391 4.51467 625.391 4.984C625.391 5.464 625.151 5.704 624.671 5.704ZM629.937 15C628.998 15 628.278 14.728 627.777 14.184C627.275 13.6293 627.025 12.808 627.025 11.72V10.488C627.025 8.056 627.995 6.84 629.937 6.84C630.811 6.84 631.499 7.10133 632.001 7.624C632.502 8.14667 632.753 8.92533 632.753 9.96V10.424C632.753 10.8613 632.678 11.144 632.529 11.272C632.39 11.3893 632.107 11.448 631.681 11.448H628.241V12.04C628.241 12.648 628.379 13.1067 628.657 13.416C628.945 13.7253 629.409 13.88 630.049 13.88H632.113C632.337 13.88 632.449 13.9973 632.449 14.232V14.328C632.449 14.5733 632.326 14.7493 632.081 14.856C631.846 14.952 631.409 15 630.769 15H629.937ZM631.217 10.488C631.355 10.488 631.441 10.4667 631.473 10.424C631.515 10.3813 631.537 10.28 631.537 10.12V9.784C631.537 8.568 631.003 7.96 629.937 7.96C628.806 7.96 628.241 8.568 628.241 9.784V10.488H631.217ZM634.07 8.04C633.825 8.04 633.702 7.92267 633.702 7.688V7.352C633.702 7.11733 633.825 7 634.07 7H634.806V5.768C634.806 5.52267 634.924 5.4 635.158 5.4H635.654C635.889 5.4 636.006 5.52267 636.006 5.768V7H637.366C637.612 7 637.734 7.11733 637.734 7.352V7.688C637.734 7.92267 637.612 8.04 637.366 8.04H636.006V13.208C636.006 13.5067 636.06 13.72 636.166 13.848C636.273 13.976 636.449 14.04 636.694 14.04H637.43C637.644 14.04 637.75 14.1627 637.75 14.408V14.504C637.75 14.7173 637.66 14.8827 637.478 15C637.297 15.1067 636.956 15.16 636.454 15.16C635.932 15.16 635.526 15 635.238 14.68C634.95 14.3493 634.806 13.8213 634.806 13.096V8.04H634.07ZM639.91 13.16C639.932 13.416 640.07 13.6293 640.326 13.8C640.582 13.96 640.94 14.04 641.398 14.04C642.39 14.04 642.886 13.6773 642.886 12.952C642.886 12.6427 642.785 12.392 642.582 12.2C642.38 12.008 642.124 11.848 641.814 11.72C641.505 11.5813 641.169 11.448 640.806 11.32C640.454 11.192 640.124 11.0373 639.814 10.856C639.505 10.664 639.249 10.4293 639.046 10.152C638.844 9.864 638.742 9.48533 638.742 9.016C638.742 8.70667 638.801 8.41867 638.918 8.152C639.046 7.88533 639.222 7.656 639.446 7.464C639.67 7.272 639.937 7.12267 640.246 7.016C640.566 6.89867 640.918 6.84 641.302 6.84C642.156 6.84 642.817 7.04267 643.286 7.448C643.766 7.84267 644.006 8.35467 644.006 8.984C644.006 9.21867 643.889 9.336 643.654 9.336H643.158C642.934 9.336 642.817 9.21867 642.806 8.984C642.785 8.68533 642.646 8.44 642.39 8.248C642.145 8.056 641.782 7.96 641.302 7.96C640.865 7.96 640.524 8.05067 640.278 8.232C640.044 8.40267 639.926 8.65867 639.926 9C639.926 9.30933 640.028 9.55467 640.23 9.736C640.433 9.91733 640.689 10.0773 640.998 10.216C641.308 10.3547 641.638 10.488 641.99 10.616C642.353 10.7333 642.689 10.888 642.998 11.08C643.308 11.2613 643.564 11.5013 643.766 11.8C643.969 12.088 644.07 12.4613 644.07 12.92C644.07 13.2293 644.006 13.5227 643.878 13.8C643.761 14.0667 643.585 14.3013 643.35 14.504C643.126 14.7067 642.849 14.8667 642.518 14.984C642.198 15.1013 641.836 15.16 641.43 15.16C641.014 15.16 640.641 15.1067 640.31 15C639.98 14.8933 639.692 14.7493 639.446 14.568C639.212 14.3867 639.03 14.1787 638.902 13.944C638.774 13.6987 638.71 13.4373 638.71 13.16C638.71 12.9253 638.828 12.808 639.062 12.808H639.558C639.782 12.808 639.9 12.9253 639.91 13.16ZM654.314 13.464C654.314 13.8693 654.255 14.1787 654.138 14.392C654.02 14.5947 653.828 14.7493 653.562 14.856C653.284 14.9733 652.97 15.0533 652.618 15.096C652.276 15.1387 651.935 15.16 651.594 15.16C650.655 15.16 649.93 14.888 649.418 14.344C648.906 13.7893 648.65 12.9413 648.65 11.8V10.216C648.65 9.064 648.906 8.216 649.418 7.672C649.93 7.11733 650.655 6.84 651.594 6.84C651.871 6.84 652.138 6.86133 652.394 6.904C652.66 6.94667 652.9 7.016 653.114 7.112V4.648C653.114 4.40267 653.231 4.28 653.466 4.28H653.962C654.196 4.28 654.314 4.40267 654.314 4.648V13.464ZM653.114 8.808C653.114 8.57333 653.087 8.41333 653.034 8.328C652.98 8.24267 652.89 8.17333 652.762 8.12C652.591 8.056 652.41 8.01333 652.218 7.992C652.026 7.97067 651.812 7.96 651.578 7.96C650.948 7.96 650.506 8.13067 650.25 8.472C649.994 8.81333 649.866 9.32533 649.866 10.008V12.232C649.866 13.4373 650.436 14.04 651.578 14.04C651.791 14.04 652.004 14.024 652.218 13.992C652.431 13.96 652.612 13.9173 652.762 13.864C652.9 13.8107 652.991 13.7413 653.034 13.656C653.087 13.5707 653.114 13.4107 653.114 13.176V8.808ZM658.984 15C658.045 15 657.325 14.728 656.824 14.184C656.322 13.6293 656.072 12.808 656.072 11.72V10.488C656.072 8.056 657.042 6.84 658.984 6.84C659.858 6.84 660.546 7.10133 661.048 7.624C661.549 8.14667 661.8 8.92533 661.8 9.96V10.424C661.8 10.8613 661.725 11.144 661.576 11.272C661.437 11.3893 661.154 11.448 660.728 11.448H657.288V12.04C657.288 12.648 657.426 13.1067 657.704 13.416C657.992 13.7253 658.456 13.88 659.096 13.88H661.16C661.384 13.88 661.496 13.9973 661.496 14.232V14.328C661.496 14.5733 661.373 14.7493 661.128 14.856C660.893 14.952 660.456 15 659.816 15H658.984ZM660.264 10.488C660.402 10.488 660.488 10.4667 660.52 10.424C660.562 10.3813 660.584 10.28 660.584 10.12V9.784C660.584 8.568 660.05 7.96 658.984 7.96C657.853 7.96 657.288 8.568 657.288 9.784V10.488H660.264ZM666.32 8.04C666.075 8.04 665.952 7.92267 665.952 7.688V7.352C665.952 7.11733 666.075 7 666.32 7H667.056V5.768C667.056 5.52267 667.174 5.4 667.408 5.4H667.904C668.139 5.4 668.256 5.52267 668.256 5.768V7H669.616C669.862 7 669.984 7.11733 669.984 7.352V7.688C669.984 7.92267 669.862 8.04 669.616 8.04H668.256V13.208C668.256 13.5067 668.31 13.72 668.416 13.848C668.523 13.976 668.699 14.04 668.944 14.04H669.68C669.894 14.04 670 14.1627 670 14.408V14.504C670 14.7173 669.91 14.8827 669.728 15C669.547 15.1067 669.206 15.16 668.704 15.16C668.182 15.16 667.776 15 667.488 14.68C667.2 14.3493 667.056 13.8213 667.056 13.096V8.04H666.32ZM673.888 13.848C674.006 13.848 674.086 13.7573 674.128 13.576L675.776 7.368C675.84 7.12267 675.99 7 676.224 7H676.736C676.992 7 677.088 7.12267 677.024 7.368L674.224 17.416C674.16 17.6507 674.016 17.768 673.792 17.768H673.296C673.03 17.768 672.934 17.6507 673.008 17.416L673.76 15C673.483 15 673.259 14.968 673.088 14.904C672.918 14.8293 672.795 14.6533 672.72 14.376L670.816 7.368C670.752 7.12267 670.848 7 671.104 7H671.664C671.824 7 671.931 7.04267 671.984 7.128C672.048 7.20267 672.102 7.32 672.144 7.48L673.68 13.576C673.723 13.7573 673.792 13.848 673.888 13.848ZM678.423 8.552C678.423 8.14667 678.487 7.83733 678.615 7.624C678.743 7.41067 678.94 7.25067 679.207 7.144C679.484 7.02667 679.793 6.94667 680.135 6.904C680.487 6.86133 680.833 6.84 681.175 6.84C682.113 6.84 682.833 7.11733 683.335 7.672C683.847 8.216 684.103 9.064 684.103 10.216V11.8C684.103 12.952 683.847 13.8 683.335 14.344C682.823 14.888 682.097 15.16 681.159 15.16C680.881 15.16 680.609 15.1387 680.343 15.096C680.087 15.0533 679.847 14.9893 679.623 14.904V17.416C679.623 17.6507 679.505 17.768 679.271 17.768H678.775C678.54 17.768 678.423 17.6507 678.423 17.416V8.552ZM681.175 14.04C681.793 14.04 682.231 13.8747 682.487 13.544C682.743 13.2133 682.871 12.7013 682.871 12.008V9.992C682.871 9.32 682.743 8.81333 682.487 8.472C682.231 8.13067 681.793 7.96 681.175 7.96C680.684 7.96 680.284 8.01867 679.975 8.136C679.825 8.18933 679.729 8.28533 679.687 8.424C679.644 8.552 679.623 8.77067 679.623 9.08V13.192C679.623 13.4267 679.649 13.5867 679.703 13.672C679.756 13.7573 679.847 13.8267 679.975 13.88C680.145 13.944 680.332 13.9867 680.535 14.008C680.737 14.0293 680.951 14.04 681.175 14.04ZM688.452 15C687.514 15 686.794 14.728 686.292 14.184C685.791 13.6293 685.54 12.808 685.54 11.72V10.488C685.54 8.056 686.511 6.84 688.452 6.84C689.327 6.84 690.015 7.10133 690.516 7.624C691.018 8.14667 691.268 8.92533 691.268 9.96V10.424C691.268 10.8613 691.194 11.144 691.044 11.272C690.906 11.3893 690.623 11.448 690.196 11.448H686.756V12.04C686.756 12.648 686.895 13.1067 687.172 13.416C687.46 13.7253 687.924 13.88 688.564 13.88H690.628C690.852 13.88 690.964 13.9973 690.964 14.232V14.328C690.964 14.5733 690.842 14.7493 690.596 14.856C690.362 14.952 689.924 15 689.284 15H688.452ZM689.732 10.488C689.871 10.488 689.956 10.4667 689.988 10.424C690.031 10.3813 690.052 10.28 690.052 10.12V9.784C690.052 8.568 689.519 7.96 688.452 7.96C687.322 7.96 686.756 8.568 686.756 9.784V10.488H689.732ZM696.813 7.224C696.728 7.30933 696.653 7.352 696.589 7.352C696.525 7.352 696.451 7.30933 696.365 7.224L696.013 6.856C695.939 6.78133 695.901 6.712 695.901 6.648C695.901 6.584 695.944 6.50933 696.029 6.424L697.933 4.728C698.051 4.62133 698.173 4.52 698.301 4.424C698.44 4.328 698.579 4.28 698.717 4.28H699.101C699.379 4.28 699.517 4.40267 699.517 4.648V14.648C699.517 14.8827 699.4 15 699.165 15H698.669C698.435 15 698.317 14.8827 698.317 14.648V5.848L696.813 7.224Z" fill="#212121"/>
<g clip-path="url(#clip2_892_3716)">
<mask id="path-14-inside-3_892_3716" fill="white">
<path d="M711.5 99C711.5 82.2914 704.863 66.2671 693.048 54.4523C681.233 42.6375 665.209 36 648.5 36C631.791 36 615.767 42.6375 603.952 54.4523C592.137 66.2671 585.5 82.2913 585.5 99L604.687 99C604.687 87.3801 609.303 76.2361 617.52 68.0196C625.736 59.8031 636.88 55.1871 648.5 55.1871C660.12 55.1871 671.264 59.8031 679.48 68.0196C687.697 76.2361 692.313 87.3801 692.313 99H711.5Z"/>
</mask>
<path d="M711.5 99C711.5 82.2914 704.863 66.2671 693.048 54.4523C681.233 42.6375 665.209 36 648.5 36C631.791 36 615.767 42.6375 603.952 54.4523C592.137 66.2671 585.5 82.2913 585.5 99L604.687 99C604.687 87.3801 609.303 76.2361 617.52 68.0196C625.736 59.8031 636.88 55.1871 648.5 55.1871C660.12 55.1871 671.264 59.8031 679.48 68.0196C687.697 76.2361 692.313 87.3801 692.313 99H711.5Z" fill="#4D4D4D" fill-opacity="0.3" stroke="#4D4D4D" stroke-opacity="0.3" stroke-width="2" mask="url(#path-14-inside-3_892_3716)"/>
<path d="M631.309 38.3907C618.161 42.1201 606.582 50.024 598.319 60.9103C590.055 71.7966 585.557 85.0748 585.501 98.7419L604.687 98.8205C604.726 89.3158 607.855 80.0816 613.602 72.5108C619.348 64.94 627.401 59.4432 636.545 56.8497L631.309 38.3907Z" fill="#AF0929"/>
<path d="M633.827 95C633.427 95 633.227 94.8 633.227 94.4V84.6L632.067 85.8C631.921 85.9467 631.781 86.02 631.647 86.02C631.487 86.02 631.341 85.94 631.207 85.78L630.547 85.1C630.401 84.9533 630.327 84.8133 630.327 84.68C630.327 84.5467 630.407 84.4067 630.567 84.26L633.227 81.88C633.414 81.6933 633.614 81.6 633.827 81.6H634.887C635.287 81.6 635.487 81.8 635.487 82.2V94.4C635.487 94.8 635.287 95 634.887 95H633.827ZM639.893 91.58C639.893 91.9 639.94 92.16 640.033 92.36C640.14 92.56 640.273 92.72 640.433 92.84C640.593 92.96 640.766 93.0467 640.953 93.1C641.14 93.14 641.32 93.16 641.493 93.16C642 93.16 642.406 93.02 642.713 92.74C643.02 92.46 643.173 92.02 643.173 91.42V90.72C643.173 90.2533 643.04 89.8733 642.773 89.58C642.52 89.2733 642.186 89.12 641.773 89.12H640.473C640.073 89.12 639.873 88.92 639.873 88.52V87.68C639.873 87.28 640.073 87.08 640.473 87.08H641.773C642.12 87.08 642.406 86.9667 642.633 86.74C642.86 86.5133 642.973 86.2267 642.973 85.88V85.22C642.973 84.62 642.84 84.1733 642.573 83.88C642.306 83.5867 641.946 83.44 641.493 83.44C641.333 83.44 641.16 83.4667 640.973 83.52C640.8 83.56 640.64 83.64 640.493 83.76C640.346 83.88 640.226 84.04 640.133 84.24C640.04 84.44 639.993 84.7 639.993 85.02C639.993 85.26 639.933 85.4267 639.813 85.52C639.706 85.6 639.566 85.64 639.393 85.64H638.453C638.226 85.64 638.04 85.58 637.893 85.46C637.76 85.3267 637.693 85.1267 637.693 84.86C637.693 84.34 637.786 83.8667 637.973 83.44C638.16 83.0133 638.42 82.6533 638.753 82.36C639.086 82.0533 639.486 81.82 639.953 81.66C640.42 81.4867 640.933 81.4 641.493 81.4C642.133 81.4 642.693 81.5 643.173 81.7C643.653 81.8867 644.053 82.16 644.373 82.52C644.706 82.8667 644.953 83.28 645.113 83.76C645.286 84.24 645.373 84.76 645.373 85.32V85.58C645.373 86.2467 645.253 86.7933 645.013 87.22C644.773 87.6467 644.48 87.9733 644.133 88.2C644.6 88.3867 644.953 88.74 645.193 89.26C645.446 89.78 645.573 90.3667 645.573 91.02V91.32C645.573 91.88 645.486 92.4 645.313 92.88C645.14 93.36 644.88 93.7733 644.533 94.12C644.2 94.4533 643.773 94.72 643.253 94.92C642.746 95.1067 642.16 95.2 641.493 95.2C640.92 95.2 640.393 95.12 639.913 94.96C639.433 94.7867 639.02 94.5533 638.673 94.26C638.34 93.9533 638.073 93.5867 637.873 93.16C637.686 92.7333 637.593 92.26 637.593 91.74V91.44C637.593 91.1733 637.66 90.98 637.793 90.86C637.94 90.7267 638.126 90.66 638.353 90.66H639.293C639.453 90.66 639.593 90.7067 639.713 90.8C639.833 90.88 639.893 91.04 639.893 91.28V91.58ZM647.08 93.26C647.133 93.0733 647.206 92.9267 647.3 92.82C647.393 92.7133 647.54 92.66 647.74 92.66H649.06C649.206 92.66 649.333 92.6933 649.44 92.76C649.546 92.8267 649.6 92.9333 649.6 93.08C649.6 93.2133 649.553 93.3667 649.46 93.54L647.74 96.92C647.673 97.0533 647.526 97.12 647.3 97.12H646.34C646.126 97.12 646.053 97.0133 646.12 96.8L647.08 93.26ZM658.796 91.52C658.796 92.0533 658.709 92.5467 658.536 93C658.376 93.4533 658.129 93.8467 657.796 94.18C657.462 94.5 657.042 94.7533 656.536 94.94C656.042 95.1133 655.469 95.2 654.816 95.2C654.242 95.2 653.716 95.12 653.236 94.96C652.756 94.7867 652.342 94.5533 651.996 94.26C651.662 93.9533 651.396 93.5867 651.196 93.16C651.009 92.7333 650.916 92.26 650.916 91.74V91.44C650.916 91.1733 650.982 90.98 651.116 90.86C651.262 90.7267 651.449 90.66 651.676 90.66H652.616C652.776 90.66 652.916 90.7067 653.036 90.8C653.156 90.88 653.216 91.04 653.216 91.28V91.58C653.216 91.9 653.262 92.16 653.356 92.36C653.462 92.56 653.596 92.72 653.756 92.84C653.916 92.96 654.089 93.0467 654.276 93.1C654.462 93.14 654.642 93.16 654.816 93.16C655.296 93.16 655.676 93.02 655.956 92.74C656.249 92.46 656.396 92.02 656.396 91.42V89.82C656.396 89.5267 656.349 89.28 656.256 89.08C656.162 88.88 656.036 88.72 655.876 88.6C655.729 88.4667 655.549 88.3733 655.336 88.32C655.136 88.2667 654.922 88.24 654.696 88.24C654.429 88.24 654.176 88.2733 653.936 88.34C653.709 88.4067 653.509 88.5267 653.336 88.7C653.229 88.8067 653.056 88.86 652.816 88.86H651.876C651.476 88.86 651.276 88.66 651.276 88.26V82.2C651.276 81.8 651.476 81.6 651.876 81.6H657.656C658.056 81.6 658.256 81.8 658.256 82.2V83.04C658.256 83.44 658.056 83.64 657.656 83.64H653.536V86.54C653.722 86.4467 653.942 86.3667 654.196 86.3C654.462 86.2333 654.769 86.2 655.116 86.2C655.636 86.2 656.116 86.28 656.556 86.44C657.009 86.6 657.396 86.84 657.716 87.16C658.049 87.4667 658.309 87.8533 658.496 88.32C658.696 88.7867 658.796 89.32 658.796 89.92V91.52ZM670.046 89.56C669.873 89.56 669.719 89.62 669.586 89.74C669.453 89.86 669.386 90.04 669.386 90.28V92.92C669.386 93.1467 669.439 93.3267 669.546 93.46C669.666 93.58 669.813 93.64 669.986 93.64C670.186 93.64 670.353 93.58 670.486 93.46C670.633 93.3267 670.706 93.1467 670.706 92.92V90.3C670.706 90.0733 670.639 89.8933 670.506 89.76C670.386 89.6267 670.233 89.56 670.046 89.56ZM670.066 88.02C670.559 88.02 670.966 88.0933 671.286 88.24C671.606 88.3867 671.859 88.5933 672.046 88.86C672.233 89.1133 672.366 89.42 672.446 89.78C672.526 90.14 672.566 90.54 672.566 90.98V92.22C672.566 93.2867 672.353 94.0533 671.926 94.52C671.499 94.9733 670.846 95.2 669.966 95.2C669.126 95.2 668.506 94.96 668.106 94.48C667.706 94 667.506 93.24 667.506 92.2V90.98C667.506 89.8867 667.713 89.12 668.126 88.68C668.553 88.24 669.199 88.02 670.066 88.02ZM663.006 87.04C663.179 87.04 663.333 86.98 663.466 86.86C663.599 86.74 663.666 86.56 663.666 86.32V83.68C663.666 83.4533 663.606 83.28 663.486 83.16C663.379 83.0267 663.239 82.96 663.066 82.96C662.866 82.96 662.693 83.0267 662.546 83.16C662.413 83.28 662.346 83.4533 662.346 83.68V86.3C662.346 86.5267 662.406 86.7067 662.526 86.84C662.659 86.9733 662.819 87.04 663.006 87.04ZM662.986 88.58C662.493 88.58 662.086 88.5133 661.766 88.38C661.446 88.2333 661.186 88.0333 660.986 87.78C660.799 87.5133 660.666 87.2 660.586 86.84C660.519 86.4667 660.486 86.06 660.486 85.62V84.38C660.486 83.3133 660.699 82.5533 661.126 82.1C661.553 81.6333 662.206 81.4 663.086 81.4C663.926 81.4 664.546 81.64 664.946 82.12C665.346 82.6 665.546 83.36 665.546 84.4V85.62C665.546 86.1667 665.493 86.6333 665.386 87.02C665.279 87.3933 665.119 87.7 664.906 87.94C664.706 88.1667 664.446 88.3333 664.126 88.44C663.806 88.5333 663.426 88.58 662.986 88.58ZM668.466 82.02C668.533 81.86 668.606 81.7533 668.686 81.7C668.766 81.6333 668.893 81.6 669.066 81.6H669.826C670.133 81.6 670.286 81.72 670.286 81.96C670.286 82.08 670.259 82.1933 670.206 82.3L664.586 94.58C664.506 94.74 664.426 94.8533 664.346 94.92C664.266 94.9733 664.146 95 663.986 95H663.226C662.906 95 662.746 94.88 662.746 94.64C662.746 94.5467 662.779 94.4333 662.846 94.3L668.466 82.02Z" fill="#212121"/>
<path d="M593.979 113.04C594.683 113.04 595.189 112.816 595.499 112.368C595.819 111.909 595.979 111.2 595.979 110.24V107.056C595.979 106.149 595.824 105.456 595.515 104.976C595.216 104.485 594.715 104.24 594.011 104.24C593.307 104.24 592.8 104.475 592.491 104.944C592.181 105.403 592.027 106.101 592.027 107.04V110.24C592.027 111.179 592.176 111.883 592.475 112.352C592.773 112.811 593.275 113.04 593.979 113.04ZM594.027 103.12C595.093 103.12 595.893 103.451 596.427 104.112C596.971 104.773 597.243 105.84 597.243 107.312V109.984C597.243 110.741 597.168 111.387 597.019 111.92C596.88 112.443 596.672 112.875 596.395 113.216C596.117 113.547 595.771 113.787 595.355 113.936C594.949 114.085 594.485 114.16 593.963 114.16C592.843 114.16 592.027 113.803 591.515 113.088C591.013 112.363 590.763 111.328 590.763 109.984V107.312C590.763 105.829 591.04 104.763 591.595 104.112C592.16 103.451 592.971 103.12 594.027 103.12Z" fill="#212121"/>
<path d="M694.773 109.008C694.527 109.008 694.405 108.891 694.405 108.656V108.288C694.405 108.043 694.527 107.92 694.773 107.92H695.829C696.33 107.92 696.693 107.776 696.917 107.488C697.151 107.189 697.269 106.784 697.269 106.272V106.016C697.269 105.408 697.114 104.96 696.805 104.672C696.506 104.384 696.101 104.24 695.589 104.24C695.407 104.24 695.221 104.261 695.029 104.304C694.837 104.347 694.661 104.427 694.501 104.544C694.341 104.651 694.207 104.805 694.101 105.008C693.994 105.2 693.941 105.451 693.941 105.76C693.941 106.005 693.818 106.128 693.573 106.128H693.125C692.837 106.128 692.693 105.984 692.693 105.696C692.693 105.301 692.762 104.949 692.901 104.64C693.05 104.32 693.253 104.048 693.509 103.824C693.765 103.6 694.069 103.429 694.421 103.312C694.773 103.184 695.162 103.12 695.589 103.12C696.069 103.12 696.495 103.195 696.869 103.344C697.242 103.493 697.551 103.701 697.797 103.968C698.042 104.235 698.229 104.549 698.357 104.912C698.485 105.275 698.549 105.669 698.549 106.096V106.32C698.549 106.875 698.421 107.339 698.165 107.712C697.919 108.075 697.626 108.336 697.285 108.496C697.733 108.645 698.079 108.944 698.325 109.392C698.581 109.829 698.709 110.352 698.709 110.96V111.216C698.709 112.08 698.447 112.789 697.925 113.344C697.413 113.888 696.65 114.16 695.637 114.16C695.199 114.16 694.794 114.101 694.421 113.984C694.058 113.867 693.743 113.696 693.477 113.472C693.21 113.248 692.997 112.976 692.837 112.656C692.687 112.336 692.613 111.979 692.613 111.584V111.328C692.613 111.04 692.751 110.896 693.029 110.896H693.493C693.589 110.896 693.669 110.923 693.733 110.976C693.807 111.029 693.845 111.125 693.845 111.264V111.44C693.845 111.771 693.903 112.043 694.021 112.256C694.138 112.459 694.282 112.619 694.453 112.736C694.634 112.853 694.826 112.933 695.029 112.976C695.242 113.019 695.445 113.04 695.637 113.04C696.181 113.04 696.613 112.907 696.933 112.64C697.263 112.363 697.429 111.92 697.429 111.312V110.864C697.429 110.309 697.279 109.861 696.981 109.52C696.682 109.179 696.298 109.008 695.829 109.008H694.773ZM703.69 113.04C704.394 113.04 704.9 112.816 705.21 112.368C705.53 111.909 705.69 111.2 705.69 110.24V107.056C705.69 106.149 705.535 105.456 705.226 104.976C704.927 104.485 704.426 104.24 703.722 104.24C703.018 104.24 702.511 104.475 702.202 104.944C701.892 105.403 701.738 106.101 701.738 107.04V110.24C701.738 111.179 701.887 111.883 702.186 112.352C702.484 112.811 702.986 113.04 703.69 113.04ZM703.738 103.12C704.804 103.12 705.604 103.451 706.138 104.112C706.682 104.773 706.954 105.84 706.954 107.312V109.984C706.954 110.741 706.879 111.387 706.73 111.92C706.591 112.443 706.383 112.875 706.106 113.216C705.828 113.547 705.482 113.787 705.066 113.936C704.66 114.085 704.196 114.16 703.674 114.16C702.554 114.16 701.738 113.803 701.226 113.088C700.724 112.363 700.474 111.328 700.474 109.984V107.312C700.474 105.829 700.751 104.763 701.306 104.112C701.871 103.451 702.682 103.12 703.738 103.12ZM715.572 109.264C714.996 109.264 714.708 109.685 714.708 110.528V112.016C714.708 112.421 714.772 112.736 714.9 112.96C715.028 113.173 715.241 113.28 715.54 113.28C715.86 113.28 716.089 113.173 716.228 112.96C716.367 112.747 716.436 112.432 716.436 112.016V110.528C716.436 110.123 716.367 109.813 716.228 109.6C716.1 109.376 715.881 109.264 715.572 109.264ZM715.54 114.16C714.932 114.16 714.468 113.979 714.148 113.616C713.839 113.253 713.684 112.661 713.684 111.84V110.688C713.684 109.856 713.844 109.269 714.164 108.928C714.495 108.576 714.964 108.4 715.572 108.4C716.244 108.4 716.724 108.597 717.012 108.992C717.311 109.376 717.46 109.941 717.46 110.688V111.856C717.46 112.677 717.295 113.269 716.964 113.632C716.644 113.984 716.169 114.16 715.54 114.16ZM710.436 108.016C711.012 108.016 711.3 107.6 711.3 106.768V105.28C711.3 104.437 711.023 104.016 710.468 104.016C710.148 104.016 709.919 104.123 709.78 104.336C709.641 104.549 709.572 104.864 709.572 105.28V106.752C709.572 107.157 709.636 107.472 709.764 107.696C709.903 107.909 710.127 108.016 710.436 108.016ZM710.468 103.12C711.076 103.12 711.535 103.307 711.844 103.68C712.164 104.043 712.324 104.629 712.324 105.44V106.592C712.324 107.424 712.159 108.016 711.828 108.368C711.508 108.72 711.044 108.896 710.436 108.896C709.764 108.896 709.279 108.699 708.98 108.304C708.692 107.909 708.548 107.339 708.548 106.592V105.44C708.548 104.608 708.708 104.016 709.028 103.664C709.359 103.301 709.839 103.12 710.468 103.12ZM714.804 103.568C714.857 103.451 714.905 103.376 714.948 103.344C715.001 103.301 715.087 103.28 715.204 103.28H715.556C715.727 103.28 715.823 103.323 715.844 103.408C715.865 103.483 715.844 103.589 715.78 103.728L711.204 113.712C711.151 113.829 711.097 113.909 711.044 113.952C711.001 113.984 710.921 114 710.804 114H710.452C710.281 114 710.185 113.963 710.164 113.888C710.143 113.803 710.164 113.691 710.228 113.552L714.804 103.568Z" fill="#212121"/>
</g>
<defs>
<clipPath id="clip0_892_3716">
<rect width="133" height="95" fill="white" transform="translate(89.5 36)"/>
</clipPath>
<clipPath id="clip1_892_3716">
<rect width="133" height="95" fill="white" transform="translate(339 36)"/>
</clipPath>
<clipPath id="clip2_892_3716">
<rect width="133" height="95" fill="white" transform="translate(585.5 36)"/>
</clipPath>
</defs>
</svg>
