<svg width="395" height="395" viewBox="0 0 395 395" fill="none" xmlns="http://www.w3.org/2000/svg">
<rect width="395" height="395" rx="8" fill="#F7F9FB"/>
<line x1="67.8745" y1="300.582" x2="174.072" y2="193.905" stroke="#212121" stroke-width="1.55716" stroke-linecap="round" stroke-dasharray="3.11 3.11"/>
<line x1="174.072" y1="193.905" x2="67.3942" y2="87.7073" stroke="#212121" stroke-width="1.55716" stroke-linecap="round" stroke-dasharray="3.11 3.11"/>
<line x1="280.269" y1="87.2271" x2="174.072" y2="193.905" stroke="#212121" stroke-width="1.55716" stroke-linecap="round" stroke-dasharray="3.11 3.11"/>
<line x1="174.072" y1="193.905" x2="280.749" y2="300.102" stroke="#212121" stroke-width="1.55716" stroke-linecap="round" stroke-dasharray="3.11 3.11"/>
<g clip-path="url(#clip0_543_4464)">
<path d="M36.3549 181.266C35.8713 181.266 35.6295 181.024 35.6295 180.54V179.525C35.6295 179.041 35.8713 178.799 36.3549 178.799H44.8904C45.374 178.799 45.6158 179.041 45.6158 179.525V180.54C45.6158 181.024 45.374 181.266 44.8904 181.266H41.9888V194.275C41.9888 194.758 41.747 195 41.2634 195H39.9819C39.4983 195 39.2565 194.758 39.2565 194.275V181.266H36.3549ZM49.0926 199.183C48.8992 199.183 48.738 199.151 48.609 199.086C48.4801 199.022 48.4156 198.901 48.4156 198.724C48.4156 198.675 48.4317 198.587 48.4639 198.458L49.552 195C49.0362 195 48.5848 194.911 48.198 194.734C47.8272 194.541 47.5773 194.162 47.4484 193.598L45.0787 183.635C45.0143 183.394 45.0384 183.216 45.1513 183.103C45.2641 182.974 45.4414 182.91 45.6832 182.91H47.0857C47.5532 182.91 47.8353 183.152 47.932 183.635L49.6488 191.953C49.681 192.131 49.7213 192.243 49.7697 192.292C49.818 192.34 49.8825 192.364 49.9631 192.364C50.0437 192.364 50.1082 192.34 50.1565 192.292C50.221 192.243 50.2694 192.131 50.3016 191.953L52.0909 183.635C52.1877 183.152 52.4859 182.91 52.9856 182.91H54.3155C54.8313 182.91 55.0328 183.152 54.92 183.635L51.1721 198.458C51.1076 198.7 51.0109 198.877 50.8819 198.99C50.753 199.119 50.5676 199.183 50.3258 199.183H49.0926ZM57.5114 199.183C57.0278 199.183 56.786 198.941 56.786 198.458V185.497C56.786 184.74 56.9069 184.208 57.1487 183.901C57.3905 183.579 57.7452 183.329 58.2126 183.152C58.4222 183.071 58.664 182.999 58.938 182.934C59.2282 182.87 59.5103 182.821 59.7843 182.789C60.0584 182.741 60.3244 182.708 60.5823 182.692C60.8563 182.676 61.0901 182.668 61.2835 182.668C62.7988 182.668 63.9352 183.12 64.6929 184.022C65.4666 184.925 65.8535 186.255 65.8535 188.012V189.922C65.8535 191.679 65.4586 193.009 64.6687 193.912C63.8788 194.798 62.7262 195.242 61.211 195.242C60.9369 195.242 60.6548 195.226 60.3647 195.193C60.0906 195.161 59.8085 195.121 59.5184 195.073V198.458C59.5184 198.941 59.2766 199.183 58.793 199.183H57.5114ZM61.2593 192.775C62.4683 192.775 63.0728 192.171 63.0728 190.962V186.972C63.0728 185.747 62.4764 185.135 61.2835 185.135C61.0095 185.135 60.7596 185.143 60.5339 185.159C60.3244 185.175 60.1148 185.215 59.9052 185.28C59.7602 185.312 59.6554 185.384 59.5909 185.497C59.5425 185.594 59.5184 185.763 59.5184 186.005V191.929C59.5184 192.171 59.5425 192.348 59.5909 192.461C59.6554 192.558 59.7602 192.622 59.9052 192.655C60.1148 192.719 60.3324 192.759 60.5581 192.775C60.7838 192.775 61.0175 192.775 61.2593 192.775ZM72.6201 195.242C70.7986 195.242 69.4929 194.798 68.703 193.912C67.9292 193.025 67.5423 191.695 67.5423 189.922V187.988C67.5423 186.295 67.9534 184.989 68.7755 184.071C69.5976 183.136 70.7099 182.668 72.1124 182.668C73.4826 182.668 74.5465 183.079 75.3041 183.901C76.0779 184.723 76.4648 185.844 76.4648 187.262V188.302C76.4648 188.689 76.4406 189.003 76.3922 189.245C76.3439 189.487 76.2471 189.672 76.1021 189.801C75.9731 189.93 75.7958 190.019 75.5701 190.067C75.3444 190.116 75.0623 190.14 74.7238 190.14H70.323V190.865C70.323 191.446 70.4681 191.913 70.7583 192.268C71.0646 192.606 71.6207 192.775 72.4267 192.775H75.3283C75.8119 192.775 76.0537 193.017 76.0537 193.501V193.767C76.0537 194.057 75.9973 194.299 75.8844 194.492C75.7877 194.67 75.6023 194.815 75.3283 194.927C75.0704 195.04 74.7157 195.121 74.2644 195.169C73.8291 195.218 73.2811 195.242 72.6201 195.242ZM70.323 188.06H73.2488C73.4584 188.06 73.5873 188.028 73.6357 187.964C73.7002 187.899 73.7324 187.746 73.7324 187.504V186.972C73.7324 186.36 73.5873 185.9 73.2972 185.594C73.007 185.288 72.604 185.135 72.0882 185.135C70.9114 185.135 70.323 185.747 70.323 186.972V188.06ZM85.769 190.865C85.769 191.252 85.8254 191.566 85.9382 191.808C86.0672 192.05 86.2284 192.243 86.4218 192.389C86.6153 192.534 86.8248 192.638 87.0505 192.703C87.2762 192.751 87.4938 192.775 87.7034 192.775C88.3159 192.775 88.8076 192.606 89.1783 192.268C89.5491 191.929 89.7345 191.397 89.7345 190.672V189.825C89.7345 189.261 89.5733 188.802 89.2509 188.447C88.9446 188.076 88.5416 187.891 88.0419 187.891H86.4702C85.9866 187.891 85.7448 187.649 85.7448 187.166V186.15C85.7448 185.667 85.9866 185.425 86.4702 185.425H88.0419C88.461 185.425 88.8076 185.288 89.0816 185.014C89.3557 184.74 89.4927 184.393 89.4927 183.974V183.176C89.4927 182.451 89.3315 181.911 89.0091 181.556C88.6867 181.201 88.2514 181.024 87.7034 181.024C87.5099 181.024 87.3004 181.056 87.0747 181.121C86.8651 181.169 86.6717 181.266 86.4944 181.411C86.317 181.556 86.172 181.749 86.0591 181.991C85.9463 182.233 85.8899 182.547 85.8899 182.934C85.8899 183.224 85.8173 183.426 85.6722 183.539C85.5433 183.635 85.374 183.684 85.1645 183.684H84.028C83.754 183.684 83.5283 183.611 83.351 183.466C83.1898 183.305 83.1092 183.063 83.1092 182.741C83.1092 182.112 83.222 181.54 83.4477 181.024C83.6734 180.508 83.9877 180.073 84.3907 179.718C84.7937 179.347 85.2773 179.065 85.8415 178.872C86.4057 178.662 87.0263 178.558 87.7034 178.558C88.4771 178.558 89.1542 178.678 89.7345 178.92C90.3148 179.146 90.7984 179.476 91.1853 179.912C91.5883 180.331 91.8865 180.831 92.0799 181.411C92.2895 181.991 92.3943 182.62 92.3943 183.297V183.611C92.3943 184.417 92.2492 185.078 91.959 185.594C91.6689 186.11 91.3142 186.505 90.8951 186.779C91.4593 187.004 91.8865 187.432 92.1767 188.06C92.4829 188.689 92.6361 189.398 92.6361 190.188V190.551C92.6361 191.228 92.5313 191.857 92.3217 192.437C92.1122 193.017 91.7978 193.517 91.3787 193.936C90.9757 194.339 90.4599 194.661 89.8312 194.903C89.2186 195.129 88.5094 195.242 87.7034 195.242C87.0102 195.242 86.3735 195.145 85.7931 194.952C85.2128 194.742 84.7131 194.46 84.294 194.105C83.891 193.735 83.5686 193.291 83.3268 192.775C83.1011 192.26 82.9883 191.687 82.9883 191.059V190.696C82.9883 190.374 83.0689 190.14 83.2301 189.995C83.4074 189.834 83.6331 189.753 83.9071 189.753H85.0436C85.237 189.753 85.4063 189.809 85.5513 189.922C85.6964 190.019 85.769 190.212 85.769 190.503V190.865Z" fill="#212121"/>
</g>
<g clip-path="url(#clip1_543_4464)">
<path opacity="0.3" d="M35.2815 153.978C36.4753 153.978 37.3525 154.305 37.9131 154.959C38.4737 155.613 38.754 156.636 38.754 158.027V160.347C38.754 161.749 38.4737 162.776 37.9131 163.43C37.3525 164.084 36.4753 164.411 35.2815 164.411H32.5876C32.2762 164.411 32.1205 164.256 32.1205 163.944V154.446C32.1205 154.134 32.2762 153.978 32.5876 153.978H35.2815ZM33.8801 155.567V162.823H35.2815C35.8421 162.823 36.2521 162.662 36.5117 162.34C36.7816 162.019 36.9165 161.515 36.9165 160.83V157.544C36.9165 156.859 36.7816 156.361 36.5117 156.049C36.2521 155.728 35.8421 155.567 35.2815 155.567H33.8801ZM40.784 164.411C40.4726 164.411 40.3169 164.256 40.3169 163.944V157.093C40.3169 156.781 40.4726 156.626 40.784 156.626H41.6093C41.9207 156.626 42.0765 156.781 42.0765 157.093V163.944C42.0765 164.256 41.9207 164.411 41.6093 164.411H40.784ZM41.2044 155.925C40.5504 155.925 40.2234 155.598 40.2234 154.944C40.2234 154.3 40.5504 153.978 41.2044 153.978C41.8585 153.978 42.1855 154.3 42.1855 154.944C42.1855 155.598 41.8585 155.925 41.2044 155.925ZM46.1664 164.567C45.7512 164.567 45.3723 164.51 45.0297 164.396C44.6871 164.282 44.3965 164.131 44.1577 163.944C43.9189 163.747 43.7321 163.524 43.5971 163.275C43.4622 163.026 43.3947 162.766 43.3947 162.496C43.3947 162.185 43.5504 162.029 43.8618 162.029H44.6093C44.765 162.029 44.874 162.07 44.9363 162.153C45.0089 162.226 45.0764 162.34 45.1387 162.496C45.201 162.641 45.3048 162.761 45.4501 162.854C45.6059 162.937 45.8239 162.979 46.1041 162.979C46.7789 162.979 47.1163 162.735 47.1163 162.247C47.1163 162.008 47.0229 161.821 46.836 161.686C46.6595 161.541 46.4312 161.416 46.1509 161.313C45.881 161.198 45.5851 161.089 45.2633 160.986C44.9518 160.871 44.656 160.731 44.3757 160.565C44.1058 160.389 43.8774 160.166 43.6905 159.896C43.5141 159.615 43.4258 159.257 43.4258 158.821C43.4258 158.499 43.4881 158.193 43.6127 157.902C43.7373 157.612 43.9137 157.363 44.1421 157.155C44.3705 156.947 44.6456 156.781 44.9674 156.657C45.2996 156.532 45.663 156.47 46.0574 156.47C46.4934 156.47 46.8827 156.532 47.2253 156.657C47.5679 156.771 47.8534 156.932 48.0817 157.139C48.3205 157.347 48.5022 157.596 48.6268 157.887C48.7513 158.167 48.8136 158.473 48.8136 158.806C48.8136 159.117 48.6579 159.273 48.3465 159.273H47.5212C47.3654 159.273 47.2513 159.236 47.1786 159.164C47.1163 159.081 47.0748 158.961 47.054 158.806C47.0229 158.598 46.9294 158.421 46.7737 158.276C46.6284 158.131 46.3896 158.058 46.0574 158.058C45.7771 158.058 45.5591 158.115 45.4034 158.229C45.2477 158.344 45.1699 158.515 45.1699 158.743C45.1699 158.972 45.2581 159.153 45.4346 159.288C45.6214 159.423 45.8498 159.548 46.1197 159.662C46.4 159.766 46.6959 159.875 47.0073 159.989C47.3291 160.103 47.625 160.254 47.8949 160.441C48.1752 160.617 48.4036 160.845 48.58 161.126C48.7669 161.406 48.8603 161.764 48.8603 162.2C48.8603 162.522 48.798 162.828 48.6735 163.119C48.5489 163.399 48.3672 163.648 48.1285 163.866C47.9001 164.084 47.6198 164.256 47.2876 164.38C46.9554 164.505 46.5817 164.567 46.1664 164.567ZM49.9524 158.12C49.641 158.12 49.4853 157.965 49.4853 157.653V157.093C49.4853 156.781 49.641 156.626 49.9524 156.626H50.4507V155.536C50.4507 155.224 50.6064 155.068 50.9178 155.068H51.7431C52.0546 155.068 52.2103 155.224 52.2103 155.536V156.626H53.2692C53.5806 156.626 53.7363 156.781 53.7363 157.093V157.653C53.7363 157.965 53.5806 158.12 53.2692 158.12H52.2103V162.512C52.2103 162.823 52.366 162.979 52.6774 162.979H53.2692C53.5806 162.979 53.7363 163.135 53.7363 163.446V163.617C53.7363 164.25 53.2328 164.567 52.2259 164.567C51.8729 164.567 51.5822 164.52 51.3539 164.427C51.1255 164.344 50.9438 164.214 50.8088 164.038C50.6739 163.861 50.5805 163.638 50.5286 163.368C50.4766 163.088 50.4507 162.761 50.4507 162.387V158.12H49.9524ZM55.2151 164.411C54.9037 164.411 54.748 164.256 54.748 163.944V158.292C54.748 157.804 54.8258 157.461 54.9815 157.264C55.1373 157.056 55.3656 156.895 55.6667 156.781C55.947 156.667 56.248 156.589 56.5699 156.548C56.8917 156.496 57.2031 156.47 57.5042 156.47C57.9298 156.47 58.2153 156.511 58.3606 156.594C58.5163 156.677 58.5942 156.859 58.5942 157.139V157.762C58.5942 158.063 58.4384 158.214 58.127 158.214H57.5042C57.3588 158.214 57.2187 158.219 57.0837 158.229C56.9488 158.24 56.8346 158.261 56.7411 158.292C56.6477 158.323 56.5854 158.37 56.5543 158.432C56.5231 158.494 56.5076 158.603 56.5076 158.759V163.944C56.5076 164.256 56.3519 164.411 56.0404 164.411H55.2151ZM60.066 164.411C59.7546 164.411 59.5989 164.256 59.5989 163.944V157.093C59.5989 156.781 59.7546 156.626 60.066 156.626H60.8913C61.2028 156.626 61.3585 156.781 61.3585 157.093V163.944C61.3585 164.256 61.2028 164.411 60.8913 164.411H60.066ZM60.4865 155.925C59.8325 155.925 59.5055 155.598 59.5055 154.944C59.5055 154.3 59.8325 153.978 60.4865 153.978C61.1405 153.978 61.4675 154.3 61.4675 154.944C61.4675 155.598 61.1405 155.925 60.4865 155.925ZM65.9156 164.567C65.6146 164.567 65.2979 164.546 64.9658 164.505C64.6336 164.474 64.3169 164.417 64.0159 164.334C63.6941 164.25 63.4553 164.11 63.2996 163.913C63.1439 163.705 63.066 163.353 63.066 162.854V154.446C63.066 154.134 63.2217 153.978 63.5332 153.978H64.3585C64.6699 153.978 64.8256 154.134 64.8256 154.446V156.641C65.1993 156.527 65.6042 156.47 66.0402 156.47C66.9745 156.47 67.6856 156.761 68.1735 157.342C68.6614 157.923 68.9054 158.78 68.9054 159.911V161.141C68.9054 162.273 68.651 163.129 68.1424 163.711C67.6337 164.282 66.8914 164.567 65.9156 164.567ZM65.9468 162.979C66.7253 162.979 67.1146 162.589 67.1146 161.811V159.242C67.1146 158.453 66.7305 158.058 65.9623 158.058C65.7859 158.058 65.625 158.063 65.4796 158.074C65.3447 158.084 65.2097 158.11 65.0748 158.152C64.9813 158.172 64.9138 158.219 64.8723 158.292C64.8412 158.354 64.8256 158.463 64.8256 158.619V162.434C64.8256 162.589 64.8412 162.704 64.8723 162.776C64.9138 162.839 64.9813 162.88 65.0748 162.901C65.2097 162.942 65.3499 162.968 65.4952 162.979C65.6405 162.979 65.791 162.979 65.9468 162.979ZM72.936 164.567C72.0536 164.567 71.3788 164.297 70.9117 163.757C70.4549 163.218 70.2265 162.346 70.2265 161.141V157.093C70.2265 156.781 70.3822 156.626 70.6937 156.626H71.519C71.8304 156.626 71.9861 156.781 71.9861 157.093V161.795C71.9861 162.19 72.0692 162.486 72.2353 162.683C72.4117 162.88 72.6557 162.979 72.9671 162.979C73.6211 162.979 73.9481 162.589 73.9481 161.811V157.093C73.9481 156.781 74.1039 156.626 74.4153 156.626H75.2406C75.552 156.626 75.7077 156.781 75.7077 157.093V161.141C75.7077 162.346 75.4742 163.218 75.007 163.757C74.5399 164.297 73.8495 164.567 72.936 164.567ZM77.1115 158.12C76.8001 158.12 76.6443 157.965 76.6443 157.653V157.093C76.6443 156.781 76.8001 156.626 77.1115 156.626H77.6098V155.536C77.6098 155.224 77.7655 155.068 78.0769 155.068H78.9022C79.2137 155.068 79.3694 155.224 79.3694 155.536V156.626H80.4282C80.7397 156.626 80.8954 156.781 80.8954 157.093V157.653C80.8954 157.965 80.7397 158.12 80.4282 158.12H79.3694V162.512C79.3694 162.823 79.5251 162.979 79.8365 162.979H80.4282C80.7397 162.979 80.8954 163.135 80.8954 163.446V163.617C80.8954 164.25 80.3919 164.567 79.3849 164.567C79.032 164.567 78.7413 164.52 78.5129 164.427C78.2846 164.344 78.1029 164.214 77.9679 164.038C77.833 163.861 77.7395 163.638 77.6876 163.368C77.6357 163.088 77.6098 162.761 77.6098 162.387V158.12H77.1115ZM82.3742 164.411C82.0628 164.411 81.9071 164.256 81.9071 163.944V157.093C81.9071 156.781 82.0628 156.626 82.3742 156.626H83.1995C83.5109 156.626 83.6667 156.781 83.6667 157.093V163.944C83.6667 164.256 83.5109 164.411 83.1995 164.411H82.3742ZM82.7946 155.925C82.1406 155.925 81.8136 155.598 81.8136 154.944C81.8136 154.3 82.1406 153.978 82.7946 153.978C83.4487 153.978 83.7757 154.3 83.7757 154.944C83.7757 155.598 83.4487 155.925 82.7946 155.925ZM87.9591 162.979C88.7377 162.979 89.1269 162.589 89.1269 161.811V159.242C89.1269 158.453 88.7584 158.058 88.0214 158.058C87.2428 158.058 86.8535 158.447 86.8535 159.226V161.795C86.8535 162.584 87.222 162.979 87.9591 162.979ZM87.9279 164.567C86.9936 164.567 86.2825 164.282 85.7946 163.711C85.3067 163.129 85.0627 162.273 85.0627 161.141V159.896C85.0627 158.774 85.3171 157.923 85.8258 157.342C86.3344 156.761 87.0767 156.47 88.0525 156.47C88.9868 156.47 89.6979 156.761 90.1858 157.342C90.6737 157.923 90.9177 158.78 90.9177 159.911V161.141C90.9177 162.273 90.6633 163.129 90.1547 163.711C89.646 164.282 88.9037 164.567 87.9279 164.567ZM92.7908 164.411C92.4793 164.411 92.3236 164.256 92.3236 163.944V158.292C92.3236 157.804 92.4015 157.461 92.5572 157.264C92.7129 157.056 92.9413 156.895 93.2423 156.781C93.5226 156.667 93.8185 156.589 94.1299 156.548C94.4517 156.496 94.758 156.47 95.0487 156.47C96.1179 156.47 96.8705 156.719 97.3065 157.217C97.7425 157.716 97.9605 158.489 97.9605 159.537V163.944C97.9605 164.256 97.8048 164.411 97.4934 164.411H96.6681C96.3567 164.411 96.201 164.256 96.201 163.944V159.382C96.201 158.915 96.1179 158.577 95.9518 158.37C95.7857 158.162 95.495 158.058 95.0798 158.058C94.9345 158.058 94.7943 158.063 94.6594 158.074C94.5244 158.084 94.4102 158.105 94.3168 158.136C94.2234 158.167 94.1611 158.214 94.1299 158.276C94.0988 158.338 94.0832 158.447 94.0832 158.603V163.944C94.0832 164.256 93.9275 164.411 93.6161 164.411H92.7908Z" fill="#212121"/>
</g>
<rect x="227.952" y="257" width="69.2636" height="69.2289" rx="4.15243" transform="rotate(45 227.952 257)" fill="#7F7F7F"/>
<path d="M227.46 301.229C227.46 301.559 227.405 301.845 227.295 302.087C227.185 302.322 227.031 302.516 226.833 302.67C226.642 302.817 226.415 302.927 226.151 303C225.887 303.073 225.601 303.11 225.293 303.11C224.574 303.11 224.01 302.901 223.599 302.483C223.188 302.058 222.983 301.376 222.983 300.437V298.193C222.983 297.254 223.188 296.576 223.599 296.158C224.01 295.733 224.574 295.52 225.293 295.52C225.594 295.52 225.872 295.557 226.129 295.63C226.393 295.696 226.62 295.806 226.811 295.96C227.009 296.114 227.163 296.308 227.273 296.543C227.39 296.778 227.449 297.06 227.449 297.39C227.449 297.5 227.394 297.555 227.284 297.555H227.174C227.064 297.555 227.009 297.5 227.009 297.39C227.009 297.141 226.965 296.924 226.877 296.741C226.796 296.55 226.679 296.393 226.525 296.268C226.371 296.143 226.188 296.052 225.975 295.993C225.77 295.927 225.542 295.894 225.293 295.894C224.046 295.894 223.423 296.605 223.423 298.028V300.602C223.423 302.025 224.046 302.736 225.293 302.736C225.821 302.736 226.239 302.611 226.547 302.362C226.862 302.113 227.02 301.735 227.02 301.229C227.02 301.119 227.075 301.064 227.185 301.064H227.295C227.405 301.064 227.46 301.119 227.46 301.229ZM230.545 303C230.435 303 230.38 302.945 230.38 302.835V296.136L229.005 297.357C228.924 297.438 228.847 297.438 228.774 297.357L228.73 297.313C228.657 297.232 228.66 297.152 228.741 297.071L230.226 295.751C230.292 295.692 230.347 295.659 230.391 295.652C230.442 295.637 230.494 295.63 230.545 295.63H230.633C230.743 295.63 230.798 295.685 230.798 295.795V302.835C230.798 302.945 230.743 303 230.633 303H230.545Z" fill="white"/>
<path d="M220.025 316C219.745 316 219.605 315.86 219.605 315.58V308.72L218.793 309.56C218.69 309.663 218.592 309.714 218.499 309.714C218.387 309.714 218.284 309.658 218.191 309.546L217.729 309.07C217.626 308.967 217.575 308.869 217.575 308.776C217.575 308.683 217.631 308.585 217.743 308.482L219.605 306.816C219.735 306.685 219.875 306.62 220.025 306.62H220.767C221.047 306.62 221.187 306.76 221.187 307.04V315.58C221.187 315.86 221.047 316 220.767 316H220.025ZM225.657 314.712C226.002 314.712 226.31 314.591 226.581 314.348C226.851 314.105 226.987 313.737 226.987 313.242V309.392C226.987 308.935 226.861 308.575 226.609 308.314C226.366 308.043 226.067 307.908 225.713 307.908C225.349 307.908 225.036 308.034 224.775 308.286C224.513 308.538 224.383 308.902 224.383 309.378V313.228C224.383 313.704 224.504 314.073 224.747 314.334C224.999 314.586 225.302 314.712 225.657 314.712ZM225.629 316.14C225.059 316.14 224.588 316.047 224.215 315.86C223.841 315.664 223.543 315.393 223.319 315.048C223.104 314.703 222.95 314.292 222.857 313.816C222.773 313.331 222.731 312.799 222.731 312.22V310.4C222.731 309 222.973 307.997 223.459 307.39C223.953 306.783 224.714 306.48 225.741 306.48C226.739 306.48 227.472 306.793 227.939 307.418C228.405 308.043 228.639 309.042 228.639 310.414V312.22C228.639 312.948 228.578 313.564 228.457 314.068C228.335 314.563 228.149 314.964 227.897 315.272C227.654 315.58 227.341 315.804 226.959 315.944C226.585 316.075 226.142 316.14 225.629 316.14ZM236.587 312.192C236.465 312.192 236.358 312.234 236.265 312.318C236.171 312.402 236.125 312.528 236.125 312.696V314.544C236.125 314.703 236.162 314.829 236.237 314.922C236.321 315.006 236.423 315.048 236.545 315.048C236.685 315.048 236.801 315.006 236.895 314.922C236.997 314.829 237.049 314.703 237.049 314.544V312.71C237.049 312.551 237.002 312.425 236.909 312.332C236.825 312.239 236.717 312.192 236.587 312.192ZM236.601 311.114C236.946 311.114 237.231 311.165 237.455 311.268C237.679 311.371 237.856 311.515 237.987 311.702C238.117 311.879 238.211 312.094 238.267 312.346C238.323 312.598 238.351 312.878 238.351 313.186V314.054C238.351 314.801 238.201 315.337 237.903 315.664C237.604 315.981 237.147 316.14 236.531 316.14C235.943 316.14 235.509 315.972 235.229 315.636C234.949 315.3 234.809 314.768 234.809 314.04V313.186C234.809 312.421 234.953 311.884 235.243 311.576C235.541 311.268 235.994 311.114 236.601 311.114ZM231.659 310.428C231.78 310.428 231.887 310.386 231.981 310.302C232.074 310.218 232.121 310.092 232.121 309.924V308.076C232.121 307.917 232.079 307.796 231.995 307.712C231.92 307.619 231.822 307.572 231.701 307.572C231.561 307.572 231.439 307.619 231.337 307.712C231.243 307.796 231.197 307.917 231.197 308.076V309.91C231.197 310.069 231.239 310.195 231.323 310.288C231.416 310.381 231.528 310.428 231.659 310.428ZM231.645 311.506C231.299 311.506 231.015 311.459 230.791 311.366C230.567 311.263 230.385 311.123 230.245 310.946C230.114 310.759 230.021 310.54 229.965 310.288C229.918 310.027 229.895 309.742 229.895 309.434V308.566C229.895 307.819 230.044 307.287 230.343 306.97C230.641 306.643 231.099 306.48 231.715 306.48C232.303 306.48 232.737 306.648 233.017 306.984C233.297 307.32 233.437 307.852 233.437 308.58V309.434C233.437 309.817 233.399 310.143 233.325 310.414C233.25 310.675 233.138 310.89 232.989 311.058C232.849 311.217 232.667 311.333 232.443 311.408C232.219 311.473 231.953 311.506 231.645 311.506ZM235.481 306.914C235.527 306.802 235.579 306.727 235.635 306.69C235.691 306.643 235.779 306.62 235.901 306.62H236.433C236.647 306.62 236.755 306.704 236.755 306.872C236.755 306.956 236.736 307.035 236.699 307.11L232.765 315.706C232.709 315.818 232.653 315.897 232.597 315.944C232.541 315.981 232.457 316 232.345 316H231.813C231.589 316 231.477 315.916 231.477 315.748C231.477 315.683 231.5 315.603 231.547 315.51L235.481 306.914Z" fill="white"/>
<rect x="174.854" y="203" width="69.6539" height="155.659" rx="4.15243" transform="rotate(45 174.854 203)" fill="#A6A6A6"/>
<path d="M143.219 278.229C143.219 278.559 143.164 278.845 143.054 279.087C142.944 279.322 142.79 279.516 142.592 279.67C142.401 279.817 142.174 279.927 141.91 280C141.646 280.073 141.36 280.11 141.052 280.11C140.333 280.11 139.769 279.901 139.358 279.483C138.947 279.058 138.742 278.376 138.742 277.437V275.193C138.742 274.254 138.947 273.576 139.358 273.158C139.769 272.733 140.333 272.52 141.052 272.52C141.353 272.52 141.631 272.557 141.888 272.63C142.152 272.696 142.379 272.806 142.57 272.96C142.768 273.114 142.922 273.308 143.032 273.543C143.149 273.778 143.208 274.06 143.208 274.39C143.208 274.5 143.153 274.555 143.043 274.555H142.933C142.823 274.555 142.768 274.5 142.768 274.39C142.768 274.141 142.724 273.924 142.636 273.741C142.555 273.55 142.438 273.393 142.284 273.268C142.13 273.143 141.947 273.052 141.734 272.993C141.529 272.927 141.301 272.894 141.052 272.894C139.805 272.894 139.182 273.605 139.182 275.028V277.602C139.182 279.025 139.805 279.736 141.052 279.736C141.58 279.736 141.998 279.611 142.306 279.362C142.621 279.113 142.779 278.735 142.779 278.229C142.779 278.119 142.834 278.064 142.944 278.064H143.054C143.164 278.064 143.219 278.119 143.219 278.229ZM144.709 280C144.599 280 144.544 279.945 144.544 279.835V279.186C144.544 278.717 144.628 278.332 144.797 278.031C144.966 277.723 145.178 277.463 145.435 277.25C145.692 277.03 145.967 276.836 146.26 276.667C146.561 276.498 146.839 276.319 147.096 276.128C147.353 275.93 147.565 275.695 147.734 275.424C147.903 275.153 147.987 274.808 147.987 274.39C147.987 273.884 147.855 273.51 147.591 273.268C147.327 273.019 146.964 272.894 146.502 272.894C146.348 272.894 146.183 272.912 146.007 272.949C145.838 272.986 145.684 273.052 145.545 273.147C145.406 273.242 145.288 273.374 145.193 273.543C145.105 273.704 145.061 273.91 145.061 274.159C145.061 274.269 145.006 274.324 144.896 274.324H144.786C144.676 274.324 144.621 274.269 144.621 274.159C144.621 273.91 144.665 273.686 144.753 273.488C144.848 273.283 144.98 273.11 145.149 272.971C145.318 272.824 145.516 272.714 145.743 272.641C145.97 272.56 146.223 272.52 146.502 272.52C147.133 272.52 147.609 272.692 147.932 273.037C148.262 273.382 148.427 273.825 148.427 274.368C148.427 274.823 148.339 275.2 148.163 275.501C147.994 275.794 147.782 276.051 147.525 276.271C147.268 276.484 146.986 276.674 146.678 276.843C146.377 277.012 146.099 277.195 145.842 277.393C145.585 277.591 145.369 277.826 145.193 278.097C145.024 278.361 144.94 278.695 144.94 279.098V279.626H148.251C148.361 279.626 148.416 279.681 148.416 279.791V279.835C148.416 279.945 148.361 280 148.251 280H144.709Z" fill="white"/>
<path d="M136.079 293C135.799 293 135.659 292.86 135.659 292.58V285.72L134.847 286.56C134.745 286.663 134.647 286.714 134.553 286.714C134.441 286.714 134.339 286.658 134.245 286.546L133.783 286.07C133.681 285.967 133.629 285.869 133.629 285.776C133.629 285.683 133.685 285.585 133.797 285.482L135.659 283.816C135.79 283.685 135.93 283.62 136.079 283.62H136.821C137.101 283.62 137.241 283.76 137.241 284.04V292.58C137.241 292.86 137.101 293 136.821 293H136.079ZM141.711 293.14C140.657 293.14 139.905 292.855 139.457 292.286C139.009 291.707 138.785 290.858 138.785 289.738V287.498C138.785 286.117 139.023 285.104 139.499 284.46C139.975 283.807 140.75 283.48 141.823 283.48C142.178 283.48 142.514 283.527 142.831 283.62C143.158 283.713 143.443 283.863 143.685 284.068C143.928 284.264 144.119 284.525 144.259 284.852C144.409 285.169 144.483 285.552 144.483 286C144.483 286.121 144.451 286.247 144.385 286.378C144.32 286.499 144.171 286.56 143.937 286.56H143.293C143.013 286.56 142.873 286.42 142.873 286.14C142.873 285.767 142.785 285.468 142.607 285.244C142.43 285.02 142.131 284.908 141.711 284.908C141.441 284.908 141.221 284.964 141.053 285.076C140.885 285.188 140.755 285.333 140.661 285.51C140.577 285.678 140.517 285.865 140.479 286.07C140.451 286.275 140.437 286.471 140.437 286.658V287.554C140.671 287.423 140.913 287.33 141.165 287.274C141.417 287.218 141.665 287.19 141.907 287.19C142.701 287.19 143.345 287.405 143.839 287.834C144.334 288.263 144.581 288.903 144.581 289.752V290.438C144.581 290.905 144.507 291.311 144.357 291.656C144.208 291.992 144.003 292.272 143.741 292.496C143.48 292.711 143.177 292.874 142.831 292.986C142.486 293.089 142.113 293.14 141.711 293.14ZM141.711 291.712C142.131 291.712 142.444 291.623 142.649 291.446C142.864 291.269 142.971 290.956 142.971 290.508V289.682C142.971 289.271 142.855 288.991 142.621 288.842C142.388 288.693 142.085 288.618 141.711 288.618C140.862 288.618 140.437 288.973 140.437 289.682V290.508C140.437 290.788 140.479 291.012 140.563 291.18C140.647 291.339 140.755 291.46 140.885 291.544C141.016 291.619 141.151 291.665 141.291 291.684C141.441 291.703 141.581 291.712 141.711 291.712ZM152.532 289.192C152.411 289.192 152.303 289.234 152.21 289.318C152.117 289.402 152.07 289.528 152.07 289.696V291.544C152.07 291.703 152.107 291.829 152.182 291.922C152.266 292.006 152.369 292.048 152.49 292.048C152.63 292.048 152.747 292.006 152.84 291.922C152.943 291.829 152.994 291.703 152.994 291.544V289.71C152.994 289.551 152.947 289.425 152.854 289.332C152.77 289.239 152.663 289.192 152.532 289.192ZM152.546 288.114C152.891 288.114 153.176 288.165 153.4 288.268C153.624 288.371 153.801 288.515 153.932 288.702C154.063 288.879 154.156 289.094 154.212 289.346C154.268 289.598 154.296 289.878 154.296 290.186V291.054C154.296 291.801 154.147 292.337 153.848 292.664C153.549 292.981 153.092 293.14 152.476 293.14C151.888 293.14 151.454 292.972 151.174 292.636C150.894 292.3 150.754 291.768 150.754 291.04V290.186C150.754 289.421 150.899 288.884 151.188 288.576C151.487 288.268 151.939 288.114 152.546 288.114ZM147.604 287.428C147.725 287.428 147.833 287.386 147.926 287.302C148.019 287.218 148.066 287.092 148.066 286.924V285.076C148.066 284.917 148.024 284.796 147.94 284.712C147.865 284.619 147.767 284.572 147.646 284.572C147.506 284.572 147.385 284.619 147.282 284.712C147.189 284.796 147.142 284.917 147.142 285.076V286.91C147.142 287.069 147.184 287.195 147.268 287.288C147.361 287.381 147.473 287.428 147.604 287.428ZM147.59 288.506C147.245 288.506 146.96 288.459 146.736 288.366C146.512 288.263 146.33 288.123 146.19 287.946C146.059 287.759 145.966 287.54 145.91 287.288C145.863 287.027 145.84 286.742 145.84 286.434V285.566C145.84 284.819 145.989 284.287 146.288 283.97C146.587 283.643 147.044 283.48 147.66 283.48C148.248 283.48 148.682 283.648 148.962 283.984C149.242 284.32 149.382 284.852 149.382 285.58V286.434C149.382 286.817 149.345 287.143 149.27 287.414C149.195 287.675 149.083 287.89 148.934 288.058C148.794 288.217 148.612 288.333 148.388 288.408C148.164 288.473 147.898 288.506 147.59 288.506ZM151.426 283.914C151.473 283.802 151.524 283.727 151.58 283.69C151.636 283.643 151.725 283.62 151.846 283.62H152.378C152.593 283.62 152.7 283.704 152.7 283.872C152.7 283.956 152.681 284.035 152.644 284.11L148.71 292.706C148.654 292.818 148.598 292.897 148.542 292.944C148.486 292.981 148.402 293 148.29 293H147.758C147.534 293 147.422 292.916 147.422 292.748C147.422 292.683 147.445 292.603 147.492 292.51L151.426 283.914Z" fill="white"/>
<rect x="174.4" y="310" width="42.8504" height="42.8508" rx="4.15243" transform="rotate(45 174.4 310)" fill="#BFBFBF"/>
<path d="M172.628 335.229C172.628 335.559 172.573 335.845 172.463 336.087C172.353 336.322 172.199 336.516 172.001 336.67C171.81 336.817 171.583 336.927 171.319 337C171.055 337.073 170.769 337.11 170.461 337.11C169.742 337.11 169.177 336.901 168.767 336.483C168.356 336.058 168.151 335.376 168.151 334.437V332.193C168.151 331.254 168.356 330.576 168.767 330.158C169.177 329.733 169.742 329.52 170.461 329.52C170.761 329.52 171.04 329.557 171.297 329.63C171.561 329.696 171.788 329.806 171.979 329.96C172.177 330.114 172.331 330.308 172.441 330.543C172.558 330.778 172.617 331.06 172.617 331.39C172.617 331.5 172.562 331.555 172.452 331.555H172.342C172.232 331.555 172.177 331.5 172.177 331.39C172.177 331.141 172.133 330.924 172.045 330.741C171.964 330.55 171.847 330.393 171.693 330.268C171.539 330.143 171.355 330.052 171.143 329.993C170.937 329.927 170.71 329.894 170.461 329.894C169.214 329.894 168.591 330.605 168.591 332.028V334.602C168.591 336.025 169.214 336.736 170.461 336.736C170.989 336.736 171.407 336.611 171.715 336.362C172.03 336.113 172.188 335.735 172.188 335.229C172.188 335.119 172.243 335.064 172.353 335.064H172.463C172.573 335.064 172.628 335.119 172.628 335.229ZM174.283 335.361C174.283 335.64 174.334 335.867 174.437 336.043C174.539 336.219 174.668 336.358 174.822 336.461C174.983 336.564 175.155 336.637 175.339 336.681C175.522 336.718 175.694 336.736 175.856 336.736C176.325 336.736 176.699 336.619 176.978 336.384C177.264 336.142 177.407 335.768 177.407 335.262V335.042C177.407 334.536 177.271 334.129 177 333.821C176.736 333.513 176.395 333.359 175.977 333.359H175.229C175.119 333.359 175.064 333.304 175.064 333.194V333.15C175.064 333.04 175.119 332.985 175.229 332.985H175.977C176.351 332.985 176.662 332.86 176.912 332.611C177.161 332.354 177.286 332.013 177.286 331.588V331.39C177.286 330.884 177.15 330.51 176.879 330.268C176.607 330.019 176.248 329.894 175.801 329.894C175.647 329.894 175.482 329.912 175.306 329.949C175.137 329.986 174.979 330.052 174.833 330.147C174.693 330.242 174.576 330.374 174.481 330.543C174.393 330.704 174.349 330.91 174.349 331.159C174.349 331.269 174.294 331.324 174.184 331.324H174.074C173.964 331.324 173.909 331.269 173.909 331.159C173.909 330.91 173.956 330.686 174.052 330.488C174.147 330.283 174.275 330.11 174.437 329.971C174.605 329.824 174.803 329.714 175.031 329.641C175.265 329.56 175.522 329.52 175.801 329.52C176.116 329.52 176.391 329.568 176.626 329.663C176.868 329.758 177.069 329.894 177.231 330.07C177.392 330.239 177.513 330.444 177.594 330.686C177.682 330.921 177.726 331.177 177.726 331.456V331.621C177.726 332.017 177.619 332.347 177.407 332.611C177.201 332.875 176.956 333.058 176.67 333.161C177.022 333.264 177.304 333.48 177.517 333.81C177.737 334.133 177.847 334.532 177.847 335.009V335.196C177.847 335.761 177.678 336.223 177.341 336.582C177.003 336.934 176.508 337.11 175.856 337.11C175.577 337.11 175.313 337.073 175.064 337C174.822 336.919 174.609 336.809 174.426 336.67C174.25 336.523 174.107 336.351 173.997 336.153C173.894 335.948 173.843 335.717 173.843 335.46V335.284C173.843 335.174 173.898 335.119 174.008 335.119H174.118C174.228 335.119 174.283 335.174 174.283 335.284V335.361Z" fill="white"/>
<path d="M167.247 350C167.191 350 167.112 349.977 167.009 349.93C166.916 349.883 166.869 349.795 166.869 349.664C166.869 349.617 166.883 349.557 166.911 349.482L170.047 342.048H166.813C166.533 342.048 166.393 341.908 166.393 341.628V341.04C166.393 340.76 166.533 340.62 166.813 340.62H171.461C171.741 340.62 171.881 340.76 171.881 341.04V341.362C171.881 341.493 171.858 341.605 171.811 341.698C171.774 341.791 171.732 341.899 171.685 342.02L168.479 349.692C168.423 349.823 168.362 349.907 168.297 349.944C168.241 349.981 168.12 350 167.933 350H167.247ZM179.558 346.192C179.437 346.192 179.33 346.234 179.236 346.318C179.143 346.402 179.096 346.528 179.096 346.696V348.544C179.096 348.703 179.134 348.829 179.208 348.922C179.292 349.006 179.395 349.048 179.516 349.048C179.656 349.048 179.773 349.006 179.866 348.922C179.969 348.829 180.02 348.703 180.02 348.544V346.71C180.02 346.551 179.974 346.425 179.88 346.332C179.796 346.239 179.689 346.192 179.558 346.192ZM179.572 345.114C179.918 345.114 180.202 345.165 180.426 345.268C180.65 345.371 180.828 345.515 180.958 345.702C181.089 345.879 181.182 346.094 181.238 346.346C181.294 346.598 181.322 346.878 181.322 347.186V348.054C181.322 348.801 181.173 349.337 180.874 349.664C180.576 349.981 180.118 350.14 179.502 350.14C178.914 350.14 178.48 349.972 178.2 349.636C177.92 349.3 177.78 348.768 177.78 348.04V347.186C177.78 346.421 177.925 345.884 178.214 345.576C178.513 345.268 178.966 345.114 179.572 345.114ZM174.63 344.428C174.752 344.428 174.859 344.386 174.952 344.302C175.046 344.218 175.092 344.092 175.092 343.924V342.076C175.092 341.917 175.05 341.796 174.966 341.712C174.892 341.619 174.794 341.572 174.672 341.572C174.532 341.572 174.411 341.619 174.308 341.712C174.215 341.796 174.168 341.917 174.168 342.076V343.91C174.168 344.069 174.21 344.195 174.294 344.288C174.388 344.381 174.5 344.428 174.63 344.428ZM174.616 345.506C174.271 345.506 173.986 345.459 173.762 345.366C173.538 345.263 173.356 345.123 173.216 344.946C173.086 344.759 172.992 344.54 172.936 344.288C172.89 344.027 172.866 343.742 172.866 343.434V342.566C172.866 341.819 173.016 341.287 173.314 340.97C173.613 340.643 174.07 340.48 174.686 340.48C175.274 340.48 175.708 340.648 175.988 340.984C176.268 341.32 176.408 341.852 176.408 342.58V343.434C176.408 343.817 176.371 344.143 176.296 344.414C176.222 344.675 176.11 344.89 175.96 345.058C175.82 345.217 175.638 345.333 175.414 345.408C175.19 345.473 174.924 345.506 174.616 345.506ZM178.452 340.914C178.499 340.802 178.55 340.727 178.606 340.69C178.662 340.643 178.751 340.62 178.872 340.62H179.404C179.619 340.62 179.726 340.704 179.726 340.872C179.726 340.956 179.708 341.035 179.67 341.11L175.736 349.706C175.68 349.818 175.624 349.897 175.568 349.944C175.512 349.981 175.428 350 175.316 350H174.784C174.56 350 174.448 349.916 174.448 349.748C174.448 349.683 174.472 349.603 174.518 349.51L178.452 340.914Z" fill="white"/>
<rect x="229.087" y="146.299" width="69.1278" height="65.6926" rx="4.15243" transform="rotate(45 229.087 146.299)" fill="#AF272A"/>
<path d="M228.632 185.434C228.632 185.229 228.614 185.042 228.577 184.873C228.548 184.697 228.475 184.547 228.357 184.422C228.247 184.29 228.086 184.187 227.873 184.114C227.661 184.041 227.375 184.004 227.015 184.004H225.618V187.007H227.301C227.595 187.007 227.829 186.97 228.005 186.897C228.181 186.824 228.317 186.721 228.412 186.589C228.508 186.45 228.566 186.288 228.588 186.105C228.618 185.914 228.632 185.709 228.632 185.489V185.434ZM227.301 190.626C227.661 190.626 227.947 190.586 228.159 190.505C228.372 190.424 228.533 190.314 228.643 190.175C228.761 190.036 228.834 189.871 228.863 189.68C228.9 189.489 228.918 189.284 228.918 189.064V188.954C228.918 188.639 228.867 188.378 228.764 188.173C228.669 187.968 228.544 187.806 228.39 187.689C228.236 187.572 228.064 187.491 227.873 187.447C227.683 187.403 227.492 187.381 227.301 187.381H225.618V190.626H227.301ZM225.365 191C225.255 191 225.2 190.945 225.2 190.835V183.795C225.2 183.685 225.255 183.63 225.365 183.63H227.191C227.551 183.63 227.851 183.678 228.093 183.773C228.335 183.861 228.53 183.986 228.676 184.147C228.823 184.301 228.926 184.484 228.984 184.697C229.043 184.91 229.072 185.137 229.072 185.379V185.434C229.072 185.669 229.061 185.878 229.039 186.061C229.017 186.237 228.973 186.395 228.907 186.534C228.849 186.666 228.764 186.787 228.654 186.897C228.552 187 228.42 187.095 228.258 187.183C228.442 187.264 228.599 187.352 228.731 187.447C228.871 187.542 228.984 187.66 229.072 187.799C229.168 187.938 229.237 188.103 229.281 188.294C229.333 188.477 229.358 188.697 229.358 188.954V189.064C229.358 189.335 229.329 189.588 229.27 189.823C229.212 190.058 229.109 190.263 228.962 190.439C228.816 190.615 228.621 190.754 228.379 190.857C228.137 190.952 227.837 191 227.477 191H225.365ZM232.438 191C232.328 191 232.273 190.945 232.273 190.835V184.136L230.898 185.357C230.817 185.438 230.74 185.438 230.667 185.357L230.623 185.313C230.549 185.232 230.553 185.152 230.634 185.071L232.119 183.751C232.185 183.692 232.24 183.659 232.284 183.652C232.335 183.637 232.386 183.63 232.438 183.63H232.526C232.636 183.63 232.691 183.685 232.691 183.795V190.835C232.691 190.945 232.636 191 232.526 191H232.438Z" fill="white"/>
<path d="M225.612 194.48C226.658 194.48 227.404 194.779 227.852 195.376C228.31 195.973 228.538 196.855 228.538 198.022V200.122C228.538 201.503 228.3 202.521 227.824 203.174C227.348 203.818 226.574 204.14 225.5 204.14C225.146 204.14 224.805 204.093 224.478 204C224.161 203.907 223.881 203.762 223.638 203.566C223.396 203.361 223.2 203.099 223.05 202.782C222.91 202.455 222.84 202.068 222.84 201.62C222.84 201.564 222.845 201.503 222.854 201.438C222.873 201.373 222.901 201.312 222.938 201.256C222.976 201.2 223.027 201.153 223.092 201.116C223.167 201.079 223.265 201.06 223.386 201.06H224.03C224.31 201.06 224.45 201.2 224.45 201.48C224.45 201.853 224.539 202.152 224.716 202.376C224.894 202.6 225.192 202.712 225.612 202.712C225.883 202.712 226.102 202.656 226.27 202.544C226.438 202.432 226.564 202.292 226.648 202.124C226.742 201.947 226.802 201.755 226.83 201.55C226.868 201.345 226.886 201.149 226.886 200.962V199.926C226.653 200.103 226.41 200.234 226.158 200.318C225.906 200.393 225.659 200.43 225.416 200.43C224.623 200.43 223.979 200.215 223.484 199.786C222.99 199.357 222.742 198.717 222.742 197.868V197.182C222.742 196.715 222.817 196.314 222.966 195.978C223.116 195.633 223.316 195.353 223.568 195.138C223.83 194.914 224.133 194.751 224.478 194.648C224.833 194.536 225.211 194.48 225.612 194.48ZM225.612 195.908C225.192 195.908 224.875 195.997 224.66 196.174C224.455 196.351 224.352 196.664 224.352 197.112V197.938C224.352 198.349 224.469 198.629 224.702 198.778C224.936 198.927 225.239 199.002 225.612 199.002C226.462 199.002 226.886 198.647 226.886 197.938V197.112C226.886 196.832 226.844 196.613 226.76 196.454C226.676 196.286 226.569 196.165 226.438 196.09C226.308 196.006 226.168 195.955 226.018 195.936C225.869 195.917 225.734 195.908 225.612 195.908ZM236.489 200.192C236.368 200.192 236.26 200.234 236.167 200.318C236.074 200.402 236.027 200.528 236.027 200.696V202.544C236.027 202.703 236.064 202.829 236.139 202.922C236.223 203.006 236.326 203.048 236.447 203.048C236.587 203.048 236.704 203.006 236.797 202.922C236.9 202.829 236.951 202.703 236.951 202.544V200.71C236.951 200.551 236.904 200.425 236.811 200.332C236.727 200.239 236.62 200.192 236.489 200.192ZM236.503 199.114C236.848 199.114 237.133 199.165 237.357 199.268C237.581 199.371 237.758 199.515 237.889 199.702C238.02 199.879 238.113 200.094 238.169 200.346C238.225 200.598 238.253 200.878 238.253 201.186V202.054C238.253 202.801 238.104 203.337 237.805 203.664C237.506 203.981 237.049 204.14 236.433 204.14C235.845 204.14 235.411 203.972 235.131 203.636C234.851 203.3 234.711 202.768 234.711 202.04V201.186C234.711 200.421 234.856 199.884 235.145 199.576C235.444 199.268 235.896 199.114 236.503 199.114ZM231.561 198.428C231.682 198.428 231.79 198.386 231.883 198.302C231.976 198.218 232.023 198.092 232.023 197.924V196.076C232.023 195.917 231.981 195.796 231.897 195.712C231.822 195.619 231.724 195.572 231.603 195.572C231.463 195.572 231.342 195.619 231.239 195.712C231.146 195.796 231.099 195.917 231.099 196.076V197.91C231.099 198.069 231.141 198.195 231.225 198.288C231.318 198.381 231.43 198.428 231.561 198.428ZM231.547 199.506C231.202 199.506 230.917 199.459 230.693 199.366C230.469 199.263 230.287 199.123 230.147 198.946C230.016 198.759 229.923 198.54 229.867 198.288C229.82 198.027 229.797 197.742 229.797 197.434V196.566C229.797 195.819 229.946 195.287 230.245 194.97C230.544 194.643 231.001 194.48 231.617 194.48C232.205 194.48 232.639 194.648 232.919 194.984C233.199 195.32 233.339 195.852 233.339 196.58V197.434C233.339 197.817 233.302 198.143 233.227 198.414C233.152 198.675 233.04 198.89 232.891 199.058C232.751 199.217 232.569 199.333 232.345 199.408C232.121 199.473 231.855 199.506 231.547 199.506ZM235.383 194.914C235.43 194.802 235.481 194.727 235.537 194.69C235.593 194.643 235.682 194.62 235.803 194.62H236.335C236.55 194.62 236.657 194.704 236.657 194.872C236.657 194.956 236.638 195.035 236.601 195.11L232.667 203.706C232.611 203.818 232.555 203.897 232.499 203.944C232.443 203.981 232.359 204 232.247 204H231.715C231.491 204 231.379 203.916 231.379 203.748C231.379 203.683 231.402 203.603 231.449 203.51L235.383 194.914Z" fill="white"/>
<rect x="312.723" y="170.341" width="69.4537" height="109.916" rx="4.15243" transform="rotate(45 312.723 170.341)" fill="#F18298"/>
<path d="M298.391 223.434C298.391 223.229 298.373 223.042 298.336 222.873C298.307 222.697 298.234 222.547 298.116 222.422C298.006 222.29 297.845 222.187 297.632 222.114C297.42 222.041 297.134 222.004 296.774 222.004H295.377V225.007H297.06C297.354 225.007 297.588 224.97 297.764 224.897C297.94 224.824 298.076 224.721 298.171 224.589C298.267 224.45 298.325 224.288 298.347 224.105C298.377 223.914 298.391 223.709 298.391 223.489V223.434ZM297.06 228.626C297.42 228.626 297.706 228.586 297.918 228.505C298.131 228.424 298.292 228.314 298.402 228.175C298.52 228.036 298.593 227.871 298.622 227.68C298.659 227.489 298.677 227.284 298.677 227.064V226.954C298.677 226.639 298.626 226.378 298.523 226.173C298.428 225.968 298.303 225.806 298.149 225.689C297.995 225.572 297.823 225.491 297.632 225.447C297.442 225.403 297.251 225.381 297.06 225.381H295.377V228.626H297.06ZM295.124 229C295.014 229 294.959 228.945 294.959 228.835V221.795C294.959 221.685 295.014 221.63 295.124 221.63H296.95C297.31 221.63 297.61 221.678 297.852 221.773C298.094 221.861 298.289 221.986 298.435 222.147C298.582 222.301 298.685 222.484 298.743 222.697C298.802 222.91 298.831 223.137 298.831 223.379V223.434C298.831 223.669 298.82 223.878 298.798 224.061C298.776 224.237 298.732 224.395 298.666 224.534C298.608 224.666 298.523 224.787 298.413 224.897C298.311 225 298.179 225.095 298.017 225.183C298.201 225.264 298.358 225.352 298.49 225.447C298.63 225.542 298.743 225.66 298.831 225.799C298.927 225.938 298.996 226.103 299.04 226.294C299.092 226.477 299.117 226.697 299.117 226.954V227.064C299.117 227.335 299.088 227.588 299.029 227.823C298.971 228.058 298.868 228.263 298.721 228.439C298.575 228.615 298.38 228.754 298.138 228.857C297.896 228.952 297.596 229 297.236 229H295.124ZM300.602 229C300.492 229 300.437 228.945 300.437 228.835V228.186C300.437 227.717 300.521 227.332 300.69 227.031C300.858 226.723 301.071 226.463 301.328 226.25C301.584 226.03 301.859 225.836 302.153 225.667C302.453 225.498 302.732 225.319 302.989 225.128C303.245 224.93 303.458 224.695 303.627 224.424C303.795 224.153 303.88 223.808 303.88 223.39C303.88 222.884 303.748 222.51 303.484 222.268C303.22 222.019 302.857 221.894 302.395 221.894C302.241 221.894 302.076 221.912 301.9 221.949C301.731 221.986 301.577 222.052 301.438 222.147C301.298 222.242 301.181 222.374 301.086 222.543C300.998 222.704 300.954 222.91 300.954 223.159C300.954 223.269 300.899 223.324 300.789 223.324H300.679C300.569 223.324 300.514 223.269 300.514 223.159C300.514 222.91 300.558 222.686 300.646 222.488C300.741 222.283 300.873 222.11 301.042 221.971C301.21 221.824 301.408 221.714 301.636 221.641C301.863 221.56 302.116 221.52 302.395 221.52C303.025 221.52 303.502 221.692 303.825 222.037C304.155 222.382 304.32 222.825 304.32 223.368C304.32 223.823 304.232 224.2 304.056 224.501C303.887 224.794 303.674 225.051 303.418 225.271C303.161 225.484 302.879 225.674 302.571 225.843C302.27 226.012 301.991 226.195 301.735 226.393C301.478 226.591 301.262 226.826 301.086 227.097C300.917 227.361 300.833 227.695 300.833 228.098V228.626H304.144C304.254 228.626 304.309 228.681 304.309 228.791V228.835C304.309 228.945 304.254 229 304.144 229H300.602Z" fill="white"/>
<path d="M292.257 242C291.977 242 291.837 241.86 291.837 241.58V234.72L291.025 235.56C290.922 235.663 290.824 235.714 290.731 235.714C290.619 235.714 290.516 235.658 290.423 235.546L289.961 235.07C289.858 234.967 289.807 234.869 289.807 234.776C289.807 234.683 289.863 234.585 289.975 234.482L291.837 232.816C291.968 232.685 292.108 232.62 292.257 232.62H292.999C293.279 232.62 293.419 232.76 293.419 233.04V241.58C293.419 241.86 293.279 242 292.999 242H292.257ZM300.479 239.564C300.479 239.937 300.418 240.283 300.297 240.6C300.185 240.917 300.012 241.193 299.779 241.426C299.546 241.65 299.252 241.827 298.897 241.958C298.552 242.079 298.15 242.14 297.693 242.14C297.292 242.14 296.923 242.084 296.587 241.972C296.251 241.851 295.962 241.687 295.719 241.482C295.486 241.267 295.299 241.011 295.159 240.712C295.028 240.413 294.963 240.082 294.963 239.718V239.508C294.963 239.321 295.01 239.186 295.103 239.102C295.206 239.009 295.336 238.962 295.495 238.962H296.153C296.265 238.962 296.363 238.995 296.447 239.06C296.531 239.116 296.573 239.228 296.573 239.396V239.606C296.573 239.83 296.606 240.012 296.671 240.152C296.746 240.292 296.839 240.404 296.951 240.488C297.063 240.572 297.184 240.633 297.315 240.67C297.446 240.698 297.572 240.712 297.693 240.712C298.029 240.712 298.295 240.614 298.491 240.418C298.696 240.222 298.799 239.914 298.799 239.494V238.374C298.799 238.169 298.766 237.996 298.701 237.856C298.636 237.716 298.547 237.604 298.435 237.52C298.332 237.427 298.206 237.361 298.057 237.324C297.917 237.287 297.768 237.268 297.609 237.268C297.422 237.268 297.245 237.291 297.077 237.338C296.918 237.385 296.778 237.469 296.657 237.59C296.582 237.665 296.461 237.702 296.293 237.702H295.635C295.355 237.702 295.215 237.562 295.215 237.282V233.04C295.215 232.76 295.355 232.62 295.635 232.62H299.681C299.961 232.62 300.101 232.76 300.101 233.04V233.628C300.101 233.908 299.961 234.048 299.681 234.048H296.797V236.078C296.928 236.013 297.082 235.957 297.259 235.91C297.446 235.863 297.66 235.84 297.903 235.84C298.267 235.84 298.603 235.896 298.911 236.008C299.228 236.12 299.499 236.288 299.723 236.512C299.956 236.727 300.138 236.997 300.269 237.324C300.409 237.651 300.479 238.024 300.479 238.444V239.564ZM308.354 238.192C308.233 238.192 308.126 238.234 308.032 238.318C307.939 238.402 307.892 238.528 307.892 238.696V240.544C307.892 240.703 307.93 240.829 308.004 240.922C308.088 241.006 308.191 241.048 308.312 241.048C308.452 241.048 308.569 241.006 308.662 240.922C308.765 240.829 308.816 240.703 308.816 240.544V238.71C308.816 238.551 308.77 238.425 308.676 238.332C308.592 238.239 308.485 238.192 308.354 238.192ZM308.368 237.114C308.714 237.114 308.998 237.165 309.222 237.268C309.446 237.371 309.624 237.515 309.754 237.702C309.885 237.879 309.978 238.094 310.034 238.346C310.09 238.598 310.118 238.878 310.118 239.186V240.054C310.118 240.801 309.969 241.337 309.67 241.664C309.372 241.981 308.914 242.14 308.298 242.14C307.71 242.14 307.276 241.972 306.996 241.636C306.716 241.3 306.576 240.768 306.576 240.04V239.186C306.576 238.421 306.721 237.884 307.01 237.576C307.309 237.268 307.762 237.114 308.368 237.114ZM303.426 236.428C303.548 236.428 303.655 236.386 303.748 236.302C303.842 236.218 303.888 236.092 303.888 235.924V234.076C303.888 233.917 303.846 233.796 303.762 233.712C303.688 233.619 303.59 233.572 303.468 233.572C303.328 233.572 303.207 233.619 303.104 233.712C303.011 233.796 302.964 233.917 302.964 234.076V235.91C302.964 236.069 303.006 236.195 303.09 236.288C303.184 236.381 303.296 236.428 303.426 236.428ZM303.412 237.506C303.067 237.506 302.782 237.459 302.558 237.366C302.334 237.263 302.152 237.123 302.012 236.946C301.882 236.759 301.788 236.54 301.732 236.288C301.686 236.027 301.662 235.742 301.662 235.434V234.566C301.662 233.819 301.812 233.287 302.11 232.97C302.409 232.643 302.866 232.48 303.482 232.48C304.07 232.48 304.504 232.648 304.784 232.984C305.064 233.32 305.204 233.852 305.204 234.58V235.434C305.204 235.817 305.167 236.143 305.092 236.414C305.018 236.675 304.906 236.89 304.756 237.058C304.616 237.217 304.434 237.333 304.21 237.408C303.986 237.473 303.72 237.506 303.412 237.506ZM307.248 232.914C307.295 232.802 307.346 232.727 307.402 232.69C307.458 232.643 307.547 232.62 307.668 232.62H308.2C308.415 232.62 308.522 232.704 308.522 232.872C308.522 232.956 308.504 233.035 308.466 233.11L304.532 241.706C304.476 241.818 304.42 241.897 304.364 241.944C304.308 241.981 304.224 242 304.112 242H303.58C303.356 242 303.244 241.916 303.244 241.748C303.244 241.683 303.268 241.603 303.314 241.51L307.248 232.914Z" fill="white"/>
<rect x="332.382" y="141.979" width="69.8658" height="69.267" rx="4.15243" transform="rotate(135 332.382 141.979)" fill="#F6C2CC"/>
<path d="M281.918 133.526C281.918 133.321 281.899 133.134 281.863 132.965C281.833 132.789 281.76 132.639 281.643 132.514C281.533 132.382 281.371 132.279 281.159 132.206C280.946 132.133 280.66 132.096 280.301 132.096H278.904V135.099H280.587C280.88 135.099 281.115 135.062 281.291 134.989C281.467 134.916 281.602 134.813 281.698 134.681C281.793 134.542 281.852 134.38 281.874 134.197C281.903 134.006 281.918 133.801 281.918 133.581V133.526ZM280.587 138.718C280.946 138.718 281.232 138.678 281.445 138.597C281.657 138.516 281.819 138.406 281.929 138.267C282.046 138.128 282.119 137.963 282.149 137.772C282.185 137.581 282.204 137.376 282.204 137.156V137.046C282.204 136.731 282.152 136.47 282.05 136.265C281.954 136.06 281.83 135.898 281.676 135.781C281.522 135.664 281.349 135.583 281.159 135.539C280.968 135.495 280.777 135.473 280.587 135.473H278.904V138.718H280.587ZM278.651 139.092C278.541 139.092 278.486 139.037 278.486 138.927V131.887C278.486 131.777 278.541 131.722 278.651 131.722H280.477C280.836 131.722 281.137 131.77 281.379 131.865C281.621 131.953 281.815 132.078 281.962 132.239C282.108 132.393 282.211 132.576 282.27 132.789C282.328 133.002 282.358 133.229 282.358 133.471V133.526C282.358 133.761 282.347 133.97 282.325 134.153C282.303 134.329 282.259 134.487 282.193 134.626C282.134 134.758 282.05 134.879 281.94 134.989C281.837 135.092 281.705 135.187 281.544 135.275C281.727 135.356 281.885 135.444 282.017 135.539C282.156 135.634 282.27 135.752 282.358 135.891C282.453 136.03 282.523 136.195 282.567 136.386C282.618 136.569 282.644 136.789 282.644 137.046V137.156C282.644 137.427 282.614 137.68 282.556 137.915C282.497 138.15 282.394 138.355 282.248 138.531C282.101 138.707 281.907 138.846 281.665 138.949C281.423 139.044 281.122 139.092 280.763 139.092H278.651ZM284.293 137.453C284.293 137.732 284.344 137.959 284.447 138.135C284.55 138.311 284.678 138.45 284.832 138.553C284.993 138.656 285.166 138.729 285.349 138.773C285.532 138.81 285.705 138.828 285.866 138.828C286.335 138.828 286.709 138.711 286.988 138.476C287.274 138.234 287.417 137.86 287.417 137.354V137.134C287.417 136.628 287.281 136.221 287.01 135.913C286.746 135.605 286.405 135.451 285.987 135.451H285.239C285.129 135.451 285.074 135.396 285.074 135.286V135.242C285.074 135.132 285.129 135.077 285.239 135.077H285.987C286.361 135.077 286.673 134.952 286.922 134.703C287.171 134.446 287.296 134.105 287.296 133.68V133.482C287.296 132.976 287.16 132.602 286.889 132.36C286.618 132.111 286.258 131.986 285.811 131.986C285.657 131.986 285.492 132.004 285.316 132.041C285.147 132.078 284.99 132.144 284.843 132.239C284.704 132.334 284.586 132.466 284.491 132.635C284.403 132.796 284.359 133.002 284.359 133.251C284.359 133.361 284.304 133.416 284.194 133.416H284.084C283.974 133.416 283.919 133.361 283.919 133.251C283.919 133.002 283.967 132.778 284.062 132.58C284.157 132.375 284.286 132.202 284.447 132.063C284.616 131.916 284.814 131.806 285.041 131.733C285.276 131.652 285.532 131.612 285.811 131.612C286.126 131.612 286.401 131.66 286.636 131.755C286.878 131.85 287.08 131.986 287.241 132.162C287.402 132.331 287.523 132.536 287.604 132.778C287.692 133.013 287.736 133.269 287.736 133.548V133.713C287.736 134.109 287.63 134.439 287.417 134.703C287.212 134.967 286.966 135.15 286.68 135.253C287.032 135.356 287.314 135.572 287.527 135.902C287.747 136.225 287.857 136.624 287.857 137.101V137.288C287.857 137.853 287.688 138.315 287.351 138.674C287.014 139.026 286.519 139.202 285.866 139.202C285.587 139.202 285.323 139.165 285.074 139.092C284.832 139.011 284.619 138.901 284.436 138.762C284.26 138.615 284.117 138.443 284.007 138.245C283.904 138.04 283.853 137.809 283.853 137.552V137.376C283.853 137.266 283.908 137.211 284.018 137.211H284.128C284.238 137.211 284.293 137.266 284.293 137.376V137.453Z" fill="white"/>
<path d="M275.642 152.092C275.362 152.092 275.222 151.952 275.222 151.672V144.812L274.41 145.652C274.308 145.755 274.21 145.806 274.116 145.806C274.004 145.806 273.902 145.75 273.808 145.638L273.346 145.162C273.244 145.059 273.192 144.961 273.192 144.868C273.192 144.775 273.248 144.677 273.36 144.574L275.222 142.908C275.353 142.777 275.493 142.712 275.642 142.712H276.384C276.664 142.712 276.804 142.852 276.804 143.132V151.672C276.804 151.952 276.664 152.092 276.384 152.092H275.642ZM281.274 150.804C281.62 150.804 281.928 150.683 282.198 150.44C282.469 150.197 282.604 149.829 282.604 149.334V145.484C282.604 145.027 282.478 144.667 282.226 144.406C281.984 144.135 281.685 144 281.33 144C280.966 144 280.654 144.126 280.392 144.378C280.131 144.63 280 144.994 280 145.47V149.32C280 149.796 280.122 150.165 280.364 150.426C280.616 150.678 280.92 150.804 281.274 150.804ZM281.246 152.232C280.677 152.232 280.206 152.139 279.832 151.952C279.459 151.756 279.16 151.485 278.936 151.14C278.722 150.795 278.568 150.384 278.474 149.908C278.39 149.423 278.348 148.891 278.348 148.312V146.492C278.348 145.092 278.591 144.089 279.076 143.482C279.571 142.875 280.332 142.572 281.358 142.572C282.357 142.572 283.09 142.885 283.556 143.51C284.023 144.135 284.256 145.134 284.256 146.506V148.312C284.256 149.04 284.196 149.656 284.074 150.16C283.953 150.655 283.766 151.056 283.514 151.364C283.272 151.672 282.959 151.896 282.576 152.036C282.203 152.167 281.76 152.232 281.246 152.232ZM292.204 148.284C292.083 148.284 291.976 148.326 291.882 148.41C291.789 148.494 291.742 148.62 291.742 148.788V150.636C291.742 150.795 291.78 150.921 291.854 151.014C291.938 151.098 292.041 151.14 292.162 151.14C292.302 151.14 292.419 151.098 292.512 151.014C292.615 150.921 292.666 150.795 292.666 150.636V148.802C292.666 148.643 292.62 148.517 292.526 148.424C292.442 148.331 292.335 148.284 292.204 148.284ZM292.218 147.206C292.564 147.206 292.848 147.257 293.072 147.36C293.296 147.463 293.474 147.607 293.604 147.794C293.735 147.971 293.828 148.186 293.884 148.438C293.94 148.69 293.968 148.97 293.968 149.278V150.146C293.968 150.893 293.819 151.429 293.52 151.756C293.222 152.073 292.764 152.232 292.148 152.232C291.56 152.232 291.126 152.064 290.846 151.728C290.566 151.392 290.426 150.86 290.426 150.132V149.278C290.426 148.513 290.571 147.976 290.86 147.668C291.159 147.36 291.612 147.206 292.218 147.206ZM287.276 146.52C287.398 146.52 287.505 146.478 287.598 146.394C287.692 146.31 287.738 146.184 287.738 146.016V144.168C287.738 144.009 287.696 143.888 287.612 143.804C287.538 143.711 287.44 143.664 287.318 143.664C287.178 143.664 287.057 143.711 286.954 143.804C286.861 143.888 286.814 144.009 286.814 144.168V146.002C286.814 146.161 286.856 146.287 286.94 146.38C287.034 146.473 287.146 146.52 287.276 146.52ZM287.262 147.598C286.917 147.598 286.632 147.551 286.408 147.458C286.184 147.355 286.002 147.215 285.862 147.038C285.732 146.851 285.638 146.632 285.582 146.38C285.536 146.119 285.512 145.834 285.512 145.526V144.658C285.512 143.911 285.662 143.379 285.96 143.062C286.259 142.735 286.716 142.572 287.332 142.572C287.92 142.572 288.354 142.74 288.634 143.076C288.914 143.412 289.054 143.944 289.054 144.672V145.526C289.054 145.909 289.017 146.235 288.942 146.506C288.868 146.767 288.756 146.982 288.606 147.15C288.466 147.309 288.284 147.425 288.06 147.5C287.836 147.565 287.57 147.598 287.262 147.598ZM291.098 143.006C291.145 142.894 291.196 142.819 291.252 142.782C291.308 142.735 291.397 142.712 291.518 142.712H292.05C292.265 142.712 292.372 142.796 292.372 142.964C292.372 143.048 292.354 143.127 292.316 143.202L288.382 151.798C288.326 151.91 288.27 151.989 288.214 152.036C288.158 152.073 288.074 152.092 287.962 152.092H287.43C287.206 152.092 287.094 152.008 287.094 151.84C287.094 151.775 287.118 151.695 287.164 151.602L291.098 143.006Z" fill="white"/>
<rect x="173.006" y="74.9937" width="78.3551" height="78.3551" rx="4.15243" transform="rotate(45 173.006 74.9937)" fill="#4D6977"/>
<path d="M170.657 119.63C170.841 119.63 170.958 119.711 171.009 119.872L173.033 126.835C173.063 126.945 173.03 127 172.934 127H172.791C172.681 127 172.612 126.945 172.582 126.835L171.955 124.657H168.974L168.358 126.835C168.329 126.945 168.259 127 168.149 127H168.006C167.904 127 167.871 126.945 167.907 126.835L169.931 119.872C169.983 119.711 170.1 119.63 170.283 119.63H170.657ZM169.084 124.283H171.845L170.723 120.345C170.679 120.198 170.643 120.107 170.613 120.07C170.591 120.026 170.544 120.004 170.47 120.004C170.397 120.004 170.346 120.026 170.316 120.07C170.294 120.107 170.261 120.198 170.217 120.345L169.084 124.283ZM175.368 127C175.258 127 175.203 126.945 175.203 126.835V120.136L173.828 121.357C173.747 121.438 173.67 121.438 173.597 121.357L173.553 121.313C173.48 121.232 173.483 121.152 173.564 121.071L175.049 119.751C175.115 119.692 175.17 119.659 175.214 119.652C175.265 119.637 175.317 119.63 175.368 119.63H175.456C175.566 119.63 175.621 119.685 175.621 119.795V126.835C175.621 126.945 175.566 127 175.456 127H175.368Z" fill="white"/>
<path d="M166.064 140C165.784 140 165.644 139.86 165.644 139.58V132.72L164.832 133.56C164.729 133.663 164.631 133.714 164.538 133.714C164.426 133.714 164.323 133.658 164.23 133.546L163.768 133.07C163.665 132.967 163.614 132.869 163.614 132.776C163.614 132.683 163.67 132.585 163.782 132.482L165.644 130.816C165.774 130.685 165.914 130.62 166.064 130.62H166.806C167.086 130.62 167.226 130.76 167.226 131.04V139.58C167.226 139.86 167.086 140 166.806 140H166.064ZM171.15 140C170.87 140 170.73 139.86 170.73 139.58V132.72L169.918 133.56C169.815 133.663 169.717 133.714 169.624 133.714C169.512 133.714 169.409 133.658 169.316 133.546L168.854 133.07C168.751 132.967 168.7 132.869 168.7 132.776C168.7 132.683 168.756 132.585 168.868 132.482L170.73 130.816C170.86 130.685 171 130.62 171.15 130.62H171.892C172.172 130.62 172.312 130.76 172.312 131.04V139.58C172.312 139.86 172.172 140 171.892 140H171.15ZM180.548 136.192C180.426 136.192 180.319 136.234 180.226 136.318C180.132 136.402 180.086 136.528 180.086 136.696V138.544C180.086 138.703 180.123 138.829 180.198 138.922C180.282 139.006 180.384 139.048 180.506 139.048C180.646 139.048 180.762 139.006 180.856 138.922C180.958 138.829 181.01 138.703 181.01 138.544V136.71C181.01 136.551 180.963 136.425 180.87 136.332C180.786 136.239 180.678 136.192 180.548 136.192ZM180.562 135.114C180.907 135.114 181.192 135.165 181.416 135.268C181.64 135.371 181.817 135.515 181.948 135.702C182.078 135.879 182.172 136.094 182.228 136.346C182.284 136.598 182.312 136.878 182.312 137.186V138.054C182.312 138.801 182.162 139.337 181.864 139.664C181.565 139.981 181.108 140.14 180.492 140.14C179.904 140.14 179.47 139.972 179.19 139.636C178.91 139.3 178.77 138.768 178.77 138.04V137.186C178.77 136.421 178.914 135.884 179.204 135.576C179.502 135.268 179.955 135.114 180.562 135.114ZM175.62 134.428C175.741 134.428 175.848 134.386 175.942 134.302C176.035 134.218 176.082 134.092 176.082 133.924V132.076C176.082 131.917 176.04 131.796 175.956 131.712C175.881 131.619 175.783 131.572 175.662 131.572C175.522 131.572 175.4 131.619 175.298 131.712C175.204 131.796 175.158 131.917 175.158 132.076V133.91C175.158 134.069 175.2 134.195 175.284 134.288C175.377 134.381 175.489 134.428 175.62 134.428ZM175.606 135.506C175.26 135.506 174.976 135.459 174.752 135.366C174.528 135.263 174.346 135.123 174.206 134.946C174.075 134.759 173.982 134.54 173.926 134.288C173.879 134.027 173.856 133.742 173.856 133.434V132.566C173.856 131.819 174.005 131.287 174.304 130.97C174.602 130.643 175.06 130.48 175.676 130.48C176.264 130.48 176.698 130.648 176.978 130.984C177.258 131.32 177.398 131.852 177.398 132.58V133.434C177.398 133.817 177.36 134.143 177.286 134.414C177.211 134.675 177.099 134.89 176.95 135.058C176.81 135.217 176.628 135.333 176.404 135.408C176.18 135.473 175.914 135.506 175.606 135.506ZM179.442 130.914C179.488 130.802 179.54 130.727 179.596 130.69C179.652 130.643 179.74 130.62 179.862 130.62H180.394C180.608 130.62 180.716 130.704 180.716 130.872C180.716 130.956 180.697 131.035 180.66 131.11L176.726 139.706C176.67 139.818 176.614 139.897 176.558 139.944C176.502 139.981 176.418 140 176.306 140H175.774C175.55 140 175.438 139.916 175.438 139.748C175.438 139.683 175.461 139.603 175.508 139.51L179.442 130.914Z" fill="white"/>
<rect x="229.583" y="28.417" width="70.4725" height="66.8273" rx="4.15243" transform="rotate(45 229.583 28.417)" fill="#678494"/>
<path d="M227.588 66.63C227.772 66.63 227.889 66.7107 227.94 66.872L229.964 73.835C229.994 73.945 229.961 74 229.865 74H229.722C229.612 74 229.543 73.945 229.513 73.835L228.886 71.657H225.905L225.289 73.835C225.26 73.945 225.19 74 225.08 74H224.937C224.835 74 224.802 73.945 224.838 73.835L226.862 66.872C226.914 66.7107 227.031 66.63 227.214 66.63H227.588ZM226.015 71.283H228.776L227.654 67.345C227.61 67.1983 227.574 67.1067 227.544 67.07C227.522 67.026 227.475 67.004 227.401 67.004C227.328 67.004 227.277 67.026 227.247 67.07C227.225 67.1067 227.192 67.1983 227.148 67.345L226.015 71.283ZM231.359 74C231.249 74 231.194 73.945 231.194 73.835V73.186C231.194 72.7167 231.279 72.3317 231.447 72.031C231.616 71.723 231.829 71.4627 232.085 71.25C232.342 71.03 232.617 70.8357 232.91 70.667C233.211 70.4983 233.49 70.3187 233.746 70.128C234.003 69.93 234.216 69.6953 234.384 69.424C234.553 69.1527 234.637 68.808 234.637 68.39C234.637 67.884 234.505 67.51 234.241 67.268C233.977 67.0187 233.614 66.894 233.152 66.894C232.998 66.894 232.833 66.9123 232.657 66.949C232.489 66.9857 232.335 67.0517 232.195 67.147C232.056 67.2423 231.939 67.3743 231.843 67.543C231.755 67.7043 231.711 67.9097 231.711 68.159C231.711 68.269 231.656 68.324 231.546 68.324H231.436C231.326 68.324 231.271 68.269 231.271 68.159C231.271 67.9097 231.315 67.686 231.403 67.488C231.499 67.2827 231.631 67.1103 231.799 66.971C231.968 66.8243 232.166 66.7143 232.393 66.641C232.621 66.5603 232.874 66.52 233.152 66.52C233.783 66.52 234.26 66.6923 234.582 67.037C234.912 67.3817 235.077 67.8253 235.077 68.368C235.077 68.8227 234.989 69.2003 234.813 69.501C234.645 69.7943 234.432 70.051 234.175 70.271C233.919 70.4837 233.636 70.6743 233.328 70.843C233.028 71.0117 232.749 71.195 232.492 71.393C232.236 71.591 232.019 71.8257 231.843 72.097C231.675 72.361 231.59 72.6947 231.59 73.098V73.626H234.901C235.011 73.626 235.066 73.681 235.066 73.791V73.835C235.066 73.945 235.011 74 234.901 74H231.359Z" fill="white"/>
<path d="M223.025 87C222.745 87 222.605 86.86 222.605 86.58V79.72L221.793 80.56C221.69 80.6627 221.592 80.714 221.499 80.714C221.387 80.714 221.284 80.658 221.191 80.546L220.729 80.07C220.626 79.9673 220.575 79.8693 220.575 79.776C220.575 79.6827 220.631 79.5847 220.743 79.482L222.605 77.816C222.735 77.6853 222.875 77.62 223.025 77.62H223.767C224.047 77.62 224.187 77.76 224.187 78.04V86.58C224.187 86.86 224.047 87 223.767 87H223.025ZM228.657 85.712C229.002 85.712 229.31 85.5907 229.581 85.348C229.851 85.1053 229.987 84.7367 229.987 84.242V80.392C229.987 79.9347 229.861 79.5753 229.609 79.314C229.366 79.0433 229.067 78.908 228.713 78.908C228.349 78.908 228.036 79.034 227.775 79.286C227.513 79.538 227.383 79.902 227.383 80.378V84.228C227.383 84.704 227.504 85.0727 227.747 85.334C227.999 85.586 228.302 85.712 228.657 85.712ZM228.629 87.14C228.059 87.14 227.588 87.0467 227.215 86.86C226.841 86.664 226.543 86.3933 226.319 86.048C226.104 85.7027 225.95 85.292 225.857 84.816C225.773 84.3307 225.731 83.7987 225.731 83.22V81.4C225.731 80 225.973 78.9967 226.459 78.39C226.953 77.7833 227.714 77.48 228.741 77.48C229.739 77.48 230.472 77.7927 230.939 78.418C231.405 79.0433 231.639 80.042 231.639 81.414V83.22C231.639 83.948 231.578 84.564 231.457 85.068C231.335 85.5627 231.149 85.964 230.897 86.272C230.654 86.58 230.341 86.804 229.959 86.944C229.585 87.0747 229.142 87.14 228.629 87.14ZM239.587 83.192C239.465 83.192 239.358 83.234 239.265 83.318C239.171 83.402 239.125 83.528 239.125 83.696V85.544C239.125 85.7027 239.162 85.8287 239.237 85.922C239.321 86.006 239.423 86.048 239.545 86.048C239.685 86.048 239.801 86.006 239.895 85.922C239.997 85.8287 240.049 85.7027 240.049 85.544V83.71C240.049 83.5513 240.002 83.4253 239.909 83.332C239.825 83.2387 239.717 83.192 239.587 83.192ZM239.601 82.114C239.946 82.114 240.231 82.1653 240.455 82.268C240.679 82.3707 240.856 82.5153 240.987 82.702C241.117 82.8793 241.211 83.094 241.267 83.346C241.323 83.598 241.351 83.878 241.351 84.186V85.054C241.351 85.8007 241.201 86.3373 240.903 86.664C240.604 86.9813 240.147 87.14 239.531 87.14C238.943 87.14 238.509 86.972 238.229 86.636C237.949 86.3 237.809 85.768 237.809 85.04V84.186C237.809 83.4207 237.953 82.884 238.243 82.576C238.541 82.268 238.994 82.114 239.601 82.114ZM234.659 81.428C234.78 81.428 234.887 81.386 234.981 81.302C235.074 81.218 235.121 81.092 235.121 80.924V79.076C235.121 78.9173 235.079 78.796 234.995 78.712C234.92 78.6187 234.822 78.572 234.701 78.572C234.561 78.572 234.439 78.6187 234.337 78.712C234.243 78.796 234.197 78.9173 234.197 79.076V80.91C234.197 81.0687 234.239 81.1947 234.323 81.288C234.416 81.3813 234.528 81.428 234.659 81.428ZM234.645 82.506C234.299 82.506 234.015 82.4593 233.791 82.366C233.567 82.2633 233.385 82.1233 233.245 81.946C233.114 81.7593 233.021 81.54 232.965 81.288C232.918 81.0267 232.895 80.742 232.895 80.434V79.566C232.895 78.8193 233.044 78.2873 233.343 77.97C233.641 77.6433 234.099 77.48 234.715 77.48C235.303 77.48 235.737 77.648 236.017 77.984C236.297 78.32 236.437 78.852 236.437 79.58V80.434C236.437 80.8167 236.399 81.1433 236.325 81.414C236.25 81.6753 236.138 81.89 235.989 82.058C235.849 82.2167 235.667 82.3333 235.443 82.408C235.219 82.4733 234.953 82.506 234.645 82.506ZM238.481 77.914C238.527 77.802 238.579 77.7273 238.635 77.69C238.691 77.6433 238.779 77.62 238.901 77.62H239.433C239.647 77.62 239.755 77.704 239.755 77.872C239.755 77.956 239.736 78.0353 239.699 78.11L235.765 86.706C235.709 86.818 235.653 86.8973 235.597 86.944C235.541 86.9813 235.457 87 235.345 87H234.813C234.589 87 234.477 86.916 234.477 86.748C234.477 86.6827 234.5 86.6033 234.547 86.51L238.481 77.914Z" fill="white"/>
<rect x="114.351" y="38.6494" width="61.555" height="61.555" rx="4.15243" transform="rotate(45 114.351 38.6494)" fill="#A4BAC4"/>
<path d="M110.497 71.63C110.68 71.63 110.798 71.7107 110.849 71.872L112.873 78.835C112.902 78.945 112.869 79 112.774 79H112.631C112.521 79 112.451 78.945 112.422 78.835L111.795 76.657H108.814L108.198 78.835C108.169 78.945 108.099 79 107.989 79H107.846C107.743 79 107.71 78.945 107.747 78.835L109.771 71.872C109.822 71.7107 109.94 71.63 110.123 71.63H110.497ZM108.924 76.283H111.685L110.563 72.345C110.519 72.1983 110.482 72.1067 110.453 72.07C110.431 72.026 110.383 72.004 110.31 72.004C110.237 72.004 110.185 72.026 110.156 72.07C110.134 72.1067 110.101 72.1983 110.057 72.345L108.924 76.283ZM114.433 77.361C114.433 77.6397 114.484 77.867 114.587 78.043C114.69 78.219 114.818 78.3583 114.972 78.461C115.133 78.5637 115.306 78.637 115.489 78.681C115.672 78.7177 115.845 78.736 116.006 78.736C116.475 78.736 116.849 78.6187 117.128 78.384C117.414 78.142 117.557 77.768 117.557 77.262V77.042C117.557 76.536 117.421 76.129 117.15 75.821C116.886 75.513 116.545 75.359 116.127 75.359H115.379C115.269 75.359 115.214 75.304 115.214 75.194V75.15C115.214 75.04 115.269 74.985 115.379 74.985H116.127C116.501 74.985 116.813 74.8603 117.062 74.611C117.311 74.3543 117.436 74.0133 117.436 73.588V73.39C117.436 72.884 117.3 72.51 117.029 72.268C116.758 72.0187 116.398 71.894 115.951 71.894C115.797 71.894 115.632 71.9123 115.456 71.949C115.287 71.9857 115.13 72.0517 114.983 72.147C114.844 72.2423 114.726 72.3743 114.631 72.543C114.543 72.7043 114.499 72.9097 114.499 73.159C114.499 73.269 114.444 73.324 114.334 73.324H114.224C114.114 73.324 114.059 73.269 114.059 73.159C114.059 72.9097 114.107 72.686 114.202 72.488C114.297 72.2827 114.426 72.1103 114.587 71.971C114.756 71.8243 114.954 71.7143 115.181 71.641C115.416 71.5603 115.672 71.52 115.951 71.52C116.266 71.52 116.541 71.5677 116.776 71.663C117.018 71.7583 117.22 71.894 117.381 72.07C117.542 72.2387 117.663 72.444 117.744 72.686C117.832 72.9207 117.876 73.1773 117.876 73.456V73.621C117.876 74.017 117.77 74.347 117.557 74.611C117.352 74.875 117.106 75.0583 116.82 75.161C117.172 75.2637 117.454 75.48 117.667 75.81C117.887 76.1327 117.997 76.5323 117.997 77.009V77.196C117.997 77.7607 117.828 78.2227 117.491 78.582C117.154 78.934 116.659 79.11 116.006 79.11C115.727 79.11 115.463 79.0733 115.214 79C114.972 78.9193 114.759 78.8093 114.576 78.67C114.4 78.5233 114.257 78.351 114.147 78.153C114.044 77.9477 113.993 77.7167 113.993 77.46V77.284C113.993 77.174 114.048 77.119 114.158 77.119H114.268C114.378 77.119 114.433 77.174 114.433 77.284V77.361Z" fill="white"/>
<path d="M109.612 82.48C110.658 82.48 111.404 82.7787 111.852 83.376C112.31 83.9733 112.538 84.8553 112.538 86.022V88.122C112.538 89.5033 112.3 90.5207 111.824 91.174C111.348 91.818 110.574 92.14 109.5 92.14C109.146 92.14 108.805 92.0933 108.478 92C108.161 91.9067 107.881 91.762 107.638 91.566C107.396 91.3607 107.2 91.0993 107.05 90.782C106.91 90.4553 106.84 90.068 106.84 89.62C106.84 89.564 106.845 89.5033 106.854 89.438C106.873 89.3727 106.901 89.312 106.938 89.256C106.976 89.2 107.027 89.1533 107.092 89.116C107.167 89.0787 107.265 89.06 107.386 89.06H108.03C108.31 89.06 108.45 89.2 108.45 89.48C108.45 89.8533 108.539 90.152 108.716 90.376C108.894 90.6 109.192 90.712 109.612 90.712C109.883 90.712 110.102 90.656 110.27 90.544C110.438 90.432 110.564 90.292 110.648 90.124C110.742 89.9467 110.802 89.7553 110.83 89.55C110.868 89.3447 110.886 89.1487 110.886 88.962V87.926C110.653 88.1033 110.41 88.234 110.158 88.318C109.906 88.3927 109.659 88.43 109.416 88.43C108.623 88.43 107.979 88.2153 107.484 87.786C106.99 87.3567 106.742 86.7173 106.742 85.868V85.182C106.742 84.7153 106.817 84.314 106.966 83.978C107.116 83.6327 107.316 83.3527 107.568 83.138C107.83 82.914 108.133 82.7507 108.478 82.648C108.833 82.536 109.211 82.48 109.612 82.48ZM109.612 83.908C109.192 83.908 108.875 83.9967 108.66 84.174C108.455 84.3513 108.352 84.664 108.352 85.112V85.938C108.352 86.3487 108.469 86.6287 108.702 86.778C108.936 86.9273 109.239 87.002 109.612 87.002C110.462 87.002 110.886 86.6473 110.886 85.938V85.112C110.886 84.832 110.844 84.6127 110.76 84.454C110.676 84.286 110.569 84.1647 110.438 84.09C110.308 84.006 110.168 83.9547 110.018 83.936C109.869 83.9173 109.734 83.908 109.612 83.908ZM120.489 88.192C120.368 88.192 120.26 88.234 120.167 88.318C120.074 88.402 120.027 88.528 120.027 88.696V90.544C120.027 90.7027 120.064 90.8287 120.139 90.922C120.223 91.006 120.326 91.048 120.447 91.048C120.587 91.048 120.704 91.006 120.797 90.922C120.9 90.8287 120.951 90.7027 120.951 90.544V88.71C120.951 88.5513 120.904 88.4253 120.811 88.332C120.727 88.2387 120.62 88.192 120.489 88.192ZM120.503 87.114C120.848 87.114 121.133 87.1653 121.357 87.268C121.581 87.3707 121.758 87.5153 121.889 87.702C122.02 87.8793 122.113 88.094 122.169 88.346C122.225 88.598 122.253 88.878 122.253 89.186V90.054C122.253 90.8007 122.104 91.3373 121.805 91.664C121.506 91.9813 121.049 92.14 120.433 92.14C119.845 92.14 119.411 91.972 119.131 91.636C118.851 91.3 118.711 90.768 118.711 90.04V89.186C118.711 88.4207 118.856 87.884 119.145 87.576C119.444 87.268 119.896 87.114 120.503 87.114ZM115.561 86.428C115.682 86.428 115.79 86.386 115.883 86.302C115.976 86.218 116.023 86.092 116.023 85.924V84.076C116.023 83.9173 115.981 83.796 115.897 83.712C115.822 83.6187 115.724 83.572 115.603 83.572C115.463 83.572 115.342 83.6187 115.239 83.712C115.146 83.796 115.099 83.9173 115.099 84.076V85.91C115.099 86.0687 115.141 86.1947 115.225 86.288C115.318 86.3813 115.43 86.428 115.561 86.428ZM115.547 87.506C115.202 87.506 114.917 87.4593 114.693 87.366C114.469 87.2633 114.287 87.1233 114.147 86.946C114.016 86.7593 113.923 86.54 113.867 86.288C113.82 86.0267 113.797 85.742 113.797 85.434V84.566C113.797 83.8193 113.946 83.2873 114.245 82.97C114.544 82.6433 115.001 82.48 115.617 82.48C116.205 82.48 116.639 82.648 116.919 82.984C117.199 83.32 117.339 83.852 117.339 84.58V85.434C117.339 85.8167 117.302 86.1433 117.227 86.414C117.152 86.6753 117.04 86.89 116.891 87.058C116.751 87.2167 116.569 87.3333 116.345 87.408C116.121 87.4733 115.855 87.506 115.547 87.506ZM119.383 82.914C119.43 82.802 119.481 82.7273 119.537 82.69C119.593 82.6433 119.682 82.62 119.803 82.62H120.335C120.55 82.62 120.657 82.704 120.657 82.872C120.657 82.956 120.638 83.0353 120.601 83.11L116.667 91.706C116.611 91.818 116.555 91.8973 116.499 91.944C116.443 91.9813 116.359 92 116.247 92H115.715C115.491 92 115.379 91.916 115.379 91.748C115.379 91.6827 115.402 91.6033 115.449 91.51L119.383 82.914Z" fill="white"/>
<rect x="0.5" y="0.5" width="394" height="394" rx="7.5" stroke="#4D4D4D" stroke-opacity="0.3"/>
<defs>
<clipPath id="clip0_543_4464">
<rect width="96" height="42" fill="white" transform="translate(17 167)"/>
</clipPath>
<clipPath id="clip1_543_4464">
<rect width="68" height="12" fill="white" transform="translate(31 154)"/>
</clipPath>
</defs>
</svg>
