<svg width="28" height="29" viewBox="0 0 28 29" fill="none" xmlns="http://www.w3.org/2000/svg">
<path d="M20.6666 9.96311C20.6666 8.13606 19.9409 6.38384 18.6489 5.09193C17.357 3.80001 15.6048 3.07422 13.7778 3.07422C11.9507 3.07422 10.1985 3.80001 8.90658 5.09193C7.61466 6.38384 6.88887 8.13606 6.88887 9.96311C6.88887 18.0001 3.44443 20.2964 3.44443 20.2964H24.1111C24.1111 20.2964 20.6666 18.0001 20.6666 9.96311Z" stroke="#AF0929" stroke-width="2" stroke-linecap="round" stroke-linejoin="round"/>
<path d="M15.7641 24.8889C15.5622 25.2369 15.2725 25.5257 14.9239 25.7265C14.5753 25.9273 14.1801 26.033 13.7778 26.033C13.3755 26.033 12.9803 25.9273 12.6317 25.7265C12.2831 25.5257 11.9934 25.2369 11.7915 24.8889" stroke="#AF0929" stroke-width="2" stroke-linecap="round" stroke-linejoin="round"/>
</svg>
